<?xml version="1.0" encoding="utf-8"?>
<!-- Generator: Adobe Illustrator 21.0.0, SVG Export Plug-In . SVG Version: 6.00 Build 0)  -->
<svg version="1.1" id="Capa_1" xmlns="http://www.w3.org/2000/svg" xmlns:xlink="http://www.w3.org/1999/xlink" x="0px" y="0px"
	 viewBox="0 0 400 388.4" style="enable-background:new 0 0 400 388.4;" xml:space="preserve">
<style type="text/css">
	.st0{fill:#494949;stroke:#494949;stroke-width:9;stroke-miterlimit:10;}
</style>
<g>
	<g>
		<path class="st0" d="M313.6,153.2c-11.2,0-22,2.4-32,6.4L268,133.2v-42c0-2.4-1.6-4.8-4-5.6l-32-12c-3.2-1.2-6.4,0.4-7.6,3.6
			c-1.2,3.2,0.4,6.4,3.6,7.6l28.4,10.4v34H139.2v-11.6h14.4c3.2,0,6-2.8,6-6s-2.8-6-6-6h-37.2c-3.2,0-6,2.8-6,6s2.8,6,6,6h10.8V134
			l-11.6,25.2c-8.8-3.6-18.8-5.6-28.8-5.6c-44.4,0-80.8,36-80.8,80.8s36,80.8,80.8,80.8c42.4,0,77.2-33.2,80.4-74.8h26
			c2,0,3.6-0.8,4.8-2.4l62.8-90.8l10,18.8c-22.8,13.6-38,39.2-38,68c0,44.4,36,80.8,80.8,80.8s80.8-36,80.8-80.8
			S358.4,153.2,313.6,153.2z M86.8,302.8C48.8,302.8,18,272,18,234s30.8-68.8,68.8-68.8c8.4,0,16.4,1.6,23.6,4.4l-29.2,62
			c0,0,0,0,0,0.4c-0.4,0.8-0.4,1.2-0.4,2c0,0,0,0,0,0.4c0,0.8,0,1.2,0.4,2v0.4c0,0.4,0,0.4,0.4,0.8c0,0.4,0.4,0.4,0.8,0.8
			c0,0,0,0,0,0.4c0.4,0.4,1.2,0.8,1.6,1.2h0.4c0.8,0.4,1.2,0.4,2,0.4h68.4C152,275.2,122.8,302.8,86.8,302.8z M96,228l25.2-53.2
			c18.8,10.8,32,30.4,34,53.2H96z M190,228h-23.2c-2-27.6-18-51.2-40.8-64.4l10.8-22.8H250L190,228z M313.2,302.8
			c-38,0-68.8-30.8-68.8-68.8c0-24.4,12.8-45.6,32-58l31.6,60.8c1.2,2,3.2,3.2,5.2,3.2c0.8,0,2-0.4,2.8-0.8c2.8-1.6,4-5.2,2.4-8
			l-31.6-60.8c8.4-3.2,17.2-5.2,26.4-5.2c38,0,68.8,30.8,68.8,68.8S351.2,302.8,313.2,302.8z"/>
	</g>
</g>
</svg>
