<?xml version="1.0" encoding="utf-8"?>
<!-- Generator: Adobe Illustrator 21.0.0, SVG Export Plug-In . SVG Version: 6.00 Build 0)  -->
<svg version="1.1" id="Layer_1" xmlns="http://www.w3.org/2000/svg" xmlns:xlink="http://www.w3.org/1999/xlink" x="0px" y="0px"
	 viewBox="0 0 388 388" style="enable-background:new 0 0 388 388;" xml:space="preserve">
<style type="text/css">
	.st0{fill:#191919;stroke:#191919;stroke-width:9;stroke-miterlimit:10;}
</style>
<path class="st0" d="M235.3,152.8c-3.9,0-7,3.1-7,7v132.5c0,3.9,3.1,7,7,7c3.9,0,7-3.1,7-7V159.8
	C242.3,155.9,239.1,152.8,235.3,152.8z"/>
<path class="st0" d="M152.5,152.8c-3.9,0-7,3.1-7,7v132.5c0,3.9,3.1,7,7,7c3.9,0,7-3.1,7-7V159.8
	C159.5,155.9,156.4,152.8,152.5,152.8z"/>
<path class="st0" d="M92.2,133.4v172.8c0,10.2,3.7,19.8,10.3,26.7c6.5,6.9,15.6,10.8,25.1,10.8h132.7c9.5,0,18.5-3.9,25.1-10.8
	c6.5-6.9,10.3-16.5,10.3-26.7V133.4c13-3.5,21.4-16,19.7-29.4c-1.7-13.3-13.1-23.3-26.6-23.3h-35.9V72c0-7.4-2.9-14.4-8.1-19.7
	c-5.2-5.2-12.3-8.1-19.7-8h-62.3c-7.4-0.1-14.5,2.8-19.7,8c-5.2,5.2-8.1,12.3-8.1,19.7v8.8H99.1c-13.5,0-24.8,10-26.6,23.3
	C70.8,117.4,79.2,130,92.2,133.4z M260.2,329.7H127.6c-12,0-21.3-10.3-21.3-23.5V134h175.3v172.2
	C281.6,319.4,272.2,329.7,260.2,329.7z M149,72c0-3.7,1.4-7.2,4-9.7c2.6-2.6,6.1-4,9.8-3.9H225c3.7-0.1,7.2,1.4,9.8,3.9
	c2.6,2.6,4,6.1,4,9.7v8.8H149V72z M99.1,94.8h189.6c7,0,12.6,5.7,12.6,12.6s-5.7,12.6-12.6,12.6H99.1c-7,0-12.6-5.7-12.6-12.6
	S92.1,94.8,99.1,94.8z"/>
<path class="st0" d="M193.9,152.8c-3.9,0-7,3.1-7,7v132.5c0,3.9,3.1,7,7,7s7-3.1,7-7V159.8C200.9,155.9,197.8,152.8,193.9,152.8z"/>
</svg>
