<?xml version="1.0" encoding="utf-8"?>
<!-- Generator: Adobe Illustrator 21.0.0, SVG Export Plug-In . SVG Version: 6.00 Build 0)  -->
<svg version="1.1" id="Layer_1" xmlns="http://www.w3.org/2000/svg" xmlns:xlink="http://www.w3.org/1999/xlink" x="0px" y="0px"
	 viewBox="0 0 300 370" style="enable-background:new 0 0 300 370;" xml:space="preserve">
<style type="text/css">
	.st0{display:none;}
	.st1{display:inline;}
	.st2{fill:#F14E51;}
	.st3{opacity:0.11;}
	.st4{fill:#FFC2C5;stroke:#FFC2C5;stroke-miterlimit:10;}
	.st5{display:inline;fill:#CC4452;stroke:#FFC2C5;stroke-miterlimit:10;}
	.st6{fill:none;}
	.st7{fill:#8E252F;}
	.st8{fill:#7C1818;}
</style>
<g id="Layer_1_1_" class="st0">
	<g class="st1">
		<rect class="st2" width="300" height="372"/>
	</g>
</g>
<g id="Layer_3" class="st3">
	
		<rect x="28.7" y="169.4" transform="matrix(0.7071 -0.7071 0.7071 0.7071 -118.2732 93.0613)" class="st4" width="49" height="39.8"/>
	
		<rect x="70.8" y="131.2" transform="matrix(0.7071 -0.7071 0.7071 0.7071 -80.0736 108.9258)" class="st4" width="41.2" height="39.8"/>
	
		<rect x="105.5" y="93.7" transform="matrix(0.7071 -0.7071 0.7071 0.7071 -42.5386 124.4737)" class="st4" width="46.9" height="39.8"/>
	
		<rect x="145.4" y="55.2" transform="matrix(0.7071 -0.7071 0.7071 0.7071 -4.0744 140.4064)" class="st4" width="44" height="39.8"/>
	
		<rect x="69.5" y="55.5" transform="matrix(0.7071 -0.7071 0.7071 0.7071 -27.5975 88.4033)" class="st4" width="46.9" height="44"/>
	<polygon class="st4" points="-0.5,183 9.1,192.5 -0.5,202.1 	"/>
	<polygon class="st4" points="11.6,42 -0.5,54.1 -0.5,30 	"/>
	<polygon class="st4" points="18,35.7 -0.5,17.2 -0.5,-0.5 48,-0.5 51.1,2.5 	"/>
	<polygon class="st4" points="12.6,114 -0.5,127.1 -0.5,101 	"/>
	<polygon class="st4" points="19,107.7 -0.5,88.2 -0.5,66.9 18,48.4 48.1,78.5 	"/>
	<polygon class="st4" points="19,120.4 50.1,151.5 15.5,186.2 -0.5,170.2 -0.5,139.9 	"/>
	<rect x="34.8" y="93" transform="matrix(0.7071 -0.7071 0.7071 0.7071 -65.1324 72.8555)" class="st4" width="41.2" height="44"/>
	
		<rect x="32.5" y="19.2" transform="matrix(0.7071 -0.7071 0.7071 0.7071 -12.2714 51.4036)" class="st4" width="46.9" height="42.6"/>
	<polygon class="st4" points="127.1,-0.5 94,32.7 60.8,-0.5 	"/>
	<rect x="109.4" y="17.1" transform="matrix(0.7071 -0.7071 0.7071 0.7071 10.8668 104.336)" class="st4" width="44" height="44"/>
	<polygon class="st4" points="202.1,-0.5 169,32.7 135.8,-0.5 	"/>
	
		<rect x="182.7" y="17.2" transform="matrix(0.7071 -0.7071 0.7071 0.7071 33.9607 156.1613)" class="st4" width="45.5" height="39.8"/>
	
		<rect x="122.8" y="351.5" transform="matrix(0.7071 -0.7071 0.7071 0.7071 -219.5094 212.9345)" class="st4" width="49" height="39.8"/>
	
		<rect x="165" y="313.3" transform="matrix(0.7071 -0.7071 0.7071 0.7071 -181.2391 228.8283)" class="st4" width="41.2" height="39.8"/>
	
		<rect x="199.7" y="275.8" transform="matrix(0.7071 -0.7071 0.7071 0.7071 -143.7041 244.3761)" class="st4" width="46.9" height="39.8"/>
	
		<rect x="239.6" y="237.3" transform="matrix(0.7071 -0.7071 0.7071 0.7071 -105.2398 260.3088)" class="st4" width="44" height="39.8"/>
	
		<rect x="235.7" y="309.7" transform="matrix(0.7071 -0.7071 0.7071 0.7071 -158.6159 280.3758)" class="st4" width="46.9" height="44"/>
	<polygon class="st4" points="153.7,425.1 144.1,415.5 134.5,425.1 	"/>
	<polygon class="st4" points="294.6,413 282.5,425.1 306.7,425.1 	"/>
	<polygon class="st4" points="301,406.7 319.4,425.1 337.1,425.1 337.1,376.6 334.1,373.5 	"/>
	<polygon class="st4" points="222.6,412 209.5,425.1 235.7,425.1 	"/>
	<polygon class="st4" points="229,405.7 248.4,425.1 269.8,425.1 288.2,406.7 258.1,376.5 	"/>
	<polygon class="st4" points="216.2,405.7 185.1,374.5 150.5,409.2 166.4,425.1 196.8,425.1 	"/>
	
		<rect x="201" y="347.2" transform="matrix(0.7071 -0.7071 0.7071 0.7071 -196.1509 264.828)" class="st4" width="41.2" height="44"/>
	
		<rect x="272.7" y="347.4" transform="matrix(0.7071 -0.7071 0.7071 0.7071 -173.9419 317.3754)" class="st4" width="46.9" height="42.6"/>
	<polygon class="st4" points="337.1,297.5 304,330.7 337.1,363.9 	"/>
	
		<rect x="275.6" y="271.2" transform="matrix(0.7071 -0.7071 0.7071 0.7071 -120.1516 296.3085)" class="st4" width="44" height="44"/>
	<polygon class="st4" points="337.1,222.5 304,255.7 337.1,288.9 	"/>
	
		<rect x="276.9" y="199.3" transform="matrix(0.7071 -0.7071 0.7071 0.7071 -67.2048 276.0638)" class="st4" width="45.5" height="39.8"/>
</g>
<g id="Layer_4" class="st0">
	<polygon class="st5" points="66.9,-0.5 63.8,2.5 60.8,-0.5 	"/>
	<polygon class="st5" points="139.9,-0.5 137.8,1.5 135.8,-0.5 	"/>
	<polygon class="st5" points="214.9,-0.5 213.8,0.5 212.8,-0.5 	"/>
	<polygon class="st5" points="202.1,-0.5 201.1,0.5 200,-0.5 	"/>
	<polygon class="st5" points="127.1,-0.5 125.1,1.5 123,-0.5 	"/>
</g>
<g id="Layer_5" class="st0">
	<g class="st1">
		<rect y="203" class="st6" width="302" height="37"/>
		<path class="st7" d="M121.7,203.5h1.9v6.8h4.2v1.6h-6.2L121.7,203.5L121.7,203.5z"/>
		<path class="st7" d="M128.3,208.7c0-1.9,1.5-3.3,3.5-3.3c2.1,0,3.5,1.4,3.5,3.3s-1.5,3.3-3.5,3.3S128.3,210.6,128.3,208.7z
			 M133.5,208.7c0-1.1-0.7-1.8-1.6-1.8c-0.9,0-1.7,0.7-1.7,1.8s0.7,1.8,1.7,1.8C132.8,210.5,133.5,209.8,133.5,208.7z"/>
		<path class="st7" d="M142.3,208.2v3.7h-1.8v-0.8c-0.3,0.6-1,0.9-2,0.9c-1.5,0-2.4-0.8-2.4-2c0-1.1,0.8-1.9,2.8-1.9h1.5
			c0-0.8-0.5-1.3-1.5-1.3c-0.7,0-1.4,0.2-1.9,0.6l-0.7-1.3c0.7-0.5,1.8-0.8,2.8-0.8C141.1,205.4,142.3,206.3,142.3,208.2z
			 M140.4,209.9v-0.7h-1.3c-0.9,0-1.2,0.3-1.2,0.8s0.4,0.8,1.1,0.8C139.6,210.7,140.2,210.5,140.4,209.9z"/>
		<path class="st7" d="M150.6,203v8.9h-1.8v-0.7c-0.5,0.6-1.2,0.8-2,0.8c-1.8,0-3.2-1.3-3.2-3.3s1.4-3.3,3.2-3.3
			c0.8,0,1.5,0.3,1.9,0.8V203H150.6z M148.8,208.7c0-1.1-0.7-1.8-1.6-1.8c-0.9,0-1.7,0.7-1.7,1.8s0.7,1.8,1.7,1.8
			C148,210.5,148.8,209.8,148.8,208.7z"/>
		<path class="st7" d="M152.1,203.5c0-0.6,0.5-1,1.2-1s1.2,0.4,1.2,1s-0.5,1.1-1.2,1.1S152.1,204.1,152.1,203.5z M152.3,205.5h1.9
			v6.5h-1.9V205.5z"/>
		<path class="st7" d="M171,205.5v5.4c0,2.4-1.3,3.5-3.6,3.5c-1.2,0-2.4-0.3-3.2-0.9l0.7-1.3c0.6,0.4,1.5,0.7,2.3,0.7
			c1.3,0,1.9-0.6,1.9-1.8v-0.3c-0.5,0.5-1.2,0.8-2,0.8c-1.8,0-3.2-1.2-3.2-3.1s1.4-3.1,3.2-3.1c0.9,0,1.6,0.3,2.1,0.9v-0.8
			L171,205.5L171,205.5z M169.1,208.5c0-0.9-0.7-1.6-1.7-1.6s-1.7,0.6-1.7,1.6c0,0.9,0.7,1.6,1.7,1.6S169.1,209.4,169.1,208.5z"/>
		<path class="st7" d="M172.2,210.8c0-0.7,0.5-1.2,1.2-1.2s1.2,0.5,1.2,1.2s-0.5,1.2-1.2,1.2S172.2,211.5,172.2,210.8z"/>
		<path class="st7" d="M175.4,210.8c0-0.7,0.5-1.2,1.2-1.2s1.2,0.5,1.2,1.2s-0.5,1.2-1.2,1.2S175.4,211.5,175.4,210.8z"/>
		<path class="st7" d="M178.5,210.8c0-0.7,0.5-1.2,1.2-1.2s1.2,0.5,1.2,1.2s-0.5,1.2-1.2,1.2S178.5,211.5,178.5,210.8z"/>
	</g>
</g>
<g>
	<path class="st8" d="M133.7,203.6l-2.7,8.4h-2.1l-1.8-5.7l-1.9,5.7H123l-2.8-8.4h2l1.9,5.9l2-5.9h1.8l1.9,5.9l2-5.9H133.7z"/>
	<path class="st8" d="M139.9,208.3v3.7h-1.8v-0.8c-0.3,0.6-1,0.9-2,0.9c-1.5,0-2.4-0.8-2.4-2c0-1.1,0.8-1.9,2.8-1.9h1.5
		c0-0.8-0.5-1.3-1.5-1.3c-0.7,0-1.4,0.2-1.9,0.6l-0.7-1.3c0.7-0.5,1.8-0.8,2.8-0.8C138.7,205.5,139.9,206.4,139.9,208.3z M138,210
		v-0.7h-1.3c-0.9,0-1.2,0.3-1.2,0.8c0,0.5,0.4,0.8,1.1,0.8C137.2,210.8,137.8,210.5,138,210z"/>
	<path class="st8" d="M141.3,203.6c0-0.6,0.5-1,1.2-1c0.7,0,1.2,0.4,1.2,1c0,0.6-0.5,1.1-1.2,1.1
		C141.8,204.6,141.3,204.2,141.3,203.6z M141.6,205.5h1.9v6.5h-1.9V205.5z"/>
	<path class="st8" d="M149.3,211.7c-0.4,0.3-0.9,0.4-1.5,0.4c-1.5,0-2.4-0.8-2.4-2.3v-2.7h-1v-1.4h1v-1.6h1.9v1.6h1.6v1.4h-1.6v2.6
		c0,0.6,0.3,0.9,0.8,0.9c0.3,0,0.6-0.1,0.8-0.2L149.3,211.7z"/>
	<path class="st8" d="M150.2,203.6c0-0.6,0.5-1,1.2-1c0.7,0,1.2,0.4,1.2,1c0,0.6-0.5,1.1-1.2,1.1
		C150.6,204.6,150.2,204.2,150.2,203.6z M150.4,205.5h1.9v6.5h-1.9V205.5z"/>
	<path class="st8" d="M160.6,208.3v3.7h-1.9v-3.4c0-1-0.5-1.5-1.3-1.5c-0.9,0-1.5,0.6-1.5,1.7v3.2H154v-6.5h1.8v0.8
		c0.5-0.6,1.3-0.9,2.1-0.9C159.5,205.5,160.6,206.3,160.6,208.3z"/>
	<path class="st8" d="M169,205.5v5.4c0,2.4-1.3,3.5-3.6,3.5c-1.2,0-2.4-0.3-3.2-0.9l0.7-1.3c0.6,0.4,1.5,0.7,2.3,0.7
		c1.3,0,1.9-0.6,1.9-1.8v-0.3c-0.5,0.5-1.2,0.8-2,0.8c-1.8,0-3.2-1.2-3.2-3.1c0-1.9,1.4-3.1,3.2-3.1c0.9,0,1.6,0.3,2.1,0.9v-0.8H169
		z M167.2,208.6c0-0.9-0.7-1.6-1.7-1.6s-1.7,0.6-1.7,1.6c0,0.9,0.7,1.6,1.7,1.6S167.2,209.5,167.2,208.6z"/>
	<path class="st8" d="M170.3,210.9c0-0.7,0.5-1.2,1.2-1.2s1.2,0.5,1.2,1.2c0,0.7-0.5,1.2-1.2,1.2S170.3,211.6,170.3,210.9z"/>
	<path class="st8" d="M173.5,210.9c0-0.7,0.5-1.2,1.2-1.2s1.2,0.5,1.2,1.2c0,0.7-0.5,1.2-1.2,1.2S173.5,211.6,173.5,210.9z"/>
	<path class="st8" d="M176.6,210.9c0-0.7,0.5-1.2,1.2-1.2s1.2,0.5,1.2,1.2c0,0.7-0.5,1.2-1.2,1.2S176.6,211.6,176.6,210.9z"/>
</g>
</svg>
