<?xml version="1.0" encoding="utf-8"?>
<!-- Generator: Adobe Illustrator 21.0.0, SVG Export Plug-In . SVG Version: 6.00 Build 0)  -->
<svg version="1.1" id="Layer_1" xmlns="http://www.w3.org/2000/svg" xmlns:xlink="http://www.w3.org/1999/xlink" x="0px" y="0px"
	 viewBox="0 0 388 388" style="enable-background:new 0 0 388 388;" xml:space="preserve">
<style type="text/css">
	.st0{fill:#494949;}
</style>
<path class="st0" d="M194,112.8c-3.4,0-6.3,2.8-6.3,6.3s2.8,6.3,6.3,6.3s6.3-2.8,6.3-6.3S197.4,112.8,194,112.8z"/>
<path class="st0" d="M90.3,225.3c3.4,0,6.3-2.8,6.3-6.3s-2.8-6.3-6.3-6.3S84,215.6,84,219S86.8,225.3,90.3,225.3z"/>
<path class="st0" d="M244,50.3c-56.3,0-102.4,38.8-106,87.7c-53.6,2.7-104,41.3-104,93.6c0,21.8,8.6,43,24.4,59.8
	c3.1,12.8-0.7,26.4-10,35.8c-1.8,1.8-2.3,4.5-1.4,6.8c1,2.3,3.2,3.9,5.8,3.9c17.8,0,35-7,47.8-19.3c12.4,4.2,28.7,6.8,43.5,6.8
	c56.3,0,102.4-38.8,106-87.6c13.1-0.6,26.7-3,37.5-6.7c12.8,12.3,29.9,19.3,47.8,19.3c2.5,0,4.8-1.5,5.8-3.9c1-2.3,0.4-5-1.4-6.8
	c-9.4-9.4-13.2-23-10-35.8C345.4,187,354,165.8,354,144C354,89.7,299.7,50.3,244,50.3z M144,312.8c-14.8,0-31.6-2.9-42.8-7.4
	c-2.4-1-5.2-0.3-6.9,1.6c-7.5,8.2-17.4,14-28,16.6c5.9-11.3,7.4-24.6,3.8-37.2c-0.3-1-0.8-1.9-1.5-2.6c-14.2-14.6-22-33.2-22-52.3
	c0-44,44.6-81.3,97.5-81.3c49.9,0,93.8,34.7,93.8,81.3C237.8,276.3,195.7,312.8,144,312.8z M319.5,196.3c-0.7,0.7-1.2,1.7-1.5,2.6
	c-3.6,12.6-2.1,25.9,3.8,37.2c-10.7-2.6-20.5-8.4-28-16.6c-1.8-1.9-4.5-2.5-6.9-1.6c-9.8,3.9-23.7,6.6-36.8,7.2
	c-1.8-23.6-13.6-45.8-33.8-62.3h81.5c3.5,0,6.3-2.8,6.3-6.3s-2.8-6.3-6.3-6.3H197c-14.2-7.2-30.1-11.4-46.5-12.3
	c3.6-42,44.2-75.2,93.5-75.2c52.9,0,97.5,37.2,97.5,81.3C341.5,163.1,333.7,181.7,319.5,196.3z"/>
<path class="st0" d="M194,212.8h-78.8c-3.5,0-6.3,2.8-6.3,6.3s2.8,6.3,6.3,6.3H194c3.5,0,6.3-2.8,6.3-6.3S197.5,212.8,194,212.8z"/>
<path class="st0" d="M194,250.3H90.3c-3.5,0-6.3,2.8-6.3,6.3s2.8,6.3,6.3,6.3H194c3.5,0,6.3-2.8,6.3-6.3S197.5,250.3,194,250.3z"/>
<path class="st0" d="M297.8,112.8H219c-3.5,0-6.3,2.8-6.3,6.3s2.8,6.3,6.3,6.3h78.8c3.5,0,6.3-2.8,6.3-6.3S301.2,112.8,297.8,112.8z
	"/>
</svg>
