<?xml version="1.0" encoding="utf-8"?>
<!-- Generator: Adobe Illustrator 21.0.0, SVG Export Plug-In . SVG Version: 6.00 Build 0)  -->
<svg version="1.1" xmlns="http://www.w3.org/2000/svg" xmlns:xlink="http://www.w3.org/1999/xlink" x="0px" y="0px"
	 viewBox="0 0 500 500" style="enable-background:new 0 0 500 500;" xml:space="preserve">
<style type="text/css">
	.st0{fill:#CCCCCC;}
	.st1{fill:none;stroke:#999999;stroke-width:9;stroke-miterlimit:10;}
	.st2{opacity:0.38;}
	.st3{fill:#FFFFFF;}
	.st4{fill:#996600;}
	.st5{fill:#999999;}
</style>
<g id="Layer_1">
	<g>
		<path class="st0" d="M249.7,483.8L249.7,483.8c-129.2,0-234-104.8-234-234v0c0-129.2,104.8-234,234-234h0
			c129.2,0,234,104.8,234,234v0C483.7,379,379,483.8,249.7,483.8z"/>
	</g>
</g>
<g id="Layer_2">
	<path class="st1" d="M249.7,453.8L249.7,453.8c-112.7,0-204-91.3-204-204v0c0-112.7,91.3-204,204-204h0c112.7,0,204,91.3,204,204v0
		C453.7,362.5,362.4,453.8,249.7,453.8z"/>
	<g class="st2">
		<g>
			<path d="M327.4,132.7l3.8,5.6c-11.8,1.7-20.5,5.1-26.4,10.2S296,161,296,170.9c0,5.4,0.6,13.2,1.7,23.5c2,17.6,3.1,31.9,3.1,43.1
				c0,15-3.3,28.2-10,39.5c-6.7,11.3-22.4,27.5-47,48.5c16.1-5.3,30.6-7.9,43.5-7.9c11.7,0,22.3,1.6,31.6,4.8
				c9.3,3.2,19.7,8.8,31.2,16.8l15.4-13.8l4.5,5.3L330.2,365c-10.8-8.1-21.6-14-32.4-17.7c-10.8-3.7-23.4-5.6-37.8-5.6
				c-13.4,0-26,1.6-37.8,4.8c-11.8,3.2-27,9.4-45.6,18.6l-3.1-4.4c18.5-13.7,30.8-24.6,36.8-32.9c6-8.2,9-16,9-23.2
				c0-6.9-2.2-12.7-6.6-17.4c-4.4-4.6-9.4-7-15.1-7c-2.9,0-6.1,0.9-9.8,2.6l-4.7-4.5c3.8-3.3,7.3-5.7,10.4-7c3.2-1.3,6.8-2,11-2
				c2.5,0,5,0.3,7.5,1c2.6,0.7,5.1,1.7,7.7,3.1c0.2-2.3,0.3-4.2,0.3-5.7c0-6.5-2.5-12.2-7.3-17c-4.9-4.8-10.9-7.2-18.1-7.2
				c-5.1,0-10.4,2-15.8,6.1l-5.4-3.8c3.8-5,7.7-8.5,11.7-10.5c6.3-3.4,13.1-5,20.2-5c1.5,0,3.2,0.1,5.1,0.4c1.8,0.3,3.8,0.7,5.8,1.3
				c-0.6-6.2-0.9-11.5-0.9-15.7c0-12.4,1.9-22.9,5.6-31.6c3.7-8.7,10.1-17.8,19.2-27.2c-9.8,3.5-18.1,5.2-24.9,5.2
				c-6.7,0-15.3-1.6-25.6-4.8c-4.7-1.4-8.4-2.1-11.2-2.1c-5.3,0-9.8,1.7-13.4,5c-3.6,3.4-5.4,7.4-5.4,12.1c0,1.7,0.5,3.8,1.4,6.1
				l-6.7,2.4c-1.2-4.8-1.8-8.8-1.8-12c0-9.9,3.8-18.5,11.5-25.8c7.7-7.3,16.8-11,27.5-11c4.9,0,12.5,1.8,22.7,5.5s18.2,5.5,23.9,5.5
				c10.4,0,20.3-3.7,29.7-11l4.5,5.6c-10.2,7.7-17.3,15.2-21.4,22.7c-4.1,7.5-6.2,16.5-6.2,27.1c0,7.9,0.5,17,1.5,27.3
				c2,19.4,3.1,32.6,3.1,39.5c0,14.8-2.4,28.2-7.2,40.2c-4.8,12-13.4,25.9-26,41.6c19.1-13.6,32.8-27.5,41.1-41.9
				c8.3-14.3,12.5-30.4,12.5-48.3c0-10.1-0.7-21.2-2.1-33.3c-1.4-12.1-2.1-22.3-2.1-30.6c0-7.4,1.7-14.6,5.2-21.8
				c3.5-7.2,8-12.8,13.7-16.9c5.7-4.1,12-7.1,18.9-8.9C308.8,133.8,316.7,133,327.4,132.7z"/>
		</g>
		<g>
			<path class="st3" d="M327.4,132.7l3.8,5.6c-11.8,1.7-20.5,5.1-26.4,10.2S296,161,296,170.9c0,5.4,0.6,13.2,1.7,23.5
				c2,17.6,3.1,31.9,3.1,43.1c0,15-3.3,28.2-10,39.5c-6.7,11.3-22.4,27.5-47,48.5c16.1-5.3,30.6-7.9,43.5-7.9
				c11.7,0,22.3,1.6,31.6,4.8c9.3,3.2,19.7,8.8,31.2,16.8l15.4-13.8l4.5,5.3L330.2,365c-10.8-8.1-21.6-14-32.4-17.7
				c-10.8-3.7-23.4-5.6-37.8-5.6c-13.4,0-26,1.6-37.8,4.8c-11.8,3.2-27,9.4-45.6,18.6l-3.1-4.4c18.5-13.7,30.8-24.6,36.8-32.9
				c6-8.2,9-16,9-23.2c0-6.9-2.2-12.7-6.6-17.4c-4.4-4.6-9.4-7-15.1-7c-2.9,0-6.1,0.9-9.8,2.6l-4.7-4.5c3.8-3.3,7.3-5.7,10.4-7
				c3.2-1.3,6.8-2,11-2c2.5,0,5,0.3,7.5,1c2.6,0.7,5.1,1.7,7.7,3.1c0.2-2.3,0.3-4.2,0.3-5.7c0-6.5-2.5-12.2-7.3-17
				c-4.9-4.8-10.9-7.2-18.1-7.2c-5.1,0-10.4,2-15.8,6.1l-5.4-3.8c3.8-5,7.7-8.5,11.7-10.5c6.3-3.4,13.1-5,20.2-5
				c1.5,0,3.2,0.1,5.1,0.4c1.8,0.3,3.8,0.7,5.8,1.3c-0.6-6.2-0.9-11.5-0.9-15.7c0-12.4,1.9-22.9,5.6-31.6
				c3.7-8.7,10.1-17.8,19.2-27.2c-9.8,3.5-18.1,5.2-24.9,5.2c-6.7,0-15.3-1.6-25.6-4.8c-4.7-1.4-8.4-2.1-11.2-2.1
				c-5.3,0-9.8,1.7-13.4,5c-3.6,3.4-5.4,7.4-5.4,12.1c0,1.7,0.5,3.8,1.4,6.1l-6.7,2.4c-1.2-4.8-1.8-8.8-1.8-12
				c0-9.9,3.8-18.5,11.5-25.8c7.7-7.3,16.8-11,27.5-11c4.9,0,12.5,1.8,22.7,5.5s18.2,5.5,23.9,5.5c10.4,0,20.3-3.7,29.7-11l4.5,5.6
				c-10.2,7.7-17.3,15.2-21.4,22.7c-4.1,7.5-6.2,16.5-6.2,27.1c0,7.9,0.5,17,1.5,27.3c2,19.4,3.1,32.6,3.1,39.5
				c0,14.8-2.4,28.2-7.2,40.2c-4.8,12-13.4,25.9-26,41.6c19.1-13.6,32.8-27.5,41.1-41.9c8.3-14.3,12.5-30.4,12.5-48.3
				c0-10.1-0.7-21.2-2.1-33.3c-1.4-12.1-2.1-22.3-2.1-30.6c0-7.4,1.7-14.6,5.2-21.8c3.5-7.2,8-12.8,13.7-16.9
				c5.7-4.1,12-7.1,18.9-8.9C308.8,133.8,316.7,133,327.4,132.7z"/>
		</g>
		<g>
			<path class="st4" d="M327.4,132.7l3.8,5.6c-11.8,1.7-20.5,5.1-26.4,10.2S296,161,296,170.9c0,5.4,0.6,13.2,1.7,23.5
				c2,17.6,3.1,31.9,3.1,43.1c0,15-3.3,28.2-10,39.5c-6.7,11.3-22.4,27.5-47,48.5c16.1-5.3,30.6-7.9,43.5-7.9
				c11.7,0,22.3,1.6,31.6,4.8c9.3,3.2,19.7,8.8,31.2,16.8l15.4-13.8l4.5,5.3L330.2,365c-10.8-8.1-21.6-14-32.4-17.7
				c-10.8-3.7-23.4-5.6-37.8-5.6c-13.4,0-26,1.6-37.8,4.8c-11.8,3.2-27,9.4-45.6,18.6l-3.1-4.4c18.5-13.7,30.8-24.6,36.8-32.9
				c6-8.2,9-16,9-23.2c0-6.9-2.2-12.7-6.6-17.4c-4.4-4.6-9.4-7-15.1-7c-2.9,0-6.1,0.9-9.8,2.6l-4.7-4.5c3.8-3.3,7.3-5.7,10.4-7
				c3.2-1.3,6.8-2,11-2c2.5,0,5,0.3,7.5,1c2.6,0.7,5.1,1.7,7.7,3.1c0.2-2.3,0.3-4.2,0.3-5.7c0-6.5-2.5-12.2-7.3-17
				c-4.9-4.8-10.9-7.2-18.1-7.2c-5.1,0-10.4,2-15.8,6.1l-5.4-3.8c3.8-5,7.7-8.5,11.7-10.5c6.3-3.4,13.1-5,20.2-5
				c1.5,0,3.2,0.1,5.1,0.4c1.8,0.3,3.8,0.7,5.8,1.3c-0.6-6.2-0.9-11.5-0.9-15.7c0-12.4,1.9-22.9,5.6-31.6
				c3.7-8.7,10.1-17.8,19.2-27.2c-9.8,3.5-18.1,5.2-24.9,5.2c-6.7,0-15.3-1.6-25.6-4.8c-4.7-1.4-8.4-2.1-11.2-2.1
				c-5.3,0-9.8,1.7-13.4,5c-3.6,3.4-5.4,7.4-5.4,12.1c0,1.7,0.5,3.8,1.4,6.1l-6.7,2.4c-1.2-4.8-1.8-8.8-1.8-12
				c0-9.9,3.8-18.5,11.5-25.8c7.7-7.3,16.8-11,27.5-11c4.9,0,12.5,1.8,22.7,5.5s18.2,5.5,23.9,5.5c10.4,0,20.3-3.7,29.7-11l4.5,5.6
				c-10.2,7.7-17.3,15.2-21.4,22.7c-4.1,7.5-6.2,16.5-6.2,27.1c0,7.9,0.5,17,1.5,27.3c2,19.4,3.1,32.6,3.1,39.5
				c0,14.8-2.4,28.2-7.2,40.2c-4.8,12-13.4,25.9-26,41.6c19.1-13.6,32.8-27.5,41.1-41.9c8.3-14.3,12.5-30.4,12.5-48.3
				c0-10.1-0.7-21.2-2.1-33.3c-1.4-12.1-2.1-22.3-2.1-30.6c0-7.4,1.7-14.6,5.2-21.8c3.5-7.2,8-12.8,13.7-16.9
				c5.7-4.1,12-7.1,18.9-8.9C308.8,133.8,316.7,133,327.4,132.7z"/>
		</g>
		<g>
			<path class="st5" d="M327.4,132.7l3.8,5.6c-11.8,1.7-20.5,5.1-26.4,10.2S296,161,296,170.9c0,5.4,0.6,13.2,1.7,23.5
				c2,17.6,3.1,31.9,3.1,43.1c0,15-3.3,28.2-10,39.5c-6.7,11.3-22.4,27.5-47,48.5c16.1-5.3,30.6-7.9,43.5-7.9
				c11.7,0,22.3,1.6,31.6,4.8c9.3,3.2,19.7,8.8,31.2,16.8l15.4-13.8l4.5,5.3L330.2,365c-10.8-8.1-21.6-14-32.4-17.7
				c-10.8-3.7-23.4-5.6-37.8-5.6c-13.4,0-26,1.6-37.8,4.8c-11.8,3.2-27,9.4-45.6,18.6l-3.1-4.4c18.5-13.7,30.8-24.6,36.8-32.9
				c6-8.2,9-16,9-23.2c0-6.9-2.2-12.7-6.6-17.4c-4.4-4.6-9.4-7-15.1-7c-2.9,0-6.1,0.9-9.8,2.6l-4.7-4.5c3.8-3.3,7.3-5.7,10.4-7
				c3.2-1.3,6.8-2,11-2c2.5,0,5,0.3,7.5,1c2.6,0.7,5.1,1.7,7.7,3.1c0.2-2.3,0.3-4.2,0.3-5.7c0-6.5-2.5-12.2-7.3-17
				c-4.9-4.8-10.9-7.2-18.1-7.2c-5.1,0-10.4,2-15.8,6.1l-5.4-3.8c3.8-5,7.7-8.5,11.7-10.5c6.3-3.4,13.1-5,20.2-5
				c1.5,0,3.2,0.1,5.1,0.4c1.8,0.3,3.8,0.7,5.8,1.3c-0.6-6.2-0.9-11.5-0.9-15.7c0-12.4,1.9-22.9,5.6-31.6
				c3.7-8.7,10.1-17.8,19.2-27.2c-9.8,3.5-18.1,5.2-24.9,5.2c-6.7,0-15.3-1.6-25.6-4.8c-4.7-1.4-8.4-2.1-11.2-2.1
				c-5.3,0-9.8,1.7-13.4,5c-3.6,3.4-5.4,7.4-5.4,12.1c0,1.7,0.5,3.8,1.4,6.1l-6.7,2.4c-1.2-4.8-1.8-8.8-1.8-12
				c0-9.9,3.8-18.5,11.5-25.8c7.7-7.3,16.8-11,27.5-11c4.9,0,12.5,1.8,22.7,5.5s18.2,5.5,23.9,5.5c10.4,0,20.3-3.7,29.7-11l4.5,5.6
				c-10.2,7.7-17.3,15.2-21.4,22.7c-4.1,7.5-6.2,16.5-6.2,27.1c0,7.9,0.5,17,1.5,27.3c2,19.4,3.1,32.6,3.1,39.5
				c0,14.8-2.4,28.2-7.2,40.2c-4.8,12-13.4,25.9-26,41.6c19.1-13.6,32.8-27.5,41.1-41.9c8.3-14.3,12.5-30.4,12.5-48.3
				c0-10.1-0.7-21.2-2.1-33.3c-1.4-12.1-2.1-22.3-2.1-30.6c0-7.4,1.7-14.6,5.2-21.8c3.5-7.2,8-12.8,13.7-16.9
				c5.7-4.1,12-7.1,18.9-8.9C308.8,133.8,316.7,133,327.4,132.7z"/>
		</g>
	</g>
	<g>
	</g>
	<g>
	</g>
	<g>
	</g>
	<g>
	</g>
	<g>
	</g>
	<g>
	</g>
	<g>
	</g>
	<g>
	</g>
	<g>
	</g>
	<g>
	</g>
	<g>
	</g>
	<g>
	</g>
	<g>
	</g>
	<g>
	</g>
	<g>
	</g>
</g>
</svg>
