<?xml version="1.0" encoding="utf-8"?>
<!-- Generator: Adobe Illustrator 21.0.0, SVG Export Plug-In . SVG Version: 6.00 Build 0)  -->
<svg version="1.1" xmlns="http://www.w3.org/2000/svg" xmlns:xlink="http://www.w3.org/1999/xlink" x="0px" y="0px"
	 viewBox="0 0 488 488" style="enable-background:new 0 0 488 488;" xml:space="preserve">
<style type="text/css">
	.st0{display:none;}
	.st1{display:inline;}
	.st2{fill:#FFFFFF;}
</style>
<g id="Layer_2" class="st0">
	<rect class="st1" width="488" height="488"/>
</g>
<g id="Capa_1">
	<g>
		<g>
			<path class="st2" d="M484,208v120c0,19.3-13.8,35.5-32,39.2V488h-16V368h-72v112c0,4.4-3.6,8-8,8h-48c-4.4,0-8-3.6-8-8V352h-48
				v120h32v16h-80v-16h32V352h-48v128c0,4.4-3.6,8-8,8h-48c-4.4,0-8-3.6-8-8V368H52v120H36V367.2C17.8,363.5,4,347.3,4,328V208
				c0-19.9,14.6-36.3,33.6-39.3C26.8,158.4,20,144,20,128c0-30.9,25.1-56,56-56s56,25.1,56,56c0,19.7-10.2,36.9-25.5,46.9
				C117,182.1,124,194.3,124,208v56h32v-40c0-28.6,21.6-52.3,49.4-55.6C194.7,158.2,188,143.9,188,128c0-30.9,25.1-56,56-56
				s56,25.1,56,56c0,15.9-6.7,30.2-17.4,40.4c27.8,3.3,49.4,27,49.4,55.6v40h32v-56c0-13.7,7-25.9,17.5-33.1
				c-15.3-10-25.5-27.3-25.5-46.9c0-30.9,25.1-56,56-56s56,25.1,56,56c0,16-6.8,30.4-17.6,40.7C469.4,171.7,484,188.1,484,208z"/>
		</g>
	</g>
	<g>
		<g>
			<rect x="236" y="264" class="st2" width="16" height="16"/>
		</g>
	</g>
</g>
</svg>
