<?xml version="1.0" encoding="iso-8859-1"?>
<!-- Generator: Adobe Illustrator 19.0.0, SVG Export Plug-In . SVG Version: 6.00 Build 0)  -->
<svg version="1.1" id="Layer_1" xmlns="http://www.w3.org/2000/svg" xmlns:xlink="http://www.w3.org/1999/xlink" x="0px" y="0px"
	 viewBox="0 0 512 512" style="enable-background:new 0 0 512 512;" xml:space="preserve">
<rect x="181.692" y="373.289" style="fill:#CEC3A7;" width="148.619" height="106.873"/>
<rect x="181.692" y="373.289" style="opacity:0.15;fill:#231F20;enable-background:new    ;" width="17.746" height="106.873"/>
<path style="fill:#E8DBB8;" d="M463.433,0.908h35.258c7.352,0,13.309,5.959,13.309,13.309v381.806
	c0,7.35-5.957,13.309-13.309,13.309H13.309C5.959,409.333,0,403.373,0,396.023V14.217C0,6.867,5.959,0.908,13.309,0.908h421.843"/>
<path style="opacity:0.15;fill:#231F20;enable-background:new    ;" d="M18.3,396.023V14.217c0-7.35,5.959-13.309,13.309-13.309
	h-18.3C5.959,0.908,0,6.867,0,14.217v381.806c0,7.35,5.959,13.309,13.309,13.309h18.3C24.259,409.333,18.3,403.373,18.3,396.023z"/>
<path style="fill:#E8DBB8;" d="M404.293,497.783c0,7.35-5.958,13.309-13.309,13.309H121.016c-7.351,0-13.309-5.959-13.309-13.309
	v-23.739c0-7.35,5.958-13.309,13.309-13.309h269.967c7.351,0,13.309,5.959,13.309,13.309v23.739H404.293z"/>
<path style="fill:#53CAF9;" d="M454.279,46.71H57.721c-7.022,0-12.716,5.694-12.716,12.716v12.2v239.63v12.2
	c0,7.022,5.694,12.716,12.716,12.716h38.064h27.725h330.768c7.024,0,12.716-5.694,12.716-12.716v-12.2V71.626v-12.2
	C466.995,52.404,461.303,46.71,454.279,46.71z"/>
<path style="fill:#547475;" d="M89.635,381.605H63.86c-4.594,0-8.318-3.723-8.318-8.318c0-4.595,3.724-8.318,8.318-8.318h25.775
	c4.594,0,8.318,3.723,8.318,8.318C97.953,377.882,94.229,381.605,89.635,381.605z"/>
<g>
	<path style="fill:#F2E7CC;" d="M468.104,373.287c0,5.513-4.469,9.982-9.982,9.982h-27.994c-5.513,0-9.982-4.469-9.982-9.982l0,0
		c0-5.513,4.469-9.982,9.982-9.982h27.994C463.634,363.305,468.104,367.775,468.104,373.287L468.104,373.287z"/>
	<path style="fill:#F2E7CC;" d="M392.316,373.287c0,5.513-4.469,9.982-9.982,9.982h-27.994c-5.513,0-9.982-4.469-9.982-9.982l0,0
		c0-5.513,4.469-9.982,9.982-9.982h27.994C387.847,363.305,392.316,367.775,392.316,373.287L392.316,373.287z"/>
</g>
<path style="fill:#F5F5F5;" d="M454.279,43.383H57.721c-7.022,0-12.716,5.694-12.716,12.716v12.2v15.447h421.989V68.299v-12.2
	C466.995,49.077,461.303,43.383,454.279,43.383z"/>
<path style="fill:#547475;" d="M94.938,43.383H57.721c-7.022,0-12.716,5.694-12.716,12.716v12.2v15.447h49.933V43.383z"/>
<path style="opacity:0.15;fill:#231F20;enable-background:new    ;" d="M62.75,323.31v-12.341V68.585v-12.34
	c0-7.103,5.694-12.862,12.716-12.862H57.721c-7.022,0-12.716,5.76-12.716,12.862v12.34v242.384v12.34
	c0,7.103,5.694,12.862,12.716,12.862h17.746C68.445,336.172,62.75,330.413,62.75,323.31z"/>
<g>
</g>
<g>
</g>
<g>
</g>
<g>
</g>
<g>
</g>
<g>
</g>
<g>
</g>
<g>
</g>
<g>
</g>
<g>
</g>
<g>
</g>
<g>
</g>
<g>
</g>
<g>
</g>
<g>
</g>
</svg>
