<?xml version="1.0" encoding="utf-8"?>
<!-- Generator: Adobe Illustrator 21.0.0, SVG Export Plug-In . SVG Version: 6.00 Build 0)  -->
<svg version="1.1" id="Capa_1" xmlns="http://www.w3.org/2000/svg" xmlns:xlink="http://www.w3.org/1999/xlink" x="0px" y="0px"
	 viewBox="0 0 30 30" style="enable-background:new 0 0 30 30;" xml:space="preserve">
<style type="text/css">
	.st0{fill:#CB8252;}
	.st1{fill:#805333;}
	.st2{fill:#FAC176;}
	.st3{fill:#F18D46;}
</style>
<path class="st0" d="M6.1,5l3.7,3.7c0.1,0.1,0.2,0.2,0.3,0.3l0,0c0.2,0.2,0.4,0.4,0.6,0.5c2.3,2.1,3.7,2.6,3.7,2.6l0,0l0.6,0.5
	l-2.4,2.4L12,14.3l0,0c0,0-0.4-1.4-2.6-3.7c-0.2-0.2-0.4-0.4-0.5-0.6C8.8,10,8.7,9.9,8.6,9.8L5,6.1L4.5,5.7l1.2-1.2L6.1,5z"/>
<g>
	<path class="st1" d="M10.1,8.9c0.2,0.2,0.4,0.4,0.6,0.5c0,0,0,0,0,0l-1.1,1.1c0,0,0,0,0,0c-0.2-0.2-0.4-0.4-0.5-0.6l0,0L10.1,8.9z"
		/>
	<path class="st1" d="M5.5,3.8l0.6,0.6c0.1,0.1,0.1,0.2,0.1,0.3s0,0.2-0.1,0.3L5,6.1c-0.2,0.2-0.4,0.2-0.6,0L3.8,5.5
		C3.7,5.4,3.7,5.1,3.8,5l0.3-0.3l0.3-0.3l0.3-0.3L5,3.8C5,3.8,5.1,3.7,5.2,3.7C5.3,3.7,5.5,3.8,5.5,3.8L5.5,3.8z"/>
</g>
<path class="st2" d="M15.7,11.8l0.4,0.4l6.4,6.4l0.6,0.6l0.3,0.3l2.2,2.2l0.9,0.9c0.3,0.3,0.5,0.7,0.5,1.1c0,0.4-0.2,0.8-0.5,1.1
	l-1.7,1.7c-0.3,0.3-0.7,0.5-1.1,0.5c-0.4,0-0.8-0.2-1.1-0.5L11.8,15.7c-0.1-0.1-0.2-0.4-0.2-0.6c0-0.2,0.1-0.4,0.2-0.6l2.5-2.5
	l0.1-0.1l0.3-0.3c0.1-0.1,0.4-0.2,0.6-0.2C15.4,11.5,15.6,11.6,15.7,11.8z"/>
<g>
	<path class="st3" d="M14,12.3l2.8,4l7.4,7.4c0.2,0.2,0.2,0.4,0,0.6c-0.1,0.1-0.2,0.1-0.3,0.1c-0.1,0-0.2,0-0.3-0.1l-7.4-7.4l-4-2.8
		L14,12.3z"/>
	<path class="st3" d="M18.3,18.3L18.3,18.3"/>
</g>
</svg>
