<svg id="Capa_1" enable-background="new 0 0 509.462 509.462" height="512" viewBox="0 0 509.462 509.462" width="512" xmlns="http://www.w3.org/2000/svg"><path d="m429.042 366.305c-2.081-4.267-6.056-7.29-10.709-8.165-.149-.03-.298-.059-.446-.086l-102.4-19.137c-.909-.17-1.831-.255-2.756-.255h-116c-.925 0-1.847.085-2.756.255l-102.401 19.138c-.146.026-.292.055-.443.085-4.654.875-8.629 3.898-10.711 8.166-2.127 4.359-2.014 9.479.303 13.74l4.805 8.84c17.535 32.316 26.804 68.824 26.804 105.576 0 8.284 6.716 15 15 15h254.801c8.284 0 15-6.716 15-15 0-36.752 9.269-73.26 26.798-105.566l4.811-8.85c2.314-4.262 2.427-9.381.3-13.741z" fill="#f2f6fc"/><path d="m418.333 358.14c-.149-.03-.298-.059-.446-.086l-102.4-19.137c-.909-.17-1.831-.255-2.756-.255h-58v170.8h127.401c8.284 0 15-6.716 15-15 0-36.752 9.269-73.26 26.798-105.566l4.811-8.85c2.316-4.262 2.43-9.381.303-13.74-2.083-4.267-6.057-7.291-10.711-8.166z" fill="#e9edf5"/><path d="m418.382 358.149s-36.251 52.916-36.251 151.313h97.81c8.284 0 15-6.716 15-15v-43.69c0-45.175-32.197-84.128-76.559-92.623z" fill="#414952"/><path d="m91.08 358.149s36.251 52.916 36.251 151.313h-97.81c-8.284 0-15-6.716-15-15v-43.69c0-45.175 32.197-84.128 76.559-92.623z" fill="#555a66"/><path d="m239.731 336.754h30v172.708h-30z" fill="#555a66"/><path d="m254.73 336.754h15v172.708h-15z" fill="#414952"/><path d="m334.917 275.732h-160.372v76.682l68 90.797c2.817 3.925 7.354 6.253 12.186 6.253s9.368-2.328 12.186-6.253l68-90.797z" fill="#fac6b6"/><path d="m254.73 449.464c4.833 0 9.369-2.328 12.186-6.253l68-90.797v-76.682h-80.186z" fill="#faa68e"/><path d="m254.731 29.918c-60.177 0-109.134 48.957-109.134 109.134l.002 77.724c-.221 44.22 16.657 76.125 58.257 110.124 14.739 12.045 32.807 18.068 50.873 18.068 18.067 0 36.135-6.023 50.874-18.069 41.6-33.999 58.478-65.903 58.257-110.047l.005-77.801c0-60.176-48.957-109.133-109.134-109.133z" fill="#ffdecf"/><path d="m254.731 29.918v315.051c18.067 0 36.134-6.023 50.873-18.069 41.6-33.999 58.478-65.903 58.257-110.047l.005-77.801c-.001-60.177-48.958-109.134-109.135-109.134z" fill="#b3b3b3"/><path d="m254.732 29.918v315.051c18.066-.001 36.133-6.024 50.871-18.069 41.6-33.999 58.478-65.903 58.257-110.047l.005-77.801c0-60.177-48.957-109.134-109.133-109.134z" fill="#fac6b6"/><path d="m389.053 160.453v49.405h-268.643v-49.405h-30v117.499c0 25.658 15.139 49.523 39.509 62.284 24.773 12.97 66.536 28.431 124.813 28.431 58.278 0 100.04-15.461 124.813-28.432 24.37-12.761 39.51-36.626 39.51-62.284v-117.498zm-268.643 113.809v-34.404h44.863v34.404zm10.967 30h33.896v18.981c-8.292-3.142-15.442-6.446-21.438-9.585-4.808-2.517-8.992-5.721-12.458-9.396zm108.354 34.018c-16.543-.852-31.36-3.066-44.458-6.042v-27.976h44.458zm0-64.018h-44.458v-34.404h44.458zm74.459 57.979c-13.096 2.976-27.917 5.187-44.459 6.039v-34.018h44.459zm0-57.979h-44.459v-34.404h44.459zm51.437 39.396c-5.996 3.14-13.146 6.444-21.438 9.587v-18.983h33.895c-3.466 3.674-7.65 6.879-12.457 9.396zm23.426-39.396h-44.863v-34.404h44.863z" fill="#dce1eb"/><path d="m254.731 0c-78.299 0-141.999 57.997-141.999 129.287l.002 31.167c.001 8.284 6.716 14.999 15 14.999h253.997c8.284 0 15-6.716 15-15v-31.167c0-71.289-63.701-129.286-142-129.286z" fill="#555a66"/><path d="m404.053 145.453h-298.643c-8.284 0-15 6.716-15 15s6.716 15 15 15h298.644c8.284 0 15-6.716 15-15s-6.717-15-15.001-15z" fill="#414952"/><path d="m389.053 209.858h-134.323v158.809c58.278 0 100.04-15.461 124.813-28.432 24.37-12.761 39.51-36.626 39.51-62.284v-117.498h-30zm-74.863 122.383c-13.096 2.976-27.917 5.187-44.459 6.039v-34.018h44.459zm0-57.979h-44.459v-34.404h44.459zm51.437 39.396c-5.996 3.14-13.146 6.444-21.438 9.587v-18.983h33.895c-3.466 3.674-7.65 6.879-12.457 9.396zm23.426-39.396h-44.863v-34.404h44.863z" fill="#cdd2e1"/><path d="m254.731 0v175.453h127c8.284 0 15-6.716 15-15v-31.167c0-71.289-63.701-129.286-142-129.286z" fill="#414952"/><path d="m404.053 145.453h-149.323v30h149.323c8.284 0 15-6.716 15-15s-6.716-15-15-15z" fill="#23272b"/></svg>