<?xml version="1.0" encoding="utf-8"?>
<!-- Generator: Adobe Illustrator 21.0.0, SVG Export Plug-In . SVG Version: 6.00 Build 0)  -->
<svg version="1.1" id="Layer_1" xmlns="http://www.w3.org/2000/svg" xmlns:xlink="http://www.w3.org/1999/xlink" x="0px" y="0px"
	 viewBox="0 0 512 512" style="enable-background:new 0 0 512 512;" xml:space="preserve">
<style type="text/css">
	.st0{fill:#93CFD8;}
	.st1{fill:#365660;}
	.st2{fill:#5A7191;}
	.st3{fill:#ADDDEA;}
	.st4{fill:#D7E6F0;}
	.st5{fill:#323232;}
	.st6{fill:#464646;}
	.st7{opacity:0.11;}
	.st8{font-family:'Montserrat-Bold';}
	.st9{font-size:51px;}
</style>
<path class="st0" d="M458.9,252.8l-11.6-18.6c-0.9-1.4-2.4-2.3-4.1-2.3s-3.2,0.9-4.1,2.3l-11.6,18.6c-0.2,0.3-0.3,0.7-0.3,1.1
	c0,1.1,0.9,2.1,2.1,2.1h5.9v56c0,17.6-14.4,32-32,32h-64v16h64c26.5,0,48-21.5,48-48v-56h5.9c1.1,0,2.1-0.9,2.1-2.1
	C459.2,253.5,459.1,253.2,458.9,252.8L458.9,252.8z"/>
<g>
	<path class="st1" d="M403.2,448c0-8.2-3.1-16.4-9.4-22.6l-54.6-54.6V320h-112c-8.8,0-16-7.2-16-16v18.7l-38.6,38.6
		c-6,6-9.4,14.1-9.4,22.6v64c-17.7,0-32,14.3-32,32c0,8.8,7.2,16,16,16h240c8.8,0,16-7.2,16-16L403.2,448z"/>
</g>
<g>
	<path class="st0" d="M339.2,192v128h4.2c2.1,0,3.8-1.6,4.1-3.6c1.8-11.5,11.7-20.4,23.7-20.4s22,8.8,23.7,20.4
		c0.3,2.1,2,3.6,4.1,3.6c2.3,0,4.2-1.9,4.2-4.2V192L339.2,192z"/>
</g>
<g>
	<path class="st0" d="M323.2,128h-48v32h40c8.8,0,16-7.2,16-16v-8C331.2,131.6,327.6,128,323.2,128z"/>
</g>
<g>
	<path class="st0" d="M179.2,32h24c8.8,0,16,7.2,16,16v20c0,6.6-5.4,12-12,12s-12-5.4-12-12V48C186.3,48,179.2,40.8,179.2,32z"/>
</g>
<g>
	<path class="st2" d="M155.2,304h56v-64h-56c-4.4,0-8,3.6-8,8v48C147.2,300.4,150.8,304,155.2,304z"/>
</g>
<g>
	<path class="st3" d="M131.2,248h16v32h-16V248z"/>
</g>
<g>
	<path class="st0" d="M107.2,232h8c8.8,0,16,7.2,16,16v32h-24V232z"/>
</g>
<path class="st0" d="M162.9,108.8l-11.6-18.6c-0.9-1.4-2.4-2.3-4.1-2.3s-3.2,0.9-4.1,2.3l-11.6,18.6c-0.2,0.3-0.3,0.7-0.3,1.1
	c0,1.1,0.9,2.1,2.1,2.1h5.9v32c0,13.2-10.8,24-24,24v-56h5.9c1.1,0,2.1-0.9,2.1-2.1c0-0.4-0.1-0.8-0.3-1.1l-11.6-18.6
	c-0.9-1.4-2.4-2.3-4.1-2.3s-3.2,0.9-4.1,2.3l-11.6,18.6c-0.2,0.3-0.3,0.7-0.3,1.1c0,1.1,0.9,2.1,2.1,2.1h5.9v56
	c-13.2,0-24-10.8-24-24v-32h5.9c1.1,0,2.1-0.9,2.1-2.1c0-0.4-0.1-0.8-0.3-1.1L71.3,90.3c-0.9-1.4-2.4-2.3-4.1-2.3s-3.2,0.9-4.1,2.3
	l-11.6,18.6c-0.2,0.3-0.3,0.7-0.3,1.1c0,1.1,0.9,2.1,2.1,2.1h5.9v32c0,22.1,17.9,40,40,40v312h16V184c22.1,0,40-17.9,40-40v-32h5.9
	c1.1,0,2.1-0.9,2.1-2.1C163.2,109.5,163.1,109.2,162.9,108.8L162.9,108.8z"/>
<g>
	<path class="st3" d="M96.5,232c13.3,0,24,10.7,24,24s-10.7,24-24,24c-4.4,0-8-3.6-8-8v-32C88.5,235.6,92.1,232,96.5,232z"/>
</g>
<g>
	<path class="st2" d="M403.2,448c0-8.2-3.1-16.4-9.4-22.6l-54.6-54.6V304c0-17.7-14.3-32-32-32s-32,14.3-32,32v80
		c0,8.5,3.4,16.6,9.4,22.6l41.4,41.4h-2.7c-17.7,0-32,14.3-32,32c0,8.8,7.2,16,16,16h80c8.8,0,16-7.2,16-16V448z"/>
</g>
<g>
	<path class="st1" d="M323.2,320h-96c-8.8,0-16-7.2-16-16V192c0-17.7,14.3-32,32-32h96v144C339.2,312.8,332,320,323.2,320z"/>
</g>
<g>
	<path class="st4" d="M259.2,208c8.8,0,16-7.2,16-16c0-17.7,14.3-32,32-32h-32c-17.7,0-32,14.3-32,32
		C243.2,200.8,250.3,208,259.2,208z"/>
</g>
<g>
	<path class="st0" d="M339.2,32v16h-12c-2.2,0-4,1.8-4,4c0,6.6,5.4,12,12,12h4c0,8.8,7.2,16,16,16v32h32V32H339.2z"/>
</g>
<g>
	<path class="st3" d="M371.2,16h-32c-4.4,0-8,3.6-8,8s3.6,8,8,8h32v32c0,8.8,7.2,16,16,16V32C387.2,23.2,380,16,371.2,16z"/>
</g>
<g>
	<path class="st3" d="M355.2,96h32v16h-32V96z"/>
</g>
<g>
	<path class="st2" d="M395.2,112h-48c-4.4,0-8,3.6-8,8v40c-17.7,0-32,14.3-32,32s14.3,32,32,32h32c17.7,0,32-14.3,32-32v-72
		C403.2,115.6,399.6,112,395.2,112z"/>
</g>
<g>
	<path class="st0" d="M203.2,176h56c8.8,0,16-7.2,16-16V88c0-13.3-10.7-24-24-24h-40c-13.3,0-24,10.7-24,24v72
		C187.2,168.8,194.3,176,203.2,176L203.2,176z"/>
</g>
<g>
	<path class="st3" d="M235.2,176h-32c-8.8,0-16-7.2-16-16V88c0-13.3,10.7-24,24-24h16c13.3,0,24,10.7,24,24v72
		C251.2,168.8,244,176,235.2,176z"/>
</g>
<g>
	<path class="st5" d="M187.2,88L187.2,88c0-4.4,3.6-8,7.9-8c8.9,0,16.1,7.2,16.1,16c0-8.9,7.2-16,16.1-16l7.8,0
		c4.5,0,8.1,3.6,8.1,8.1l0,15.8c0,4.5-3.6,8.1-8.1,8.1l0.1,8c0,4.4,3.6,8,8,8v16c0,8.8,7.2,16,16,16h16c8.8,0,16-7.2,16-16V96
		c0-26.5-21.5-48-48-48h-24c-17.7,0-32,14.3-32,32L187.2,88z"/>
</g>
<g>
	<path class="st0" d="M251.2,144h-8v-16c0-8.8,7.2-16,16-16h8v16C267.2,136.8,260,144,251.2,144L251.2,144z"/>
</g>
<g>
	<path class="st3" d="M219.2,32h24c8.8,0,16,7.2,16,16v20c0,6.6-5.4,12-12,12s-12-5.4-12-12V48C226.3,48,219.2,40.8,219.2,32
		L219.2,32z"/>
</g>
<g>
	<circle class="st6" cx="259.2" cy="248" r="8"/>
</g>
<g>
	<circle class="st6" cx="259.2" cy="288" r="8"/>
</g>
<g>
	<path class="st5" d="M209.8,160c-3.7,0-6.7,3-6.7,6.7v9.3h13.3v-9.3C216.5,163,213.5,160,209.8,160z"/>
</g>
<text transform="matrix(1 0 0 1 211.179 491.333)" class="st7 st8 st9">LUCI</text>
</svg>
