<?xml version="1.0" encoding="utf-8"?>
<!-- Generator: Adobe Illustrator 21.0.0, SVG Export Plug-In . SVG Version: 6.00 Build 0)  -->
<svg version="1.1" id="Layer_1" xmlns="http://www.w3.org/2000/svg" xmlns:xlink="http://www.w3.org/1999/xlink" x="0px" y="0px"
	 viewBox="0 0 512 512" style="enable-background:new 0 0 512 512;" xml:space="preserve">
<style type="text/css">
	.st0{display:none;fill:#F5E6FE;}
	.st1{fill:#BE63F9;}
</style>
<path class="st0" d="M416,512H96c-53,0-96-43-96-96V96C0,43,43,0,96,0h320c53,0,96,43,96,96v320C512,469,469,512,416,512z"/>
<path class="st1" d="M418.1,170.2c22.5-39.3,15.1-89.7-19.3-120.8c-3.9-3.5-9.4-4.3-14.1-2.3c-4.8,2.1-7.8,6.8-7.8,12
	c0,19.2-7.9,36.8-21.4,49.9c-29.1-17.7-63.1-28-99.6-28c-36.6,0-70.8,10.5-100,28.3c-13.5-13.2-21.5-30.9-21.5-50.2
	c0-5.2-3-9.9-7.8-12c-4.7-2.1-10.2-1.3-14.1,2.2c-34.7,31.2-42,81.8-19.1,121.3c-18.9,29.8-30.1,65-30.1,102.8
	C63.5,379.6,149.9,466,256,466s192.5-86.4,192.5-192.5C448.5,235.5,437.3,200.1,418.1,170.2L418.1,170.2z M217.2,251.1
	c5.1,5.1,5.1,13.4,0,18.6c-2.6,2.6-5.9,3.8-9.3,3.8c-3.4,0-6.7-1.3-9.3-3.8L186,257.1l-12.6,12.6c-2.6,2.6-5.9,3.8-9.3,3.8
	c-3.4,0-6.7-1.3-9.3-3.8c-5.1-5.1-5.1-13.4,0-18.6l12.6-12.6l-12.6-12.6c-5.1-5.1-5.1-13.4,0-18.6c5.1-5.1,13.4-5.1,18.6,0
	l12.6,12.6l12.6-12.6c5.1-5.1,13.4-5.1,18.6,0c5.1,5.1,5.1,13.4,0,18.6l-12.6,12.6L217.2,251.1z M357.2,246.7
	c5.1,5.1,5.1,13.4,0,18.6c-2.6,2.6-5.9,3.9-9.3,3.9s-6.7-1.3-9.3-3.8L326,252.7l-12.6,12.6c-2.6,2.6-5.9,3.8-9.3,3.8
	s-6.7-1.3-9.3-3.8c-5.1-5.1-5.1-13.4,0-18.6l12.6-12.6l-12.6-12.6c-5.1-5.1-5.1-13.4,0-18.6c5.1-5.1,13.4-5.1,18.6,0l12.6,12.6
	l12.6-12.6c5.1-5.1,13.4-5.1,18.6,0c5.1,5.1,5.1,13.4,0,18.6l-12.6,12.6L357.2,246.7z"/>
</svg>
