<?xml version="1.0" encoding="utf-8"?>
<!-- Generator: Adobe Illustrator 21.0.0, SVG Export Plug-In . SVG Version: 6.00 Build 0)  -->
<svg version="1.1" xmlns="http://www.w3.org/2000/svg" xmlns:xlink="http://www.w3.org/1999/xlink" x="0px" y="0px"
	 viewBox="0 0 600 300" style="enable-background:new 0 0 600 300;" xml:space="preserve">
<style type="text/css">
	.st0{display:none;}
	.st1{fill:#FFFF29;}
	.st2{fill:#F8F117;}
	.st3{fill:#FCC200;}
	.st4{fill:#E22526;}
	.st5{fill:#F98800;}
	.st6{fill:#63C4F8;}
	.st7{fill:#AEDEF8;}
	.st8{fill:#00587E;}
	.st9{fill:#F05A29;}
</style>
<g id="Layer_1" class="st0">
	
		<image style="display:inline;overflow:visible;" width="1366" height="768" xlink:href="../../../../Pictures/Screenshots/Screenshot (7).png"  transform="matrix(0.7839 0 0 0.7839 -276.875 -155.0366)">
	</image>
</g>
<g id="Layer_2">
	<g>
		<image style="overflow:visible;" width="300" height="71" xlink:href="5326044C.png"  transform="matrix(1 0 0 1 148 187)">
		</image>
		<g>
			<g>
				<path class="st1" d="M212.2,194.2l-6.5,56.1h-18.2c-1.7-8.6-3.1-18.4-4.4-29.4c-0.6,4.7-1.9,14.5-4.1,29.4h-18.1l-6.5-56.1h14.2
					l1.5,19.6l1.5,18.9c0.5-9.8,1.9-22.6,4-38.5h15.2c0.2,1.6,0.7,7.8,1.6,18.5l1.6,21.4c0.8-13.6,2.2-26.9,4.1-39.9H212.2z"/>
				<path class="st1" d="M243.9,194.2v56.1h-14.6v-56.1H243.9z"/>
				<path class="st1" d="M298,218.6h-14.6v-9.8c0-2.8-0.2-4.6-0.5-5.3c-0.3-0.7-1-1.1-2.1-1.1c-1.2,0-2,0.4-2.3,1.3
					c-0.3,0.9-0.5,2.7-0.5,5.5v26.1c0,2.7,0.2,4.5,0.5,5.3c0.3,0.8,1.1,1.2,2.2,1.2c1.1,0,1.8-0.4,2.1-1.3s0.5-2.8,0.5-5.9v-7.1H298
					v2.2c0,5.8-0.4,9.9-1.2,12.4s-2.6,4.6-5.4,6.4c-2.8,1.8-6.3,2.7-10.4,2.7c-4.3,0-7.8-0.8-10.6-2.3c-2.8-1.5-4.6-3.7-5.5-6.4
					c-0.9-2.7-1.4-6.9-1.4-12.4V214c0-4,0.1-7.1,0.4-9.1c0.3-2,1.1-4,2.5-5.8c1.4-1.9,3.3-3.3,5.7-4.4c2.4-1.1,5.2-1.6,8.4-1.6
					c4.3,0,7.8,0.8,10.6,2.5c2.8,1.7,4.6,3.7,5.5,6.2c0.9,2.5,1.3,6.3,1.3,11.6V218.6z"/>
				<path class="st1" d="M352.2,194.2l-8.4,25.3l9.2,30.8h-15.1l-5.9-24.1v24.1h-14.6v-56.1H332V216l6.5-21.8H352.2z"/>
				<path class="st1" d="M369.7,194.2h24.3v11.2h-9.7v10.6h9.1v10.7h-9.1v12.3H395v11.2h-25.3V194.2z"/>
				<path class="st1" d="M441.9,194.2v11.2h-8.7v44.9h-14.6v-44.9H410v-11.2H441.9z"/>
			</g>
		</g>
	</g>
	<g>
		
			<image style="overflow:visible;opacity:0.45;" width="209" height="211" xlink:href="5326044B.png"  transform="matrix(1 0 0 1 183 50)">
		</image>
		<g>
			<g>
				<path class="st2" d="M345.8,115.3l-0.9,0.4c-0.2,0.1-0.3,0.1-0.5,0.2l-0.4,0.2c-0.2,0.1-0.4,0.2-0.6,0.2
					c-0.2,0.1-0.4,0.2-0.6,0.2c-1,0.4-2,0.7-3.1,1.1c-0.6,0.2-1.2,0.4-1.9,0.6c-1.7,0.5-3.4,0.9-5.1,1.2l-0.3,0.1
					c-2.2,0.4-4.1,2-4.8,4.2c-0.2,0.6-0.3,1.3-0.3,2c0,0.2,0,0.4,0,0.6c0,0.2,0,0.4,0.1,0.6c0.1,0.4,0.2,0.8,0.3,1.2
					c0.1,0.2,0.2,0.4,0.3,0.6c0.3,0.5,0.7,1,1.1,1.5l5.7,5.7c5.3,5.3,8.3,12.5,8.3,19.9v0.5c0,8.8-4.2,17.1-11.3,22.2l-0.4,0.3
					c-9.4,6.9-20.8,10.6-32.5,10.6c-7.1,0-15.2,0-22.6,0c-13.8,0-27.2-4.5-38.3-12.7l-0.6-0.5c-7.2-5.4-12.5-12.6-15.5-20.9
					l-0.3-0.7c-3-8.2-2.7-17.2,0.9-25.2l0.1-0.3c1.7-3.8,4.9-6.7,8.6-8c1.5-0.5,3.1-0.8,4.8-0.8h0l2.1-2.1c3.2-3.2,7.6-5,12.2-5
					l0,9.9c0,5.5,5.6,9.3,10.7,7.3l0.5-0.2c8.3-3.3,17.2-5,26-5h0.4c2.9,0,5.2-2.3,5.2-5.2v-0.1c0-1.2-0.4-2.3-1.1-3.3
					c-2.1-2.7-6.9-8.9-10.6-13.6c-3.2-4.1-4.9-9.1-5-14.3l0-0.7c0-8,3.9-15.4,10.6-19.8l0.3-0.2c6.9-4.6,15-7.1,23.3-7.1
					c1.6,0,3.3,0,4.8,0c5.5,0,10.8,1.6,15.3,4.8l0.3,0.2c6,4.2,9.6,11,9.6,18.3v0.2c0,1.9-0.2,3.7-0.7,5.5c-0.2,0.9-0.5,2-0.7,3
					c-0.6,2.3,0.1,4.8,1.8,6.5c0,0,0.1,0.1,0.1,0.1l-10,6.7l11.9,9.5H345.8z"/>
				<path class="st2" d="M355.1,106.9c0,1-0.3,2-0.8,2.9c-0.5,0.9-1.2,1.6-2.1,2.1c-2.1,1.2-4.2,2.4-6.4,3.3l-0.9,0.4
					c-0.2,0.1-0.3,0.1-0.5,0.2l-0.4,0.2c-0.2,0.1-0.4,0.2-0.6,0.2c-0.2,0.1-0.4,0.2-0.6,0.2c-1,0.4-2,0.7-3.1,1.1
					c-0.6,0.2-1.2,0.4-1.9,0.6c-1.7,0.5-3.4,0.9-5.1,1.2l-0.3,0.1c-2.2,0.4-4.1,2-4.8,4.2c-0.2,0.6-0.3,1.3-0.3,2c0,0.2,0,0.4,0,0.6
					c0,0.2,0,0.4,0.1,0.6c0.1,0.4,0.2,0.8,0.3,1.2c0.1,0.2,0.2,0.4,0.3,0.6c0.3,0.5,0.7,1,1.1,1.5l5.7,5.7
					c5.3,5.3,8.3,12.5,8.3,19.9v0.5c0,8.8-4.2,17.1-11.3,22.2l-0.4,0.3c-9.4,6.9-20.8,10.6-32.5,10.6c-7.1,0-15.2,0-22.6,0
					c-13.8,0-27.2-4.5-38.3-12.7l-0.6-0.5c-7.2-5.4-12.5-12.6-15.5-20.9l-0.3-0.7c-3-8.2-2.7-17.2,0.9-25.2l0.1-0.3
					c1.7-3.8,4.9-6.7,8.6-8c1.5-0.5,3.1-0.8,4.8-0.8h0l2.1-2.1c3.2-3.2,7.6-5,12.2-5l0,9.9c0,5.5,5.6,9.3,10.7,7.3l0.5-0.2
					c8.3-3.3,17.2-5,26-5h0.4c2.9,0,5.2-2.3,5.2-5.2v-0.1c0-1.2-0.4-2.3-1.1-3.3c-2.1-2.7-6.9-8.9-10.6-13.6
					c-3.2-4.1-4.9-9.1-5-14.3l0-0.7c0-8,3.9-15.4,10.6-19.8l0.3-0.2c6.9-4.6,15-7.1,23.3-7.1c1.6,0,3.3,0,4.8,0
					c5.5,0,10.8,1.6,15.3,4.8l0.3,0.2c6,4.2,9.6,11,9.6,18.3v0.2c0,1.9-0.2,3.7-0.7,5.5c-0.2,0.9-0.5,2-0.7,3
					c-0.6,2.3,0.1,4.8,1.8,6.5c0,0,0.1,0.1,0.1,0.1c0.6,0.6,1.3,1.1,2.1,1.4c0.8,0.3,1.7,0.5,2.6,0.5h3.2
					C352.5,101,355.1,103.6,355.1,106.9z"/>
				<path class="st3" d="M325.7,182.2c-8.1,4.5-17.3,6.9-26.7,6.9c-7.1,0-15.2,0-22.6,0c-13.8,0-27.2-4.5-38.3-12.7l-0.6-0.5
					c-7.2-5.4-12.5-12.6-15.5-20.9l-0.3-0.7c-2.3-6.4-2.6-13.2-1-19.7c1.6,5.3,5,10,9.5,13.2c-3,0.2-6.2-1.1-8.6-2.9
					c3,11,11.9,19.8,22.9,23.2c-2.8,0.9-5.1,1.2-8,1.2c13.8,10.2,29.7,16.5,46.8,18.3C297.6,188.9,312.2,187.1,325.7,182.2z"/>
				<path class="st3" d="M326.5,124.8L326.5,124.8c-7.7-3.1-16.6-13.4-20.9-20.5l-0.5-0.9l9.5-4.8v0c4.5,7.5,14.5,17.5,23.2,18.9
					l0.6,0.1L326.5,124.8z"/>
				<path class="st4" d="M328.9,86.7h4.8v4.8h-4.8V86.7z"/>
				<path class="st2" d="M355.1,106.9c0,1-0.3,2-0.8,2.9c-0.5,0.9-1.2,1.6-2.1,2.1c-2.1,1.2-4.2,2.4-6.4,3.3h-2.6l-11.9-9.5l10-6.7
					c0.6,0.6,1.3,1.1,2.1,1.4c0.8,0.3,1.7,0.5,2.6,0.5h3.2C352.5,101,355.1,103.6,355.1,106.9z"/>
				<path class="st3" d="M288.5,124.8c9.5,0,14.3,7.1,14.3,11.9c0,7.1-4.8,16.7-16.7,21.4c-11.9,4.8-26.2,2.4-38.1-2.4
					c-11.9-4.8-14.3-19-14.3-19h0c7.9,0,15.6-1.6,22.8-4.7l0.2-0.1C266.7,127.2,277.5,124.8,288.5,124.8L288.5,124.8z"/>
				<path class="st5" d="M299.7,147c-2.6,4.4-7,8.5-13.6,11.1c-11.9,4.8-26.2,2.4-38.1-2.4c-10.6-4.2-13.6-16-14.2-18.5
					c4.3,4.9,10.7,8.5,16.8,9.6c-2.9,1.3-6,2.2-9.1,1.4c9.5,5.5,20.7,8.1,31.7,7.4C282.6,155,291.8,152,299.7,147z"/>
				<path class="st3" d="M237.8,128.8c-0.5,0.5-1.1,0.7-1.7,0.7s-1.2-0.2-1.7-0.7c-2-2-3.1-4.6-3.1-7.4v-0.6
					c1.5-0.5,3.1-0.8,4.8-0.8h0v1.4c0,1.5,0.6,3,1.7,4.1C238.7,126.4,238.7,127.9,237.8,128.8z"/>
				<path class="st6" d="M343.2,70l-11.7,5.2c-5.9,2.6-9.8,8.5-9.8,15v0c0,6.5-3.9,12.4-9.8,15l-28.2,12.4l-5.9-6.8
					c-6.9-7.8-10.3-18.1-9.5-28.5v0c0.7-9.3,5.7-17.6,13.6-22.6v0c9-5.7,19.4-8.7,30-8.7l0,0c5,0,9.9,0.9,14.6,2.6l0,0
					C334.1,56.5,340.2,62.5,343.2,70L343.2,70z"/>
				<path class="st7" d="M335.1,73.7l-3.5,1.6c-5.9,2.6-9.8,8.5-9.8,15c0,3.3-1,6.4-2.7,9c-1.7,2.6-4.2,4.8-7.2,6.1l-24.8,10.9
					c-2.9-4.5-5.6-9.1-7.4-14.2c-2.3-6.8-2.7-14.7,0.6-21.1c2.2-4.2,5.8-7.6,9.8-10.1c7.2-4.5,15.9-6.6,24.4-5.7
					C322,65.8,329.2,68.9,335.1,73.7z"/>
				<path class="st8" d="M314.6,72.4l7.1,7.1l-40.5,35.7l-7.1-7.1L314.6,72.4z"/>
				<path class="st9" d="M340.8,72.4L340.8,72.4c-1.4-2.8-0.9-6.3,1.4-8.5l1-1L331.3,51l-16.7,16.7v4.8l9.5,9.5L340.8,72.4z"/>
				<path class="st8" d="M328.9,77.2l11.9,6.8l14.3-14h0c-7.8,0-15.5,1.8-22.5,5.3L328.9,77.2z"/>
				<path class="st9" d="M355,106c0.2,1.3-0.1,2.6-0.7,3.7c-0.5,0.9-1.2,1.6-2.1,2.1c-0.8,0.5-1.3,0.9-1.7,1.3c-1.3,1.3-3,2-4.8,2h0
					l0,0c-1.7,0-3.3-0.6-4.6-1.6l-5.8-4.7c-2-1.6-1.9-4.7,0.3-6.1l5.7-3.8c0,0,0,0,0,0c0.6,0.6,1.3,1.1,2.1,1.4
					c0.8,0.3,1.7,0.5,2.6,0.5h3C352,101,354.6,103.1,355,106z"/>
			</g>
		</g>
	</g>
	<g>
	</g>
	<g>
	</g>
	<g>
	</g>
	<g>
	</g>
	<g>
	</g>
	<g>
	</g>
	<g>
	</g>
	<g>
	</g>
	<g>
	</g>
	<g>
	</g>
	<g>
	</g>
	<g>
	</g>
	<g>
	</g>
	<g>
	</g>
	<g>
	</g>
</g>
</svg>
