<?xml version="1.0" encoding="utf-8"?>
<!-- Generator: Adobe Illustrator 21.0.0, SVG Export Plug-In . SVG Version: 6.00 Build 0)  -->
<svg version="1.1" id="Layer_1" xmlns="http://www.w3.org/2000/svg" xmlns:xlink="http://www.w3.org/1999/xlink" x="0px" y="0px"
	 viewBox="0 0 512 512" style="enable-background:new 0 0 512 512;" xml:space="preserve">
<style type="text/css">
	.st0{fill:#4267B2;}
	.st1{fill:#FFFFFF;}
</style>
<path class="st0" d="M483.7,0H28.2C12.6,0,0,12.7,0,28.3v455.5C0,499.4,12.7,512,28.3,512h455.5c15.6,0,28.3-12.6,28.3-28.3
	c0,0,0,0,0,0V28.2C512,12.6,499.3,0,483.7,0z"/>
<path class="st1" d="M353.5,512V314h66.8l10-77.5h-76.8v-49.4c0-22.4,6.2-37.6,38.3-37.6h40.7V80.4c-7.1-0.9-31.4-3-59.6-3
	c-59,0-99.4,36-99.4,102.1v57H207V314h66.5v198H353.5z"/>
</svg>
