<?xml version="1.0" encoding="utf-8"?>
<!-- Generator: Adobe Illustrator 21.0.0, SVG Export Plug-In . SVG Version: 6.00 Build 0)  -->
<svg version="1.1" id="Layer_1" xmlns="http://www.w3.org/2000/svg" xmlns:xlink="http://www.w3.org/1999/xlink" x="0px" y="0px"
	 viewBox="0 0 1175 80" style="enable-background:new 0 0 1175 80;" xml:space="preserve">
<style type="text/css">
	.st0{fill:#AF9DFF;}
	.st1{fill:#AFA4FF;}
	.st2{fill:#A0A0E0;}
	.st3{fill:#8F83E5;}
	.st4{fill:#3A3E48;}
	.st5{fill:#586270;}
	.st6{fill:#4646C1;}
	.st7{fill:#79B0CC;}
	.st8{fill:#5FB2D6;}
	.st9{fill:#5496CE;}
	.st10{fill:#A5B4B4;}
	.st11{fill:#ED634C;}
	.st12{fill:#E53935;}
	.st13{fill:#D32F2F;}
	.st14{fill:#F44336;}
	.st15{fill:#C62828;}
	.st16{fill:#F1F1F1;}
	.st17{opacity:0.15;enable-background:new    ;}
	.st18{opacity:0.1;}
	.st19{fill:none;stroke:#FFFFFF;stroke-width:21;stroke-miterlimit:10;}
	.st20{fill:none;stroke:#FFFFFF;stroke-width:8;stroke-miterlimit:10;}
	.st21{fill:#F1F0FF;}
	.st22{fill:#4D4DA0;}
</style>
<g>
	<path class="st0" d="M1167,40c0,11-4.5,21-11.7,28.3C1148,75.5,1138,80,1127,80H40C17.9,80,0,62.1,0,40c0-11,4.5-21,11.7-28.3
		C19,4.5,29,0,40,0h1087C1149.1,0,1167,17.9,1167,40z"/>
</g>
<g>
	<rect x="88" y="2" transform="matrix(0.7071 -0.7071 0.7071 0.7071 21.8754 68.8106)" class="st1" width="12" height="12"/>
	<rect x="105" y="2" transform="matrix(0.7071 -0.7071 0.7071 0.7071 26.8547 80.8313)" class="st1" width="12" height="12"/>
	<rect x="122" y="2" transform="matrix(0.7071 -0.7071 0.7071 0.7071 31.8339 92.852)" class="st1" width="12" height="12"/>
	<rect x="139" y="2" transform="matrix(0.7071 -0.7071 0.7071 0.7071 36.8131 104.8727)" class="st1" width="12" height="12"/>
	<rect x="156" y="2" transform="matrix(0.7071 -0.7071 0.7071 0.7071 41.7924 116.8934)" class="st1" width="12" height="12"/>
	<rect x="173" y="2" transform="matrix(0.7071 -0.7071 0.7071 0.7071 46.7716 128.914)" class="st1" width="12" height="12"/>
	<rect x="190" y="2" transform="matrix(0.7071 -0.7071 0.7071 0.7071 51.7508 140.9347)" class="st1" width="12" height="12"/>
	<rect x="207" y="2" transform="matrix(0.7071 -0.7071 0.7071 0.7071 56.7301 152.9555)" class="st1" width="12" height="12"/>
	<rect x="224" y="2" transform="matrix(0.7071 -0.7071 0.7071 0.7071 61.7093 164.9762)" class="st1" width="12" height="12"/>
	<rect x="241" y="2" transform="matrix(0.7071 -0.7071 0.7071 0.7071 66.6885 176.9969)" class="st1" width="12" height="12"/>
	<rect x="88" y="15" transform="matrix(0.7071 -0.7071 0.7071 0.7071 12.6831 72.6182)" class="st1" width="12" height="12"/>
	<rect x="105" y="15" transform="matrix(0.7071 -0.7071 0.7071 0.7071 17.6624 84.6389)" class="st1" width="12" height="12"/>
	<rect x="122" y="15" transform="matrix(0.7071 -0.7071 0.7071 0.7071 22.6416 96.6596)" class="st1" width="12" height="12"/>
	<rect x="139" y="15" transform="matrix(0.7071 -0.7071 0.7071 0.7071 27.6208 108.6804)" class="st1" width="12" height="12"/>
	<rect x="156" y="15" transform="matrix(0.7071 -0.7071 0.7071 0.7071 32.6 120.701)" class="st1" width="12" height="12"/>
	<rect x="173" y="15" transform="matrix(0.7071 -0.7071 0.7071 0.7071 37.5793 132.7217)" class="st1" width="12" height="12"/>
	<rect x="190" y="15" transform="matrix(0.7071 -0.7071 0.7071 0.7071 42.5585 144.7424)" class="st1" width="12" height="12"/>
	<rect x="207" y="15" transform="matrix(0.7071 -0.7071 0.7071 0.7071 47.5378 156.7631)" class="st1" width="12" height="12"/>
	<rect x="224" y="15" transform="matrix(0.7071 -0.7071 0.7071 0.7071 52.517 168.7838)" class="st1" width="12" height="12"/>
	<rect x="241" y="15" transform="matrix(0.7071 -0.7071 0.7071 0.7071 57.4962 180.8045)" class="st1" width="12" height="12"/>
	<rect x="88" y="28" transform="matrix(0.7071 -0.7071 0.7071 0.7071 3.4909 76.4259)" class="st1" width="12" height="12"/>
	<rect x="105" y="28" transform="matrix(0.7071 -0.7071 0.7071 0.7071 8.4701 88.4466)" class="st1" width="12" height="12"/>
	<rect x="122" y="28" transform="matrix(0.7071 -0.7071 0.7071 0.7071 13.4493 100.4673)" class="st1" width="12" height="12"/>
	<rect x="139" y="28" transform="matrix(0.7071 -0.7071 0.7071 0.7071 18.4285 112.4879)" class="st1" width="12" height="12"/>
	<rect x="156" y="28" transform="matrix(0.7071 -0.7071 0.7071 0.7071 23.4077 124.5087)" class="st1" width="12" height="12"/>
	<rect x="173" y="28" transform="matrix(0.7071 -0.7071 0.7071 0.7071 28.387 136.5294)" class="st1" width="12" height="12"/>
	<rect x="190" y="28" transform="matrix(0.7071 -0.7071 0.7071 0.7071 33.3662 148.55)" class="st1" width="12" height="12"/>
	<rect x="207" y="28" transform="matrix(0.7071 -0.7071 0.7071 0.7071 38.3455 160.5708)" class="st1" width="12" height="12"/>
	<rect x="224" y="28" transform="matrix(0.7071 -0.7071 0.7071 0.7071 43.3247 172.5915)" class="st1" width="12" height="12"/>
	<rect x="241" y="28" transform="matrix(0.7071 -0.7071 0.7071 0.7071 48.3039 184.6122)" class="st1" width="12" height="12"/>
	<rect x="70" y="41" transform="matrix(0.7071 -0.7071 0.7071 0.7071 -10.9736 67.5057)" class="st1" width="12" height="12"/>
	<rect x="87" y="41" transform="matrix(0.7071 -0.7071 0.7071 0.7071 -5.9944 79.5264)" class="st1" width="12" height="12"/>
	<rect x="104" y="41" transform="matrix(0.7071 -0.7071 0.7071 0.7071 -1.0151 91.5471)" class="st1" width="12" height="12"/>
	<rect x="121" y="41" transform="matrix(0.7071 -0.7071 0.7071 0.7071 3.9641 103.5678)" class="st1" width="12" height="12"/>
	<rect x="138" y="41" transform="matrix(0.7071 -0.7071 0.7071 0.7071 8.9433 115.5885)" class="st1" width="12" height="12"/>
	<rect x="155" y="41" transform="matrix(0.7071 -0.7071 0.7071 0.7071 13.9225 127.6092)" class="st1" width="12" height="12"/>
	<rect x="172" y="41" transform="matrix(0.7071 -0.7071 0.7071 0.7071 18.9018 139.6299)" class="st1" width="12" height="12"/>
	<rect x="189" y="41" transform="matrix(0.7071 -0.7071 0.7071 0.7071 23.881 151.6506)" class="st1" width="12" height="12"/>
	<rect x="206" y="41" transform="matrix(0.7071 -0.7071 0.7071 0.7071 28.8603 163.6713)" class="st1" width="12" height="12"/>
	<rect x="223" y="41" transform="matrix(0.7071 -0.7071 0.7071 0.7071 33.8395 175.692)" class="st1" width="12" height="12"/>
	<rect x="240" y="41" transform="matrix(0.7071 -0.7071 0.7071 0.7071 38.8187 187.7127)" class="st1" width="12" height="12"/>
	<rect x="70" y="54" transform="matrix(0.7071 -0.7071 0.7071 0.7071 -20.1659 71.3134)" class="st1" width="12" height="12"/>
	<rect x="87" y="54" transform="matrix(0.7071 -0.7071 0.7071 0.7071 -15.1867 83.3341)" class="st1" width="12" height="12"/>
	<rect x="104" y="54" transform="matrix(0.7071 -0.7071 0.7071 0.7071 -10.2074 95.3548)" class="st1" width="12" height="12"/>
	<rect x="121" y="54" transform="matrix(0.7071 -0.7071 0.7071 0.7071 -5.2282 107.3754)" class="st1" width="12" height="12"/>
	<rect x="138" y="54" transform="matrix(0.7071 -0.7071 0.7071 0.7071 -0.249 119.3961)" class="st1" width="12" height="12"/>
	<rect x="155" y="54" transform="matrix(0.7071 -0.7071 0.7071 0.7071 4.7303 131.4168)" class="st1" width="12" height="12"/>
	<rect x="172" y="54" transform="matrix(0.7071 -0.7071 0.7071 0.7071 9.7095 143.4376)" class="st1" width="12" height="12"/>
	<rect x="189" y="54" transform="matrix(0.7071 -0.7071 0.7071 0.7071 14.6887 155.4583)" class="st1" width="12" height="12"/>
	<rect x="206" y="54" transform="matrix(0.7071 -0.7071 0.7071 0.7071 19.6679 167.479)" class="st1" width="12" height="12"/>
	<rect x="223" y="54" transform="matrix(0.7071 -0.7071 0.7071 0.7071 24.6472 179.4997)" class="st1" width="12" height="12"/>
	<rect x="240" y="54" transform="matrix(0.7071 -0.7071 0.7071 0.7071 29.6264 191.5203)" class="st1" width="12" height="12"/>
	<rect x="54" y="67" transform="matrix(0.7071 -0.7071 0.7071 0.7071 -34.0445 63.8074)" class="st1" width="12" height="12"/>
	<rect x="71" y="67" transform="matrix(0.7071 -0.7071 0.7071 0.7071 -29.0653 75.8281)" class="st1" width="12" height="12"/>
	<rect x="88" y="67" transform="matrix(0.7071 -0.7071 0.7071 0.7071 -24.0861 87.8488)" class="st1" width="12" height="12"/>
	<rect x="105" y="67" transform="matrix(0.7071 -0.7071 0.7071 0.7071 -19.1069 99.8695)" class="st1" width="12" height="12"/>
	<rect x="122" y="67" transform="matrix(0.7071 -0.7071 0.7071 0.7071 -14.1276 111.8902)" class="st1" width="12" height="12"/>
	<rect x="139" y="67" transform="matrix(0.7071 -0.7071 0.7071 0.7071 -9.1484 123.9109)" class="st1" width="12" height="12"/>
	<rect x="156" y="67" transform="matrix(0.7071 -0.7071 0.7071 0.7071 -4.1691 135.9316)" class="st1" width="12" height="12"/>
	<rect x="173" y="67" transform="matrix(0.7071 -0.7071 0.7071 0.7071 0.8101 147.9523)" class="st1" width="12" height="12"/>
	<rect x="190" y="67" transform="matrix(0.7071 -0.7071 0.7071 0.7071 5.7893 159.973)" class="st1" width="12" height="12"/>
	<rect x="207" y="67" transform="matrix(0.7071 -0.7071 0.7071 0.7071 10.7685 171.9937)" class="st1" width="12" height="12"/>
	<rect x="224" y="67" transform="matrix(0.7071 -0.7071 0.7071 0.7071 15.7478 184.0144)" class="st1" width="12" height="12"/>
	<rect x="241" y="67" transform="matrix(0.7071 -0.7071 0.7071 0.7071 20.727 196.0351)" class="st1" width="12" height="12"/>
	<rect x="258" y="2" transform="matrix(0.7071 -0.7071 0.7071 0.7071 71.6677 189.0176)" class="st1" width="12" height="12"/>
	<rect x="275" y="2" transform="matrix(0.7071 -0.7071 0.7071 0.7071 76.647 201.0382)" class="st1" width="12" height="12"/>
	<rect x="292" y="2" transform="matrix(0.7071 -0.7071 0.7071 0.7071 81.6262 213.0589)" class="st1" width="12" height="12"/>
	<rect x="309" y="2" transform="matrix(0.7071 -0.7071 0.7071 0.7071 86.6054 225.0797)" class="st1" width="12" height="12"/>
	<rect x="326" y="2" transform="matrix(0.7071 -0.7071 0.7071 0.7071 91.5847 237.1004)" class="st1" width="12" height="12"/>
	<rect x="343" y="2" transform="matrix(0.7071 -0.7071 0.7071 0.7071 96.5639 249.1211)" class="st1" width="12" height="12"/>
	<rect x="360" y="2" transform="matrix(0.7071 -0.7071 0.7071 0.7071 101.5431 261.1418)" class="st1" width="12" height="12"/>
	<rect x="377" y="2" transform="matrix(0.7071 -0.7071 0.7071 0.7071 106.5224 273.1625)" class="st1" width="12" height="12"/>
	<rect x="394" y="2" transform="matrix(0.7071 -0.7071 0.7071 0.7071 111.5016 285.1831)" class="st1" width="12" height="12"/>
	<rect x="411" y="2" transform="matrix(0.7071 -0.7071 0.7071 0.7071 116.4808 297.2038)" class="st1" width="12" height="12"/>
	<rect x="258" y="15" transform="matrix(0.7071 -0.7071 0.7071 0.7071 62.4754 192.8252)" class="st1" width="12" height="12"/>
	<rect x="275" y="15" transform="matrix(0.7071 -0.7071 0.7071 0.7071 67.4546 204.8459)" class="st1" width="12" height="12"/>
	<rect x="292" y="15" transform="matrix(0.7071 -0.7071 0.7071 0.7071 72.4339 216.8666)" class="st1" width="12" height="12"/>
	<rect x="309" y="15" transform="matrix(0.7071 -0.7071 0.7071 0.7071 77.4132 228.8873)" class="st1" width="12" height="12"/>
	<rect x="326" y="15" transform="matrix(0.7071 -0.7071 0.7071 0.7071 82.3924 240.908)" class="st1" width="12" height="12"/>
	<rect x="343" y="15" transform="matrix(0.7071 -0.7071 0.7071 0.7071 87.3716 252.9287)" class="st1" width="12" height="12"/>
	<rect x="360" y="15" transform="matrix(0.7071 -0.7071 0.7071 0.7071 92.3508 264.9494)" class="st1" width="12" height="12"/>
	<rect x="377" y="15" transform="matrix(0.7071 -0.7071 0.7071 0.7071 97.33 276.9701)" class="st1" width="12" height="12"/>
	<rect x="394" y="15" transform="matrix(0.7071 -0.7071 0.7071 0.7071 102.3093 288.9908)" class="st1" width="12" height="12"/>
	<rect x="411" y="15" transform="matrix(0.7071 -0.7071 0.7071 0.7071 107.2886 301.0115)" class="st1" width="12" height="12"/>
	<rect x="258" y="28" transform="matrix(0.7071 -0.7071 0.7071 0.7071 53.2831 196.6328)" class="st1" width="12" height="12"/>
	<rect x="275" y="28" transform="matrix(0.7071 -0.7071 0.7071 0.7071 58.2624 208.6535)" class="st1" width="12" height="12"/>
	<rect x="292" y="28" transform="matrix(0.7071 -0.7071 0.7071 0.7071 63.2416 220.6743)" class="st1" width="12" height="12"/>
	<rect x="309" y="28" transform="matrix(0.7071 -0.7071 0.7071 0.7071 68.2209 232.6949)" class="st1" width="12" height="12"/>
	<rect x="326" y="28" transform="matrix(0.7071 -0.7071 0.7071 0.7071 73.2001 244.7157)" class="st1" width="12" height="12"/>
	<rect x="343" y="28" transform="matrix(0.7071 -0.7071 0.7071 0.7071 78.1793 256.7364)" class="st1" width="12" height="12"/>
	<rect x="360" y="28" transform="matrix(0.7071 -0.7071 0.7071 0.7071 83.1586 268.7571)" class="st1" width="12" height="12"/>
	<rect x="377" y="28" transform="matrix(0.7071 -0.7071 0.7071 0.7071 88.1377 280.7777)" class="st1" width="12" height="12"/>
	<rect x="394" y="28" transform="matrix(0.7071 -0.7071 0.7071 0.7071 93.117 292.7985)" class="st1" width="12" height="12"/>
	<rect x="411" y="28" transform="matrix(0.7071 -0.7071 0.7071 0.7071 98.0963 304.8191)" class="st1" width="12" height="12"/>
	<rect x="257" y="41" transform="matrix(0.7071 -0.7071 0.7071 0.7071 43.7979 199.7334)" class="st1" width="12" height="12"/>
	<rect x="274" y="41" transform="matrix(0.7071 -0.7071 0.7071 0.7071 48.7772 211.7541)" class="st1" width="12" height="12"/>
	<rect x="291" y="41" transform="matrix(0.7071 -0.7071 0.7071 0.7071 53.7564 223.7748)" class="st1" width="12" height="12"/>
	<rect x="308" y="41" transform="matrix(0.7071 -0.7071 0.7071 0.7071 58.7356 235.7955)" class="st1" width="12" height="12"/>
	<rect x="325" y="41" transform="matrix(0.7071 -0.7071 0.7071 0.7071 63.7149 247.8162)" class="st1" width="12" height="12"/>
	<rect x="342" y="41" transform="matrix(0.7071 -0.7071 0.7071 0.7071 68.6942 259.8369)" class="st1" width="12" height="12"/>
	<rect x="359" y="41" transform="matrix(0.7071 -0.7071 0.7071 0.7071 73.6733 271.8576)" class="st1" width="12" height="12"/>
	<rect x="376" y="41" transform="matrix(0.7071 -0.7071 0.7071 0.7071 78.6526 283.8783)" class="st1" width="12" height="12"/>
	<rect x="393" y="41" transform="matrix(0.7071 -0.7071 0.7071 0.7071 83.6318 295.899)" class="st1" width="12" height="12"/>
	<rect x="410" y="41" transform="matrix(0.7071 -0.7071 0.7071 0.7071 88.611 307.9197)" class="st1" width="12" height="12"/>
	<rect x="257" y="54" transform="matrix(0.7071 -0.7071 0.7071 0.7071 34.6057 203.541)" class="st1" width="12" height="12"/>
	<rect x="274" y="54" transform="matrix(0.7071 -0.7071 0.7071 0.7071 39.5849 215.5618)" class="st1" width="12" height="12"/>
	<rect x="291" y="54" transform="matrix(0.7071 -0.7071 0.7071 0.7071 44.5641 227.5825)" class="st1" width="12" height="12"/>
	<rect x="308" y="54" transform="matrix(0.7071 -0.7071 0.7071 0.7071 49.5433 239.6032)" class="st1" width="12" height="12"/>
	<rect x="325" y="54" transform="matrix(0.7071 -0.7071 0.7071 0.7071 54.5226 251.6239)" class="st1" width="12" height="12"/>
	<rect x="342" y="54" transform="matrix(0.7071 -0.7071 0.7071 0.7071 59.5018 263.6445)" class="st1" width="12" height="12"/>
	<rect x="359" y="54" transform="matrix(0.7071 -0.7071 0.7071 0.7071 64.4811 275.6652)" class="st1" width="12" height="12"/>
	<rect x="376" y="54" transform="matrix(0.7071 -0.7071 0.7071 0.7071 69.4603 287.6859)" class="st1" width="12" height="12"/>
	<rect x="393" y="54" transform="matrix(0.7071 -0.7071 0.7071 0.7071 74.4395 299.7067)" class="st1" width="12" height="12"/>
	<rect x="410" y="54" transform="matrix(0.7071 -0.7071 0.7071 0.7071 79.4187 311.7274)" class="st1" width="12" height="12"/>
	<rect x="258" y="67" transform="matrix(0.7071 -0.7071 0.7071 0.7071 25.7063 208.0558)" class="st1" width="12" height="12"/>
	<rect x="275" y="67" transform="matrix(0.7071 -0.7071 0.7071 0.7071 30.6855 220.0765)" class="st1" width="12" height="12"/>
	<rect x="292" y="67" transform="matrix(0.7071 -0.7071 0.7071 0.7071 35.6647 232.0972)" class="st1" width="12" height="12"/>
	<rect x="309" y="67" transform="matrix(0.7071 -0.7071 0.7071 0.7071 40.644 244.1179)" class="st1" width="12" height="12"/>
	<rect x="326" y="67" transform="matrix(0.7071 -0.7071 0.7071 0.7071 45.6232 256.1385)" class="st1" width="12" height="12"/>
	<rect x="343" y="67" transform="matrix(0.7071 -0.7071 0.7071 0.7071 50.6024 268.1593)" class="st1" width="12" height="12"/>
	<rect x="360" y="67" transform="matrix(0.7071 -0.7071 0.7071 0.7071 55.5817 280.18)" class="st1" width="12" height="12"/>
	<rect x="377" y="67" transform="matrix(0.7071 -0.7071 0.7071 0.7071 60.5609 292.2007)" class="st1" width="12" height="12"/>
	<rect x="394" y="67" transform="matrix(0.7071 -0.7071 0.7071 0.7071 65.5401 304.2214)" class="st1" width="12" height="12"/>
	<rect x="411" y="67" transform="matrix(0.7071 -0.7071 0.7071 0.7071 70.5193 316.2421)" class="st1" width="12" height="12"/>
	<rect x="428" y="2" transform="matrix(0.7071 -0.7071 0.7071 0.7071 121.4601 309.2245)" class="st1" width="12" height="12"/>
	<polygon class="st1" points="1018,-0.5 1026.5,8 1018,16.5 442.5,8 	"/>
	<rect x="1029" y="2" transform="matrix(0.7071 -0.7071 0.7071 0.7071 297.489 734.1955)" class="st1" width="12" height="12"/>
	<rect x="1046" y="2" transform="matrix(0.7071 -0.7071 0.7071 0.7071 302.4682 746.2162)" class="st1" width="12" height="12"/>
	<rect x="1063" y="2" transform="matrix(0.7071 -0.7071 0.7071 0.7071 307.4475 758.2369)" class="st1" width="12" height="12"/>
	<rect x="1080" y="2" transform="matrix(0.7071 -0.7071 0.7071 0.7071 312.4267 770.2576)" class="st1" width="12" height="12"/>
	<rect x="1097" y="2" transform="matrix(0.7071 -0.7071 0.7071 0.7071 317.4059 782.2783)" class="st1" width="12" height="12"/>
	<rect x="428" y="15" transform="matrix(0.7071 -0.7071 0.7071 0.7071 112.2678 313.0322)" class="st1" width="12" height="12"/>
	<polygon class="st1" points="1018,12.5 1026.5,21 1018,29.5 442.5,21 	"/>
	<rect x="1029" y="15" transform="matrix(0.7071 -0.7071 0.7071 0.7071 288.2967 738.0032)" class="st1" width="12" height="12"/>
	<rect x="1046" y="15" transform="matrix(0.7071 -0.7071 0.7071 0.7071 293.2759 750.0239)" class="st1" width="12" height="12"/>
	<rect x="1063" y="15" transform="matrix(0.7071 -0.7071 0.7071 0.7071 298.2551 762.0446)" class="st1" width="12" height="12"/>
	<rect x="1080" y="15" transform="matrix(0.7071 -0.7071 0.7071 0.7071 303.2344 774.0652)" class="st1" width="12" height="12"/>
	<rect x="1097" y="15" transform="matrix(0.7071 -0.7071 0.7071 0.7071 308.2136 786.0859)" class="st1" width="12" height="12"/>
	<rect x="428" y="28" transform="matrix(0.7071 -0.7071 0.7071 0.7071 103.0755 316.8398)" class="st1" width="12" height="12"/>
	<polygon class="st1" points="1018,25.5 1026.5,34 1018,42.5 442.5,34 	"/>
	<rect x="1029" y="28" transform="matrix(0.7071 -0.7071 0.7071 0.7071 279.1044 741.8109)" class="st1" width="12" height="12"/>
	<rect x="1046" y="28" transform="matrix(0.7071 -0.7071 0.7071 0.7071 284.0836 753.8315)" class="st1" width="12" height="12"/>
	<rect x="1063" y="28" transform="matrix(0.7071 -0.7071 0.7071 0.7071 289.0628 765.8522)" class="st1" width="12" height="12"/>
	<rect x="1080" y="28" transform="matrix(0.7071 -0.7071 0.7071 0.7071 294.0421 777.8729)" class="st1" width="12" height="12"/>
	<rect x="1097" y="28" transform="matrix(0.7071 -0.7071 0.7071 0.7071 299.0214 789.8936)" class="st1" width="12" height="12"/>
	<rect x="427" y="41" transform="matrix(0.7071 -0.7071 0.7071 0.7071 93.5903 319.9404)" class="st1" width="12" height="12"/>
	<polygon class="st1" points="1017,38.5 1025.5,47 1017,55.5 441.5,47 	"/>
	<rect x="1028" y="41" transform="matrix(0.7071 -0.7071 0.7071 0.7071 269.6192 744.9114)" class="st1" width="12" height="12"/>
	<rect x="1045" y="41" transform="matrix(0.7071 -0.7071 0.7071 0.7071 274.5984 756.932)" class="st1" width="12" height="12"/>
	<rect x="1062" y="41" transform="matrix(0.7071 -0.7071 0.7071 0.7071 279.5777 768.9528)" class="st1" width="12" height="12"/>
	<rect x="1079" y="41" transform="matrix(0.7071 -0.7071 0.7071 0.7071 284.5569 780.9734)" class="st1" width="12" height="12"/>
	<rect x="1096" y="41" transform="matrix(0.7071 -0.7071 0.7071 0.7071 289.5361 792.9941)" class="st1" width="12" height="12"/>
	<rect x="427" y="54" transform="matrix(0.7071 -0.7071 0.7071 0.7071 84.398 323.7481)" class="st1" width="12" height="12"/>
	<polygon class="st1" points="1017,51.5 1025.5,60 1017,68.5 441.5,60 	"/>
	<rect x="1028" y="54" transform="matrix(0.7071 -0.7071 0.7071 0.7071 260.4269 748.719)" class="st1" width="12" height="12"/>
	<rect x="1045" y="54" transform="matrix(0.7071 -0.7071 0.7071 0.7071 265.4062 760.7397)" class="st1" width="12" height="12"/>
	<rect x="1062" y="54" transform="matrix(0.7071 -0.7071 0.7071 0.7071 270.3853 772.7604)" class="st1" width="12" height="12"/>
	<rect x="1079" y="54" transform="matrix(0.7071 -0.7071 0.7071 0.7071 275.3646 784.7811)" class="st1" width="12" height="12"/>
	<rect x="1096" y="54" transform="matrix(0.7071 -0.7071 0.7071 0.7071 280.3438 796.8018)" class="st1" width="12" height="12"/>
	<rect x="428" y="67" transform="matrix(0.7071 -0.7071 0.7071 0.7071 75.4986 328.2628)" class="st1" width="12" height="12"/>
	<polygon class="st1" points="1018,64.5 1026.5,73 1018,81.5 442.5,73 	"/>
	<rect x="1029" y="67" transform="matrix(0.7071 -0.7071 0.7071 0.7071 251.5275 753.2337)" class="st1" width="12" height="12"/>
	<rect x="1046" y="67" transform="matrix(0.7071 -0.7071 0.7071 0.7071 256.5067 765.2545)" class="st1" width="12" height="12"/>
	<rect x="1063" y="67" transform="matrix(0.7071 -0.7071 0.7071 0.7071 261.486 777.2751)" class="st1" width="12" height="12"/>
	<rect x="1080" y="67" transform="matrix(0.7071 -0.7071 0.7071 0.7071 266.4652 789.2958)" class="st1" width="12" height="12"/>
	<rect x="1097" y="67" transform="matrix(0.7071 -0.7071 0.7071 0.7071 271.4444 801.3166)" class="st1" width="12" height="12"/>
</g>
<path class="st2" d="M114,366"/>
<g id="Layer_7">
</g>
<g>
	<path class="st3" d="M146.9,0C125.2,5.1,98.3,13.8,78,38C66.3,51.9,60.4,66.8,57,80h-5c-22.1,0-40-17.9-40-40
		c0-11,4.5-21,11.7-28.3C31,4.5,41,0,52,0H146.9z"/>
	<g>
		
			<image style="overflow:visible;opacity:0.13;enable-background:new    ;" width="165" height="110" xlink:href="E6E29EEC.png"  transform="matrix(1 0 0 1 -8 -8)">
		</image>
		<g>
			<path class="st3" d="M134.9,0C113.2,5.1,86.3,13.8,66,38C54.3,51.9,48.4,66.8,45,80h-5C17.9,80,0,62.1,0,40
				c0-11,4.5-21,11.7-28.3C19,4.5,29,0,40,0H134.9z"/>
		</g>
	</g>
</g>
<path class="st3" d="M1020,80c21.7-5.1,48.6-13.8,68.9-38c11.7-13.9,17.6-28.8,21-42h5c22.1,0,40,17.9,40,40c0,11-4.5,21-11.7,28.3
	C1136,75.5,1126,80,1114.9,80H1020z"/>
<g>
	
		<image style="overflow:visible;opacity:0.13;enable-background:new    ;" width="165" height="110" xlink:href="E6E29EED.png"  transform="matrix(1 0 0 1 1010 -22)">
	</image>
	<g>
		<path class="st3" d="M1032,80c21.7-5.1,48.6-13.8,68.9-38c11.7-13.9,17.6-28.8,21-42h5c22.1,0,40,17.9,40,40
			c0,11-4.5,21-11.7,28.3C1148,75.5,1138,80,1126.9,80H1032z"/>
	</g>
</g>
<path class="st4" d="M148.6,10.1l-0.5-1.5c-1-2.8,0.5-6,3.3-7l0.7-0.3c0.8-0.3,1.2-1.2,0.9-2s-1.2-1.2-2-0.9l-0.7,0.3
	c-4.5,1.6-6.8,6.5-5.2,11l0.5,1.5c1,2.8-0.5,6-3.3,7s-6-0.5-7-3.3l-0.5-1.5c-1.6-4.5-6.5-6.8-11-5.2l-8.1,2.9
	c-0.8,0.3-1.2,1.2-0.9,2c0.3,0.8,1.2,1.2,2,0.9l8.1-2.9c2.8-1,6,0.5,7,3.3l0.5,1.5c1.6,4.5,6.5,6.8,11,5.2S150.2,14.6,148.6,10.1z"
	/>
<g>
	
		<image style="overflow:visible;opacity:0.13;enable-background:new    ;" width="108" height="122" xlink:href="E6E29EEB.png"  transform="matrix(1 0 0 1 46 -31)">
	</image>
	<g>
		<path class="st5" d="M86.1-21c-6.4,0.2-12.8,1.3-19,3.1c-14.7,5.3-15.7,7.3-13.5,13.2c5,14.1,18.2,5.1,24.3,10.4l4.8,10.7L88,31.1
			l3.1,11.3c-1.3,8-17.3,9.4-12.2,23.5c2.1,5.9,4.1,6.8,18.8,1.5c5.9-2.5,11.5-5.7,16.6-9.7l10.9-10.1c2.8-3.5,4.3-6.9,3.4-9.6
			c-2.1-5.9-4.5-3.4-8.8-15.1l-7.4-20.6c-4.2-11.8-0.8-11.4-2.9-17.2c-1-2.6-4.3-4.3-8.7-5.2L86.1-21z"/>
	</g>
</g>
<path class="st4" d="M87.7,16.3c-4.1,1.5-8.5-0.6-10-4.7s0.6-8.5,4.7-10s8.5,0.6,10,4.7C93.9,10.3,91.7,14.8,87.7,16.3z"/>
<path class="st4" d="M97.2,42.7c-4.1,1.5-8.5-0.6-10-4.7s0.6-8.5,4.7-10s8.5,0.6,10,4.7C103.4,36.8,101.3,41.3,97.2,42.7z"/>
<path class="st5" d="M87.2,14.8c-3.3,1.2-6.8-0.5-8-3.8s0.5-6.8,3.8-8s6.8,0.5,8,3.8S90.4,13.6,87.2,14.8z"/>
<path class="st5" d="M96.7,41.3c-3.3,1.2-6.8-0.5-8-3.8c-1.2-3.2,0.5-6.8,3.8-8s6.8,0.5,8,3.8C101.6,36.5,99.9,40.1,96.7,41.3z"/>
<path class="st4" d="M97.2,1.2C91,3.5,84.1,0.5,81.5-5.6s-0.1-13.1,5.8-16.1c0.9-0.5,1.9-0.8,2.9-1.1c6.5-1.5,12.9,2.4,14.8,8.7
	C106.9-7.7,103.5-1,97.2,1.2z"/>
<path class="st4" d="M117.3,57.1c-6.5,2.3-13.7-1-16-7.5s1-13.7,7.5-16s13.7,1,16,7.5C127.2,47.6,123.8,54.8,117.3,57.1z"/>
<path class="st6" d="M111.5,40.9c-2,0.7-4.3-0.3-5-2.4c-0.7-2,0.3-4.3,2.4-5c2-0.7,4.3,0.3,5,2.4C114.6,38,113.5,40.2,111.5,40.9z"
	/>
<path class="st7" d="M122.5,46.1c-2,0.7-4.3-0.3-5-2.4c-0.7-2,0.3-4.3,2.4-5c2-0.7,4.3,0.3,5,2.4S124.5,45.4,122.5,46.1z"/>
<path class="st8" d="M117.3,57.1c-2,0.7-4.3-0.3-5-2.4c-0.7-2,0.3-4.3,2.4-5c2-0.7,4.3,0.3,5,2.4C120.4,54.1,119.4,56.4,117.3,57.1z
	"/>
<path class="st9" d="M106.3,51.9c-2,0.7-4.3-0.3-5-2.4s0.3-4.3,2.4-5c2-0.7,4.3,0.3,5,2.4S108.4,51.2,106.3,51.9z"/>
<g>
	<path class="st5" d="M95.9-11.6c-0.3-0.8,0.1-1.7,0.9-2l7.4-2.6c0.8-0.3,1.7,0.1,2,0.9c0.3,0.8-0.1,1.7-0.9,2l-7.4,2.6
		C97.1-10.4,96.2-10.8,95.9-11.6z"/>
	<path class="st5" d="M91.4-15c-0.8,0.3-1.7-0.1-2-0.9l-2.1-5.8c0.9-0.5,1.9-0.8,2.9-1.1l2.1,5.8C92.6-16.2,92.2-15.3,91.4-15z"/>
	<path class="st5" d="M95.7,1.7l-2.1-5.9c-0.3-0.8,0.1-1.7,0.9-2s1.7,0.1,2,0.9l2.1,5.9c0.3,0.8-0.1,1.7-0.9,2
		C96.9,3,96,2.5,95.7,1.7z"/>
	<path class="st5" d="M79.7-5.8c-0.3-0.8,0.1-1.7,0.9-2l5.9-2.1c0.8-0.3,1.7,0.1,2,0.9c0.3,0.8-0.1,1.7-0.9,2l-5.9,2.1
		C80.9-4.6,80-5,79.7-5.8z"/>
</g>
<path class="st10" d="M112.6,2.3l7.4,20.6l-10.3,3.7c-1.6,0.6-3.4-0.3-4-1.9L100.4,10c-0.6-1.6,0.3-3.4,1.9-4L112.6,2.3z"/>
<path class="st11" d="M113.6-18c-0.3-0.8,0.1-1.7,0.9-2l2.9-1.1c0.8-0.3,1.7,0.1,2,0.9s-0.1,1.7-0.9,2l-2.9,1.1
	C114.8-16.7,113.9-17.2,113.6-18z"/>
<path class="st11" d="M108.5-22.8c-0.1-0.2-0.1-0.5-0.1-0.7l0.4-3.5c0.1-0.9,0.9-1.5,1.7-1.4c0.9,0.1,1.5,0.9,1.4,1.7l-0.4,3.5
	c-0.1,0.7-0.7,1.3-1.4,1.4C109.5-21.7,108.8-22.1,108.5-22.8z"/>
<path class="st12" d="M1062,26.6v22.7c0,1.1-0.6,2.2-1.7,2.6l-18.1,8.6c-0.4,0.2-0.8,0.3-1.3,0.3c-0.4,0-0.9-0.1-1.3-0.3l-17.9-8.5
	c-1-0.5-1.7-1.5-1.7-2.6V26.6c0-0.6,0.2-1.1,0.5-1.6c0.3-0.4,0.7-0.8,1.2-1l18.1-8.6c0.8-0.4,1.7-0.4,2.5,0l18.1,8.6
	c0.5,0.2,0.9,0.6,1.2,1C1061.8,25.5,1062,26.1,1062,26.6L1062,26.6z"/>
<path class="st13" d="M1061.5,25c-0.3-0.4-0.7-0.8-1.2-1l-18.1-8.6c-0.8-0.4-1.7-0.4-2.5,0l-0.1,0.1l18,8.5c0.5,0.2,0.9,0.6,1.2,1
	c0.3,0.5,0.5,1,0.5,1.6v22.7c0,1.1-0.6,2.2-1.7,2.6l-18,8.5l0.1,0.1c0.4,0.2,0.8,0.3,1.3,0.3c0.4,0,0.9-0.1,1.3-0.3l18.1-8.6
	c1-0.5,1.7-1.5,1.7-2.6V26.6C1062,26.1,1061.8,25.5,1061.5,25L1061.5,25z"/>
<path class="st14" d="M1041,34.8v26.1c-0.4,0-0.9-0.1-1.3-0.3l-18-8.6c-1-0.5-1.7-1.5-1.7-2.6V26.6c0-0.6,0.2-1.1,0.5-1.6L1041,34.8
	z"/>
<path class="st13" d="M1062,26.6v22.7c0,1.1-0.6,2.1-1.6,2.6l0,0l-18.1,8.6c-0.4,0.2-0.8,0.3-1.3,0.3v-26l20.5-9.8
	C1061.8,25.5,1062,26.1,1062,26.6L1062,26.6z"/>
<path class="st15" d="M1061.5,25l-2.3,1.1c0,0.2,0,0.3,0,0.5v22.7c0,1.1-0.6,2.1-1.6,2.6l0,0l-16.6,8v1c0.4,0,0.9-0.1,1.3-0.3
	l18.1-8.6l0,0c1-0.5,1.6-1.5,1.6-2.6V26.6C1062,26.1,1061.8,25.5,1061.5,25L1061.5,25z"/>
<g>
	<ellipse transform="matrix(0.134 -0.991 0.991 0.134 869.6677 1080.2813)" class="st16" cx="1052.9" cy="42.6" rx="2.4" ry="1.8"/>
	
		<ellipse transform="matrix(0.9985 -5.497115e-02 5.497115e-02 0.9985 -0.562 56.9651)" class="st16" cx="1035.2" cy="38.7" rx="1.8" ry="2.4"/>
	
		<ellipse transform="matrix(0.9985 -5.497115e-02 5.497115e-02 0.9985 -1.0503 56.4227)" class="st16" cx="1025.1" cy="47.3" rx="1.8" ry="2.4"/>
	
		<ellipse transform="matrix(0.9985 -5.497115e-02 5.497115e-02 0.9985 0.2198 56.7948)" class="st16" cx="1032.5" cy="24.4" rx="2.4" ry="1.8"/>
	
		<ellipse transform="matrix(0.9985 -5.497115e-02 5.497115e-02 0.9985 0.4578 57.2449)" class="st16" cx="1040.8" cy="20.3" rx="2.4" ry="1.8"/>
	
		<ellipse transform="matrix(0.9985 -5.497115e-02 5.497115e-02 0.9985 0.2292 57.7298)" class="st16" cx="1049.5" cy="24.7" rx="2.4" ry="1.8"/>
	
		<ellipse transform="matrix(0.9985 -5.497115e-02 5.497115e-02 0.9985 7.983736e-03 57.2903)" class="st16" cx="1041.4" cy="28.5" rx="2.4" ry="1.8"/>
</g>
<path class="st17" d="M1167,40c0,11-4.5,21-11.7,28.3C1148,75.5,1138,80,1127,80H40C17.9,80,0,62.1,0,40c0-11,4.5-21,11.7-28.3
	C19,4.5,29,0,40,0h1087C1149.1,0,1167,17.9,1167,40z"/>
<g class="st18">
	<line class="st19" x1="993.3" y1="-26" x2="866.3" y2="101"/>
	<line class="st20" x1="1023.3" y1="-26" x2="896.3" y2="101"/>
</g>
<g>
	<path class="st21" d="M159,30.7h3.9v13.6h8.4v3.2H159V30.7z"/>
	<path class="st21" d="M173.1,40.1v-9.4h3.9V40c0,3.2,1.4,4.5,3.7,4.5c2.4,0,3.7-1.3,3.7-4.5v-9.3h3.8v9.4c0,4.9-2.8,7.7-7.6,7.7
		C176,47.8,173.1,45,173.1,40.1z"/>
	<path class="st21" d="M191.1,39.1c0-5.1,3.9-8.7,9.1-8.7c2.9,0,5.3,1.1,6.9,3l-2.5,2.3c-1.1-1.3-2.5-2-4.2-2
		c-3.1,0-5.4,2.2-5.4,5.4s2.2,5.4,5.4,5.4c1.7,0,3.1-0.7,4.2-2l2.5,2.3c-1.6,1.9-4,3-6.9,3C195,47.8,191.1,44.1,191.1,39.1z"/>
	<path class="st21" d="M209.8,30.7h3.9v16.8h-3.9V30.7z"/>
	<path class="st21" d="M235.8,38.8h3.6v6.8c-1.8,1.4-4.4,2.1-6.8,2.1c-5.3,0-9.2-3.6-9.2-8.7s3.9-8.7,9.2-8.7c3,0,5.4,1,7,2.9
		l-2.5,2.3c-1.2-1.3-2.6-1.9-4.3-1.9c-3.3,0-5.5,2.2-5.5,5.4c0,3.1,2.2,5.4,5.4,5.4c1.1,0,2-0.2,3-0.7v-4.9H235.8z"/>
	<path class="st21" d="M254,43.9h-7.8l-1.5,3.6h-4l7.5-16.8h3.8l7.5,16.8h-4.1L254,43.9z M252.8,40.9l-2.7-6.4l-2.7,6.4H252.8z"/>
	<path class="st21" d="M276.6,47.5V37.4l-4.9,8.3h-1.8l-4.9-8.1v9.9h-3.6V30.7h3.2l6.3,10.4l6.2-10.4h3.2v16.8H276.6z"/>
	<path class="st21" d="M297.3,44.4v3.1h-13V30.7H297v3.1h-8.8v3.6h7.8v3h-7.8v3.9h9.1V44.4z"/>
	<path class="st21" d="M299,45.8l1.3-2.9c1.4,1,3.5,1.8,5.5,1.8c2.3,0,3.2-0.8,3.2-1.8c0-3.1-9.8-1-9.8-7.2c0-2.9,2.3-5.2,7.1-5.2
		c2.1,0,4.3,0.5,5.8,1.5l-1.2,3c-1.6-0.9-3.2-1.3-4.7-1.3c-2.3,0-3.2,0.9-3.2,1.9c0,3.1,9.8,1,9.8,7.1c0,2.8-2.3,5.2-7.1,5.2
		C303.2,47.8,300.5,47,299,45.8z"/>
	<path class="st21" d="M333.5,43.9h-7.8l-1.5,3.6h-4l7.5-16.8h3.8l7.5,16.8h-4L333.5,43.9z M332.3,40.9l-2.7-6.4l-2.7,6.4H332.3z"/>
	<path class="st21" d="M351.5,47.5l-3.2-4.7h-0.2h-3.4v4.7h-3.9V30.7h7.3c4.5,0,7.3,2.3,7.3,6.1c0,2.5-1.3,4.4-3.5,5.3l3.8,5.4
		H351.5z M347.9,33.9h-3.2v5.9h3.2c2.4,0,3.6-1.1,3.6-2.9C351.5,34.9,350.3,33.9,347.9,33.9z"/>
	<path class="st21" d="M371.5,44.4v3.1h-13V30.7h12.7v3.1h-8.8v3.6h7.8v3h-7.8v3.9h9.1V44.4z"/>
	<path class="st21" d="M396.8,30.7v16.8h-3.9v-6.9h-7.6v6.9h-3.9V30.7h3.9v6.6h7.6v-6.6C392.9,30.7,396.8,30.7,396.8,30.7z"/>
	<path class="st21" d="M413.8,44.4v3.1h-13V30.7h12.7v3.1h-8.8v3.6h7.8v3h-7.8v3.9h9.1V44.4z"/>
	<path class="st21" d="M427.6,47.5l-3.2-4.7h-0.2h-3.4v4.7h-3.9V30.7h7.3c4.5,0,7.3,2.3,7.3,6.1c0,2.5-1.3,4.4-3.5,5.3l3.8,5.4
		H427.6z M423.9,33.9h-3.2v5.9h3.2c2.4,0,3.6-1.1,3.6-2.9C427.5,34.9,426.3,33.9,423.9,33.9z"/>
	<path class="st21" d="M1014.5,44.4v3.1h-580V30.7h579.7v3.1H438.4v3.6h574.8v3H438.4v3.9h576.1V44.4z"/>
</g>
<g>
	<path class="st22" d="M195.6,57.1V60h-0.9v-7.2h2.4c0.6,0,1.1,0.2,1.6,0.6c0.4,0.4,0.7,0.9,0.7,1.5s-0.2,1.1-0.7,1.5
		c-0.4,0.4-1,0.6-1.6,0.6h-1.5V57.1z M195.6,53.7v2.5h1.5c0.4,0,0.7-0.1,0.9-0.4c0.2-0.2,0.4-0.5,0.4-0.9c0-0.3-0.1-0.6-0.4-0.9
		c-0.2-0.3-0.5-0.4-0.9-0.4h-1.5V53.7z"/>
	<path class="st22" d="M201.2,52.8V60h-0.9v-7.2H201.2z"/>
	<path class="st22" d="M204.1,54.9c0.7,0,1.2,0.2,1.6,0.5c0.4,0.4,0.6,0.9,0.6,1.5v3h-0.9v-0.7l0,0c-0.4,0.6-0.9,0.8-1.5,0.8
		c-0.5,0-1-0.2-1.4-0.5s-0.5-0.7-0.5-1.2s0.2-0.9,0.6-1.2c0.4-0.3,0.9-0.4,1.5-0.4c0.5,0,1,0.1,1.4,0.3v-0.2c0-0.3-0.1-0.6-0.4-0.8
		c-0.3-0.2-0.5-0.3-0.9-0.3c-0.5,0-0.9,0.2-1.2,0.7l-0.8-0.5C202.6,55.3,203.2,54.9,204.1,54.9z M202.9,58.5c0,0.2,0.1,0.4,0.3,0.6
		c0.2,0.2,0.4,0.2,0.7,0.2c0.4,0,0.7-0.1,1-0.4c0.3-0.3,0.5-0.6,0.5-1c-0.3-0.2-0.7-0.3-1.2-0.3c-0.4,0-0.7,0.1-0.9,0.3
		S202.9,58.2,202.9,58.5z"/>
	<path class="st22" d="M211.6,55.1l-3.1,7.1h-1l1.1-2.5l-2-4.6h1l1.5,3.5l0,0l1.4-3.5H211.6z"/>
	<path class="st22" d="M215.3,52.8V60h-0.9v-7.2H215.3z"/>
	<path class="st22" d="M220.8,60h-0.9v-0.7l0,0c-0.1,0.2-0.4,0.4-0.6,0.6s-0.6,0.2-0.9,0.2c-0.6,0-1.1-0.2-1.4-0.5
		c-0.3-0.3-0.5-0.8-0.5-1.5V55h0.9v3c0,0.8,0.4,1.2,1.2,1.2c0.4,0,0.7-0.1,0.9-0.4s0.4-0.7,0.4-1.1V55h0.9L220.8,60L220.8,60z"/>
	<path class="st22" d="M224.1,60.2c-0.7,0-1.3-0.2-1.8-0.7s-0.7-1.1-0.7-1.9c0-0.8,0.2-1.4,0.7-1.9s1.1-0.7,1.8-0.7
		c0.5,0,0.9,0.1,1.3,0.4s0.7,0.6,0.8,1l-0.8,0.4c-0.3-0.6-0.7-0.9-1.4-0.9c-0.4,0-0.8,0.2-1.1,0.5s-0.4,0.8-0.4,1.3s0.1,0.9,0.4,1.3
		c0.3,0.3,0.7,0.5,1.1,0.5c0.7,0,1.1-0.3,1.4-0.9l0.8,0.3c-0.2,0.4-0.5,0.8-0.8,1S224.6,60.2,224.1,60.2z"/>
	<path class="st22" d="M228.2,53.4c0,0.2-0.1,0.3-0.2,0.5c-0.1,0.1-0.3,0.2-0.5,0.2s-0.3-0.1-0.5-0.2c-0.1-0.1-0.2-0.3-0.2-0.5
		s0.1-0.3,0.2-0.5c0.1-0.1,0.3-0.2,0.5-0.2s0.3,0.1,0.5,0.2C228.2,53.1,228.2,53.2,228.2,53.4z M228,55.1V60h-0.9v-4.9H228z"/>
	<path class="st22" d="M233.6,62.3c-0.3,0-0.5,0-0.8-0.1c-0.2-0.1-0.5-0.2-0.7-0.3s-0.4-0.3-0.5-0.5s-0.2-0.4-0.3-0.6l0.9-0.4
		c0.1,0.3,0.3,0.5,0.5,0.7s0.5,0.3,0.9,0.3c0.5,0,0.9-0.2,1.2-0.5s0.4-0.7,0.4-1.2v-0.5l0,0c-0.2,0.3-0.4,0.5-0.7,0.6
		c-0.3,0.2-0.6,0.2-1,0.2c-0.6,0-1.2-0.3-1.6-0.8c-0.5-0.5-0.7-1.1-0.7-1.9s0.2-1.3,0.7-1.8s1-0.8,1.6-0.8c0.3,0,0.7,0.1,1,0.2
		c0.3,0.2,0.5,0.4,0.7,0.6l0,0v-0.7h0.9v4.7c0,0.8-0.2,1.4-0.7,1.8C235,62.1,234.4,62.3,233.6,62.3z M233.6,59.3
		c0.5,0,0.8-0.2,1.1-0.5s0.4-0.8,0.4-1.3s-0.1-0.9-0.4-1.3c-0.3-0.3-0.7-0.5-1.1-0.5c-0.4,0-0.8,0.2-1.1,0.5s-0.4,0.8-0.4,1.3
		s0.1,0.9,0.4,1.3C232.8,59.2,233.2,59.3,233.6,59.3z"/>
	<path class="st22" d="M239,54.9c0.7,0,1.2,0.2,1.6,0.5c0.4,0.4,0.6,0.9,0.6,1.5v3h-0.9v-0.7l0,0c-0.4,0.6-0.9,0.8-1.5,0.8
		c-0.5,0-1-0.2-1.4-0.5s-0.5-0.7-0.5-1.2s0.2-0.9,0.6-1.2c0.4-0.3,0.9-0.4,1.5-0.4c0.5,0,1,0.1,1.4,0.3v-0.2c0-0.3-0.1-0.6-0.4-0.8
		c-0.3-0.2-0.5-0.3-0.9-0.3c-0.5,0-0.9,0.2-1.2,0.7l-0.8-0.5C237.5,55.3,238.1,54.9,239,54.9z M237.8,58.5c0,0.2,0.1,0.4,0.3,0.6
		c0.2,0.2,0.4,0.2,0.7,0.2c0.4,0,0.7-0.1,1-0.4c0.3-0.3,0.5-0.6,0.5-1c-0.3-0.2-0.7-0.3-1.2-0.3c-0.4,0-0.7,0.1-0.9,0.3
		S237.8,58.2,237.8,58.5z"/>
	<path class="st22" d="M243.2,60h-0.9v-4.9h0.9v0.7l0,0c0.1-0.2,0.4-0.4,0.6-0.6s0.6-0.2,0.9-0.2c0.4,0,0.7,0.1,0.9,0.3
		c0.3,0.2,0.5,0.4,0.6,0.7c0.4-0.6,1-0.9,1.7-0.9c0.6,0,1,0.2,1.3,0.5s0.5,0.8,0.5,1.5V60h-0.9v-2.9c0-0.5-0.1-0.8-0.3-1
		s-0.4-0.3-0.8-0.3c-0.4,0-0.7,0.1-0.9,0.5c-0.2,0.3-0.4,0.7-0.4,1.1V60h-0.9v-2.9c0-0.5-0.1-0.8-0.3-1s-0.4-0.3-0.8-0.3
		c-0.4,0-0.6,0.1-0.9,0.5c-0.2,0.3-0.4,0.7-0.4,1.1L243.2,60L243.2,60z"/>
	<path class="st22" d="M253,60.2c-0.7,0-1.3-0.2-1.8-0.7s-0.7-1.1-0.7-1.9c0-0.7,0.2-1.4,0.7-1.9s1-0.7,1.7-0.7s1.3,0.2,1.7,0.7
		s0.6,1.1,0.6,2v0.1h-3.8c0,0.5,0.2,0.9,0.5,1.2s0.7,0.4,1.1,0.4c0.6,0,1-0.3,1.4-0.9l0.8,0.4c-0.2,0.4-0.5,0.7-0.9,1
		C253.9,60,253.5,60.2,253,60.2z M251.5,57h2.8c0-0.3-0.2-0.6-0.4-0.8s-0.6-0.3-1-0.3c-0.3,0-0.6,0.1-0.9,0.3
		C251.8,56.3,251.6,56.6,251.5,57z"/>
	<path class="st22" d="M259.9,58.6c0,0.4-0.2,0.8-0.6,1.1s-0.8,0.4-1.4,0.4c-0.5,0-0.9-0.1-1.3-0.4c-0.4-0.3-0.6-0.6-0.8-1l0.8-0.3
		c0.1,0.3,0.3,0.5,0.5,0.7s0.5,0.2,0.8,0.2s0.5-0.1,0.7-0.2c0.2-0.1,0.3-0.3,0.3-0.5c0-0.3-0.2-0.5-0.7-0.7l-0.8-0.2
		c-1-0.2-1.4-0.7-1.4-1.4c0-0.4,0.2-0.8,0.5-1.1c0.4-0.3,0.8-0.4,1.4-0.4c0.4,0,0.8,0.1,1.2,0.3s0.6,0.5,0.7,0.8l-0.8,0.3
		c-0.1-0.2-0.2-0.4-0.5-0.5c-0.2-0.1-0.4-0.2-0.7-0.2c-0.2,0-0.5,0.1-0.6,0.2c-0.2,0.1-0.3,0.3-0.3,0.4c0,0.3,0.3,0.5,0.8,0.6
		l0.7,0.2C259.5,57.4,259.9,57.9,259.9,58.6z"/>
	<path class="st22" d="M264.8,54.9c0.7,0,1.2,0.2,1.6,0.5c0.4,0.4,0.6,0.9,0.6,1.5v3h-0.9v-0.7l0,0c-0.4,0.6-0.9,0.8-1.5,0.8
		c-0.5,0-1-0.2-1.4-0.5s-0.5-0.7-0.5-1.2s0.2-0.9,0.6-1.2s0.9-0.4,1.5-0.4c0.5,0,1,0.1,1.4,0.3v-0.2c0-0.3-0.1-0.6-0.4-0.8
		s-0.5-0.3-0.9-0.3c-0.5,0-0.9,0.2-1.2,0.7l-0.8-0.5C263.3,55.3,263.9,54.9,264.8,54.9z M263.6,58.5c0,0.2,0.1,0.4,0.3,0.6
		c0.2,0.2,0.4,0.2,0.7,0.2c0.4,0,0.7-0.1,1-0.4c0.3-0.3,0.5-0.6,0.5-1c-0.3-0.2-0.7-0.3-1.2-0.3c-0.4,0-0.7,0.1-0.9,0.3
		S263.6,58.2,263.6,58.5z"/>
	<path class="st22" d="M268,55.1h0.9v0.7l0,0c0.1-0.2,0.4-0.4,0.6-0.6s0.6-0.2,0.9-0.2c0.6,0,1.1,0.2,1.4,0.5s0.5,0.8,0.5,1.5v3
		h-0.9v-3c0-0.8-0.4-1.2-1.2-1.2c-0.4,0-0.7,0.1-0.9,0.4c-0.2,0.3-0.4,0.7-0.4,1.1V60H268V55.1z"/>
	<path class="st22" d="M275.5,60.2c-0.6,0-1.2-0.3-1.6-0.8c-0.5-0.5-0.7-1.1-0.7-1.9s0.2-1.3,0.7-1.8s1-0.8,1.6-0.8
		c0.4,0,0.7,0.1,1,0.2c0.3,0.2,0.5,0.4,0.7,0.6l0,0V55v-2.3h0.9V60h-0.9v-0.7l0,0c-0.2,0.3-0.4,0.5-0.7,0.6
		C276.2,60.1,275.9,60.2,275.5,60.2z M275.7,59.3c0.5,0,0.8-0.2,1.1-0.5c0.3-0.3,0.4-0.8,0.4-1.3s-0.1-0.9-0.4-1.3
		c-0.3-0.3-0.7-0.5-1.1-0.5s-0.8,0.2-1.1,0.5c-0.3,0.3-0.4,0.8-0.4,1.3s0.1,0.9,0.4,1.3C274.8,59.2,275.2,59.3,275.7,59.3z"/>
	<path class="st22" d="M288.4,55.1l-1.6,4.9h-0.9l-1.2-3.8l-1.2,3.8h-0.9l-1.6-4.9h1l1.1,3.7l0,0l1.2-3.7h0.9l1.2,3.7l0,0l1.1-3.7
		H288.4z"/>
	<path class="st22" d="M290.1,53.4c0,0.2-0.1,0.3-0.2,0.5c-0.1,0.1-0.3,0.2-0.5,0.2s-0.3-0.1-0.5-0.2c-0.1-0.1-0.2-0.3-0.2-0.5
		s0.1-0.3,0.2-0.5c0.1-0.1,0.3-0.2,0.5-0.2s0.3,0.1,0.5,0.2C290.1,53.1,290.1,53.2,290.1,53.4z M290,55.1V60h-1v-4.9H290z"/>
	<path class="st22" d="M291.2,55.1h0.9v0.7l0,0c0.1-0.2,0.4-0.4,0.6-0.6s0.6-0.2,0.9-0.2c0.6,0,1.1,0.2,1.4,0.5s0.5,0.8,0.5,1.5v3
		h-0.9v-3c0-0.8-0.4-1.2-1.2-1.2c-0.4,0-0.7,0.1-0.9,0.4c-0.2,0.3-0.4,0.7-0.4,1.1V60h-0.9V55.1z"/>
	<path class="st22" d="M303,60h-4v-7.2h0.9v6.3h3.1V60z"/>
	<path class="st22" d="M307,57.3h-3.2v-0.8h3.2V57.3z"/>
	<path class="st22" d="M310.3,60.2c-0.7,0-1.3-0.2-1.8-0.7s-0.7-1.1-0.7-1.9c0-0.8,0.2-1.4,0.7-1.9s1.1-0.7,1.8-0.7
		c0.5,0,0.9,0.1,1.3,0.4c0.4,0.3,0.7,0.6,0.8,1l-0.8,0.4c-0.3-0.6-0.7-0.9-1.4-0.9c-0.4,0-0.8,0.2-1.1,0.5c-0.3,0.3-0.5,0.8-0.5,1.3
		s0.1,0.9,0.5,1.3c0.3,0.3,0.7,0.5,1.1,0.5c0.7,0,1.1-0.3,1.4-0.9l0.8,0.3c-0.2,0.4-0.5,0.8-0.8,1S310.8,60.2,310.3,60.2z"/>
	<path class="st22" d="M313,57.5c0-0.8,0.2-1.4,0.7-1.9s1.1-0.7,1.8-0.7s1.3,0.2,1.8,0.7s0.7,1.1,0.7,1.9c0,0.8-0.2,1.4-0.7,1.9
		s-1.1,0.7-1.8,0.7s-1.3-0.2-1.8-0.7S313,58.3,313,57.5z M313.9,57.5c0,0.5,0.2,1,0.5,1.3s0.7,0.5,1.1,0.5c0.5,0,0.8-0.2,1.1-0.5
		s0.5-0.8,0.5-1.3s-0.2-0.9-0.5-1.3c-0.3-0.3-0.7-0.5-1.1-0.5s-0.8,0.2-1.1,0.5C314,56.6,313.9,57,313.9,57.5z"/>
	<path class="st22" d="M319.9,53.4c0,0.2-0.1,0.3-0.2,0.5c-0.1,0.1-0.3,0.2-0.5,0.2s-0.3-0.1-0.5-0.2c-0.1-0.1-0.2-0.3-0.2-0.5
		s0.1-0.3,0.2-0.5c0.1-0.1,0.3-0.2,0.5-0.2s0.3,0.1,0.5,0.2C319.9,53.1,319.9,53.2,319.9,53.4z M319.7,55.1V60h-0.9v-4.9H319.7z"/>
	<path class="st22" d="M320.9,55.1h0.9v0.7l0,0c0.1-0.2,0.4-0.4,0.6-0.6s0.6-0.2,0.9-0.2c0.6,0,1.1,0.2,1.4,0.5s0.5,0.8,0.5,1.5v3
		h-0.9v-3c0-0.8-0.4-1.2-1.2-1.2c-0.4,0-0.7,0.1-0.9,0.4c-0.2,0.3-0.4,0.7-0.4,1.1V60h-0.9V55.1z"/>
	<path class="st22" d="M330.1,58.6c0,0.4-0.2,0.8-0.6,1.1s-0.8,0.4-1.4,0.4c-0.5,0-0.9-0.1-1.3-0.4c-0.4-0.3-0.6-0.6-0.8-1l0.8-0.3
		c0.1,0.3,0.3,0.5,0.5,0.7s0.5,0.2,0.8,0.2s0.5-0.1,0.7-0.2c0.2-0.1,0.3-0.3,0.3-0.5c0-0.3-0.2-0.5-0.7-0.7l-0.8-0.2
		c-1-0.2-1.4-0.7-1.4-1.4c0-0.4,0.2-0.8,0.5-1.1c0.4-0.3,0.8-0.4,1.4-0.4c0.4,0,0.8,0.1,1.2,0.3c0.4,0.2,0.6,0.5,0.7,0.8l-0.8,0.3
		c-0.1-0.2-0.2-0.4-0.5-0.5c-0.2-0.1-0.4-0.2-0.7-0.2c-0.2,0-0.5,0.1-0.6,0.2c-0.2,0.1-0.3,0.3-0.3,0.4c0,0.3,0.3,0.5,0.8,0.6
		l0.7,0.2C329.6,57.4,330.1,57.9,330.1,58.6z"/>
	<path class="st22" d="M331.2,61.1l-0.4-0.3l0.5-0.8c-0.1,0-0.3-0.1-0.4-0.2s-0.1-0.3-0.1-0.4c0-0.2,0.1-0.4,0.2-0.5
		s0.3-0.2,0.5-0.2s0.4,0.1,0.5,0.2c0.1,0.1,0.2,0.3,0.2,0.5s-0.1,0.4-0.2,0.6L331.2,61.1z"/>
	<path class="st22" d="M337.4,52.8c0.3,0,0.6,0.1,0.8,0.2l-0.3,0.8c-0.2-0.1-0.3-0.1-0.5-0.1s-0.4,0.1-0.6,0.2
		c-0.1,0.2-0.2,0.4-0.2,0.6v0.6h1.3v0.8h-1.3V60h-0.9v-4.1h-0.9v-0.8h0.9v-0.7c0-0.5,0.2-0.9,0.5-1.2S337,52.8,337.4,52.8z"/>
	<path class="st22" d="M343.1,60h-0.9v-0.7l0,0c-0.1,0.2-0.4,0.4-0.6,0.6s-0.6,0.2-0.9,0.2c-0.6,0-1.1-0.2-1.4-0.5s-0.5-0.8-0.5-1.5
		V55h0.9v3c0,0.8,0.4,1.2,1.2,1.2c0.4,0,0.7-0.1,0.9-0.4c0.2-0.3,0.4-0.7,0.4-1.1V55h0.9V60z"/>
	<path class="st22" d="M344.2,55.1h0.9v0.7l0,0c0.1-0.2,0.4-0.4,0.6-0.6s0.6-0.2,0.9-0.2c0.6,0,1.1,0.2,1.4,0.5s0.5,0.8,0.5,1.5v3
		h-0.9v-3c0-0.8-0.4-1.2-1.2-1.2c-0.4,0-0.7,0.1-0.9,0.4c-0.2,0.3-0.4,0.7-0.4,1.1V60h-0.9V55.1z"/>
	<path class="st22" d="M353.7,60.1c-0.4,0-0.7-0.1-1-0.4c-0.3-0.2-0.4-0.6-0.4-1V56h-0.9v-0.8h0.9v-1.5h0.9v1.5h1.2V56h-1.2v2.4
		c0,0.3,0.1,0.5,0.2,0.7c0.1,0.1,0.3,0.2,0.4,0.2s0.1,0,0.2,0s0.1,0,0.2-0.1l0.3,0.8C354.3,60,354.1,60.1,353.7,60.1z"/>
	<path class="st22" d="M356.6,53.4c0,0.2-0.1,0.3-0.2,0.5c-0.1,0.1-0.3,0.2-0.5,0.2s-0.3-0.1-0.5-0.2c-0.1-0.1-0.2-0.3-0.2-0.5
		s0.1-0.3,0.2-0.5c0.1-0.1,0.3-0.2,0.5-0.2s0.3,0.1,0.5,0.2C356.5,53.1,356.6,53.2,356.6,53.4z M356.4,55.1V60h-0.9v-4.9H356.4z"/>
	<path class="st22" d="M358.5,60h-0.9v-4.9h0.9v0.7l0,0c0.1-0.2,0.4-0.4,0.6-0.6s0.6-0.2,0.9-0.2c0.4,0,0.7,0.1,1,0.3
		s0.5,0.4,0.6,0.7c0.4-0.6,1-0.9,1.7-0.9c0.6,0,1,0.2,1.3,0.5s0.5,0.8,0.5,1.5V60h-0.9v-2.9c0-0.5-0.1-0.8-0.3-1
		c-0.2-0.2-0.4-0.3-0.8-0.3s-0.7,0.1-0.9,0.5c-0.2,0.3-0.4,0.7-0.4,1.1V60h-0.9v-2.9c0-0.5-0.1-0.8-0.3-1c-0.2-0.2-0.4-0.3-0.8-0.3
		s-0.7,0.1-0.9,0.5c-0.2,0.3-0.4,0.7-0.4,1.1L358.5,60L358.5,60z"/>
	<path class="st22" d="M368.3,60.2c-0.7,0-1.3-0.2-1.8-0.7s-0.7-1.1-0.7-1.9c0-0.7,0.2-1.4,0.7-1.9s1-0.7,1.7-0.7s1.3,0.2,1.7,0.7
		c0.4,0.5,0.6,1.1,0.6,2v0.1h-3.9c0,0.5,0.2,0.9,0.5,1.2s0.7,0.4,1.1,0.4c0.6,0,1-0.3,1.4-0.9l0.8,0.4c-0.2,0.4-0.5,0.7-0.9,1
		C369.3,60,368.8,60.2,368.3,60.2z M366.8,57h2.8c0-0.3-0.2-0.6-0.4-0.8s-0.6-0.3-1-0.3c-0.3,0-0.6,0.1-0.9,0.3
		C367.1,56.3,366.9,56.6,366.8,57z"/>
	<path class="st22" d="M375.3,58.6c0,0.4-0.2,0.8-0.6,1.1s-0.8,0.4-1.4,0.4c-0.5,0-0.9-0.1-1.3-0.4c-0.4-0.3-0.6-0.6-0.8-1l0.8-0.3
		c0.1,0.3,0.3,0.5,0.5,0.7s0.5,0.2,0.8,0.2s0.5-0.1,0.7-0.2c0.2-0.1,0.3-0.3,0.3-0.5c0-0.3-0.2-0.5-0.7-0.7l-0.8-0.2
		c-1-0.2-1.4-0.7-1.4-1.4c0-0.4,0.2-0.8,0.5-1.1c0.4-0.3,0.8-0.4,1.4-0.4c0.4,0,0.8,0.1,1.2,0.3c0.3,0.2,0.6,0.5,0.7,0.8l-0.8,0.3
		c-0.1-0.2-0.2-0.4-0.5-0.5c-0.2-0.1-0.4-0.2-0.7-0.2c-0.2,0-0.5,0.1-0.6,0.2c-0.2,0.1-0.3,0.3-0.3,0.4c0,0.3,0.3,0.5,0.8,0.6
		l0.7,0.2C374.8,57.4,375.3,57.9,375.3,58.6z"/>
	<path class="st22" d="M380.9,60.2c-0.4,0-0.7-0.1-1-0.2s-0.5-0.4-0.7-0.6l0,0V60h-0.9v-7.2h0.9v2.3v0.7l0,0
		c0.2-0.3,0.4-0.5,0.7-0.6s0.6-0.2,1-0.2c0.6,0,1.2,0.3,1.6,0.8c0.5,0.5,0.7,1.1,0.7,1.8s-0.2,1.3-0.7,1.9
		C382.1,59.9,381.5,60.2,380.9,60.2z M380.7,59.3c0.4,0,0.8-0.2,1.1-0.5c0.3-0.3,0.4-0.8,0.4-1.3s-0.1-0.9-0.4-1.3
		c-0.3-0.3-0.7-0.5-1.1-0.5s-0.8,0.2-1.1,0.5c-0.3,0.3-0.4,0.8-0.4,1.3s0.1,0.9,0.4,1.3C379.9,59.2,380.3,59.3,380.7,59.3z"/>
	<path class="st22" d="M386.2,60.2c-0.7,0-1.3-0.2-1.8-0.7s-0.7-1.1-0.7-1.9c0-0.7,0.2-1.4,0.7-1.9s1-0.7,1.7-0.7s1.3,0.2,1.7,0.7
		c0.4,0.5,0.6,1.1,0.6,2v0.1h-3.9c0,0.5,0.2,0.9,0.5,1.2s0.7,0.4,1.1,0.4c0.6,0,1-0.3,1.4-0.9l0.8,0.4c-0.2,0.4-0.5,0.7-0.9,1
		C387.2,60,386.7,60.2,386.2,60.2z M384.8,57h2.8c0-0.3-0.2-0.6-0.4-0.8s-0.6-0.3-1-0.3c-0.3,0-0.6,0.1-0.9,0.3
		C385,56.3,384.8,56.6,384.8,57z"/>
	<path class="st22" d="M391.6,62.3c-0.3,0-0.5,0-0.8-0.1s-0.5-0.2-0.7-0.3s-0.4-0.3-0.5-0.5s-0.2-0.4-0.3-0.6l0.9-0.4
		c0.1,0.3,0.3,0.5,0.5,0.7s0.5,0.3,0.9,0.3c0.5,0,0.9-0.2,1.2-0.5c0.3-0.3,0.4-0.7,0.4-1.2v-0.5l0,0c-0.2,0.3-0.4,0.5-0.7,0.6
		c-0.3,0.2-0.6,0.2-1,0.2c-0.6,0-1.2-0.3-1.7-0.8s-0.7-1.1-0.7-1.9s0.2-1.3,0.7-1.8s1-0.8,1.7-0.8c0.3,0,0.7,0.1,1,0.2
		c0.3,0.2,0.5,0.4,0.7,0.6l0,0v-0.7h0.9v4.7c0,0.8-0.2,1.4-0.7,1.8C393,62.1,392.4,62.3,391.6,62.3z M391.6,59.3
		c0.5,0,0.8-0.2,1.1-0.5c0.3-0.3,0.5-0.8,0.5-1.3s-0.2-0.9-0.5-1.3c-0.3-0.3-0.7-0.5-1.1-0.5s-0.8,0.2-1.1,0.5
		c-0.3,0.3-0.5,0.8-0.5,1.3s0.1,0.9,0.5,1.3C390.8,59.2,391.2,59.3,391.6,59.3z"/>
	<path class="st22" d="M396.4,53.4c0,0.2-0.1,0.3-0.2,0.5c-0.1,0.1-0.3,0.2-0.5,0.2s-0.3-0.1-0.5-0.2c-0.1-0.1-0.2-0.3-0.2-0.5
		s0.1-0.3,0.2-0.5c0.1-0.1,0.3-0.2,0.5-0.2s0.3,0.1,0.5,0.2C396.3,53.1,396.4,53.2,396.4,53.4z M396.2,55.1V60h-0.9v-4.9H396.2z"/>
	<path class="st22" d="M397.4,55.1h0.9v0.7l0,0c0.1-0.2,0.4-0.4,0.6-0.6s0.6-0.2,0.9-0.2c0.6,0,1.1,0.2,1.4,0.5s0.5,0.8,0.5,1.5v3
		h-0.9v-3c0-0.8-0.4-1.2-1.2-1.2c-0.4,0-0.7,0.1-0.9,0.4c-0.2,0.3-0.4,0.7-0.4,1.1V60h-0.9V55.1z"/>
	<path class="st22" d="M406.5,58.6c0,0.4-0.2,0.8-0.6,1.1s-0.8,0.4-1.4,0.4c-0.5,0-0.9-0.1-1.3-0.4c-0.4-0.3-0.6-0.6-0.8-1l0.8-0.3
		c0.1,0.3,0.3,0.5,0.5,0.7s0.5,0.2,0.8,0.2s0.5-0.1,0.7-0.2c0.2-0.1,0.3-0.3,0.3-0.5c0-0.3-0.2-0.5-0.7-0.7l-0.8-0.2
		c-1-0.2-1.4-0.7-1.4-1.4c0-0.4,0.2-0.8,0.5-1.1c0.4-0.3,0.8-0.4,1.4-0.4c0.4,0,0.8,0.1,1.2,0.3c0.3,0.2,0.6,0.5,0.7,0.8l-0.8,0.3
		c-0.1-0.2-0.2-0.4-0.5-0.5c-0.2-0.1-0.4-0.2-0.7-0.2c-0.2,0-0.5,0.1-0.6,0.2c-0.2,0.1-0.3,0.3-0.3,0.4c0,0.3,0.3,0.5,0.8,0.6
		l0.7,0.2C406,57.4,406.5,57.9,406.5,58.6z"/>
</g>
</svg>
