<?xml version="1.0" encoding="utf-8"?>
<!-- Generator: Adobe Illustrator 21.0.0, SVG Export Plug-In . SVG Version: 6.00 Build 0)  -->
<svg version="1.1" id="Layer_1" xmlns="http://www.w3.org/2000/svg" xmlns:xlink="http://www.w3.org/1999/xlink" x="0px" y="0px"
	 viewBox="0 0 388 388" style="enable-background:new 0 0 388 388;" xml:space="preserve">
<style type="text/css">
	.st0{fill:#CFD6E5;}
	.st1{fill:#EBF5FC;}
	.st2{fill:#A3AAB7;}
	.st3{fill:#647DBE;}
	.st4{fill:#B6BDCE;}
	.st5{fill:#B8D2E0;}
	.st6{fill:#A59B97;}
	.st7{fill:#525356;}
	.st8{fill:#93B9D8;}
	.st9{fill:#D7E6F0;}
	.st10{fill:#7C7776;}
	.st11{fill:#AAA6A0;}
	.st12{fill:none;stroke:#FFFFFF;stroke-width:11;stroke-linecap:round;stroke-miterlimit:10;}
	.st13{fill:none;}
	.st14{fill:#DBD5D1;}
	.st15{font-family:'Impact';}
	.st16{font-size:18px;}
	.st17{letter-spacing:6;}
</style>
<g>
	<path class="st0" d="M264.2,221c0-3.3,2.7-6,6-6h15.4l4.2-4.2c2.3-2.3,6.1-2.3,8.4,0c2.3,2.3,2.3,6.1,0,8.4l-6,6
		c-1.1,1.1-2.6,1.7-4.2,1.7h-17.9C266.9,227,264.2,224.3,264.2,221z"/>
</g>
<g>
	<path class="st0" d="M258.3,244.9v-35.8c0-3.3-2.7-6-6-6h-23.9v47.7h23.9C255.6,250.8,258.3,248.2,258.3,244.9z"/>
</g>
<g>
	<path class="st1" d="M270.2,227v11.9H306c1.6,0,3.1-0.6,4.2-1.7l11.9-11.9c2.3-2.3,2.3-6.1,0-8.4c-2.3-2.3-6.1-2.3-8.4,0L303.5,227
		h-9.5c0-3.3-2.7-6-6-6h-11.9C272.9,221,270.2,223.7,270.2,227z"/>
</g>
<g>
	<path class="st2" d="M133,227l-1.9-2.9c-6.5-9.8-10-21.3-10-33.1v-47.5h83.5c13.2,0,23.9,10.7,23.9,23.9v77.5H133V227z"/>
</g>
<g>
	<path class="st0" d="M97.3,48.1v35.8h23.9c6.6,0,11.9-5.3,11.9-11.9h3c4.9,0,8.9-4,8.9-8.9c0-1.6-1.3-3-3-3H133V48.1H97.3z"/>
</g>
<g>
	<path class="st3" d="M121.1,95.8H97.3V83.8h23.9V95.8z"/>
</g>
<g>
	<path class="st1" d="M97.3,48.1v35.8c6.6,0,11.9-5.3,11.9-11.9V48.1H133c3.3,0,6-2.7,6-6s-2.7-6-6-6h-23.9
		C102.6,36.1,97.3,41.5,97.3,48.1z"/>
</g>
<g>
	<path class="st1" d="M85.3,101.7v65.6c0,13.2,10.7,23.9,23.9,23.9H133c13.2,0,23.9-10.7,23.9-23.9s-10.7-23.9-23.9-23.9v-41.7
		c0-3.3-2.7-6-6-6H91.3C88,95.8,85.3,98.4,85.3,101.7z"/>
</g>
<g>
	<path class="st1" d="M234.4,167.3h-17.9c-3.3,0-6,2.7-6,6v29.8c0,6.6,5.3,11.9,11.9,11.9h6c6.6,0,11.9-5.3,11.9-11.9v-29.8
		C240.4,170,237.7,167.3,234.4,167.3z"/>
</g>
<g>
	<path class="st1" d="M192.7,167.3h-17.9c-3.3,0-6,2.7-6,6v29.8c0,6.6,5.3,11.9,11.9,11.9h6c6.6,0,11.9-5.3,11.9-11.9v-29.8
		C198.6,170,196,167.3,192.7,167.3z"/>
</g>
<g>
	<path class="st4" d="M228.5,143.5V77.9c0-9.9-8-17.9-17.9-17.9h-29.8c-9.9,0-17.9,8-17.9,17.9v65.6c0,6.6,5.3,11.9,11.9,11.9h41.7
		C223.1,155.4,228.5,150.1,228.5,143.5z"/>
</g>
<g>
	<path class="st1" d="M180.8,143.5V77.9c0-9.9,8-17.9,17.9-17.9h11.9c9.9,0,17.9,8,17.9,17.9v65.6c0,6.6-5.3,11.9-11.9,11.9h-23.9
		C186.1,155.4,180.8,150.1,180.8,143.5z"/>
</g>
<g>
	<path class="st5" d="M121.1,95.8H97.3V83.8h23.9V95.8z"/>
</g>
<g>
	<path class="st6" d="M228.5,268.7H133v-23.9h95.4V268.7z"/>
</g>
<g>
	<path class="st5" d="M270.2,238.9h-11.9V215h11.9V238.9z"/>
</g>
<g>
	<path class="st7" d="M198.6,155.4v11.9c0,6.6,5.3,11.9,11.9,11.9h6c3.3,0,6-2.7,6-6c0-3.3-2.7-6-6-6v-11.9H198.6z"/>
</g>
<g>
	<path class="st8" d="M234.4,95.8V77.9c0-9.9-8-17.9-17.9-17.9h-23.9v6c0,19.8,16,35.8,35.8,35.8C231.8,101.7,234.4,99.1,234.4,95.8
		z"/>
</g>
<g>
	<path class="st9" d="M156.9,101.7c-3.3,0-6-2.7-6-6V83.8c0-13.2,10.7-23.9,23.9-23.9h41.7v6c0,19.8-16,35.8-35.8,35.8H156.9z"/>
</g>
<g>
	<path class="st1" d="M156.9,107.7V89.8h11.9c6.6,0,11.9,5.3,11.9,11.9v17.9h-11.9C162.2,119.6,156.9,114.3,156.9,107.7z"/>
</g>
<g>
	<path class="st5" d="M198.6,86.8V57c0-4.9,4-8.9,8.9-8.9c4.9,0,8.9,4,8.9,8.9v29.8c0,4.9-4,8.9-8.9,8.9
		C202.7,95.8,198.6,91.8,198.6,86.8z"/>
</g>
<g>
	<circle class="st10" cx="207.6" cy="86.8" r="8.9"/>
</g>
<g>
	<path class="st2" d="M228.5,268.7H133c0,13.2-10.7,23.9-23.9,23.9c-0.2,0-0.5,0-0.7,0c-12.8,0-23.1,10.4-23.1,23.4v1.2
		c0,12.8,10.4,23.1,23.1,23.1l36.5,0c6.6,0,11.9,5.3,11.9,11.9s5.3,11.9,11.9,11.9h47.7v-11.9c0-13.2-10.7-23.9-23.9-23.9
		c-6.6,0-11.9-5.3-11.9-11.9s5.3-11.9,11.9-11.9C212.4,304.5,228.5,288.5,228.5,268.7L228.5,268.7z"/>
</g>
<path class="st11" d="M298.7,183.3L298.7,183.3c-19.8,0-35.8-16-35.8-35.8v0c0-19.8,16-35.8,35.8-35.8h0c19.8,0,35.8,16,35.8,35.8v0
	C334.5,167.2,318.5,183.3,298.7,183.3z"/>
<line class="st12" x1="299.7" y1="147" x2="299.7" y2="164.7"/>
<line class="st12" x1="299.7" y1="132.6" x2="299.7" y2="132.6"/>
<rect x="155.7" y="249" class="st13" width="78.7" height="18"/>
<text transform="matrix(1 0 0 1 155.6665 263.2373)"><tspan x="0" y="0" class="st14 st15 st16 st17">LUCI</tspan><tspan x="56.7" y="0" class="st15 st16 st17"> </tspan></text>
</svg>
