<?xml version="1.0" encoding="utf-8"?>
<!-- Generator: Adobe Illustrator 21.0.0, SVG Export Plug-In . SVG Version: 6.00 Build 0)  -->
<svg version="1.1" id="Layer_1" xmlns="http://www.w3.org/2000/svg" xmlns:xlink="http://www.w3.org/1999/xlink" x="0px" y="0px"
	 viewBox="0 0 512 512" style="enable-background:new 0 0 512 512;" xml:space="preserve">
<style type="text/css">
	.st0{fill:#CD2900;}
	.st1{fill:#FFCE00;}
	.st2{fill:#40A459;}
	.st3{fill:#1D81CE;}
	.st4{fill:none;}
</style>
<path id="SVGCleanerId_1" class="st0" d="M364.2,179.7c-25.2-36-64.9-56.7-108.9-56.7c-36.3,0-70.2,14.4-95.6,40.6l-5.8,6
	l-51.5-44.2l6.4-6.8c18.6-19.8,40.6-35.5,65.4-46.5c25.6-11.4,52.9-17.1,81.2-17.1c33.2,0,65.9,8.1,94.8,23.5
	c28.8,15.4,53.7,38,72.1,65.5l2.4,3.5c1.6,2.3,0.8,5.5-1.6,6.9l-50.1,29.5c-2.2,1.3-5,0.7-6.5-1.4L364.2,179.7z"/>
<path id="SVGCleanerId_2" class="st1" d="M80,354.1c-16.8-29.8-25.6-63.8-25.6-98.1c0-45.5,14.9-88.4,43-124.1l5.7-7.3l51.5,44.2
	l-5.1,6.7c-17.8,23.3-27.2,51.2-27.2,80.5c0,22,5.5,43.8,16,63.1l4,7.4l-57.7,35.7L80,354.1z"/>
<path id="SVGCleanerId_3" class="st2" d="M255.3,456.9c-66.4,0-128.5-32.9-166.1-88l-5.2-7.7l57.7-35.7l4.8,6.9
	c25,35.4,65.6,56.6,108.8,56.6c35.8,0,70.7-14.8,95.8-40.7l5.8-6l51.4,44.1l-6.4,6.8c-18.6,19.9-40.6,35.6-65.4,46.6
	C310.9,451.1,283.5,456.9,255.3,456.9z"/>
<path class="st3" d="M356.1,343.1l5.1-6.7c8.2-10.8,14.6-22.6,19.2-35.3l-98.6,0c-2.7,0-4.9-2.2-4.9-4.9v-58.1
	c0-2.7,2.2-4.9,4.9-4.9h173.7l0.6,22.9c0,45.3-14.8,88.1-42.9,123.8l-5.7,7.3L356.1,343.1z"/>
<path class="st4" d="M464,255.8l-0.6-22.3c-0.1-4.5-3.8-8.1-8.3-8.1H277.5c-4.6,0-8.3,3.7-8.3,8.3v66.8c0,4.6,3.7,8.3,8.3,8.3
	l91.3,0c-20.4,43.7-64.6,72.3-113.5,72.3C186.2,381.2,130,325,130,256s56.2-125.2,125.2-125.2c43.7,0,83.5,22.2,106.5,59.4
	c2.4,3.9,7.4,5.1,11.3,2.8l57.5-33.9c1.9-1.1,3.3-3,3.9-5.2c0.5-2.2,0.2-4.5-1-6.4c-18.3-30-44.1-55.1-74.6-72.6
	c-31.4-18-67.3-27.6-103.8-27.6C140.2,47.3,46.6,140.9,46.6,256s93.6,208.7,208.7,208.7S464,371.1,464,256
	C464,255.9,464,255.9,464,255.8z M255.3,64C320,64,379,95.6,414.8,149.1l-43.3,25.5c-26.6-38-69.5-60.5-116.2-60.5
	c-40,0-76.2,16.6-102,43.3l-38-32.6C150.3,87.4,200.1,64,255.3,64z M104.4,137.4l38.1,32.6c-18.2,23.9-29.1,53.7-29.1,85.9
	c0,24.4,6.2,47.3,17,67.4l-42.6,26.4C72.2,322,63.3,290,63.3,256C63.3,211.3,78.6,170.1,104.4,137.4z M255.3,448
	c-65.9,0-124.1-33.4-158.7-84.1l42.7-26.4c25.7,36.5,68.2,60.4,116.1,60.4c39.3,0,75.9-16.3,102.2-43.4l38,32.6
	C360.4,424.5,310.5,448,255.3,448z M406.3,374.4l-38-32.6c8.7-11.5,15.8-24.4,20.8-38.5c0.9-2.6,0.5-5.4-1.1-7.6
	c-1.6-2.2-4.1-3.5-6.8-3.5l-95.4,0v-50.1h161l0.4,14C447.2,300.7,431.9,341.8,406.3,374.4z"/>
<g>
	<path id="SVGCleanerId_1_1_" class="st0" d="M364.2,179.7c-25.2-36-64.9-56.7-108.9-56.7c-36.3,0-70.2,14.4-95.6,40.6l-5.8,6
		l-51.5-44.2l6.4-6.8c18.6-19.8,40.6-35.5,65.4-46.5c25.6-11.4,52.9-17.1,81.2-17.1c33.2,0,65.9,8.1,94.8,23.5
		c28.8,15.4,53.7,38,72.1,65.5l2.4,3.5c1.6,2.3,0.8,5.5-1.6,6.9l-50.1,29.5c-2.2,1.3-5,0.7-6.5-1.4L364.2,179.7z"/>
</g>
<g>
	<path id="SVGCleanerId_2_1_" class="st1" d="M80,354.1c-16.8-29.8-25.6-63.8-25.6-98.1c0-45.5,14.9-88.4,43-124.1l5.7-7.3
		l51.5,44.2l-5.1,6.7c-17.8,23.3-27.2,51.2-27.2,80.5c0,22,5.5,43.8,16,63.1l4,7.4l-57.7,35.7L80,354.1z"/>
</g>
<g>
	<path id="SVGCleanerId_3_1_" class="st2" d="M255.3,456.9c-66.4,0-128.5-32.9-166.1-88l-5.2-7.7l57.7-35.7l4.8,6.9
		c25,35.4,65.6,56.6,108.8,56.6c35.8,0,70.7-14.8,95.8-40.7l5.8-6l51.4,44.1l-6.4,6.8c-18.6,19.9-40.6,35.6-65.4,46.6
		C310.9,451.1,283.5,456.9,255.3,456.9z"/>
</g>
<path class="st3" d="M356.1,343.1l5.1-6.7c8.2-10.8,14.6-22.6,19.2-35.3l-98.6,0c-2.7,0-4.9-2.2-4.9-4.9v-58.1
	c0-2.7,2.2-4.9,4.9-4.9h169.5c2.3,0,4.2,1.9,4.3,4.2l0.5,18.7c0,45.3-14.8,88.1-42.9,123.8l-5.7,7.3L356.1,343.1z"/>
</svg>
