<?xml version="1.0" encoding="utf-8"?>
<!-- Generator: Adobe Illustrator 21.0.0, SVG Export Plug-In . SVG Version: 6.00 Build 0)  -->
<svg version="1.1" xmlns="http://www.w3.org/2000/svg" xmlns:xlink="http://www.w3.org/1999/xlink" x="0px" y="0px"
	 viewBox="0 0 612 792" style="enable-background:new 0 0 612 792;" xml:space="preserve">
<style type="text/css">
	.st0{fill:url(#SVGID_1_);}
	.st1{fill:url(#SVGID_2_);}
	.st2{fill:#2D2D2D;}
	.st3{fill:#333333;}
	.st4{font-family:'Impact';}
	.st5{font-size:90px;}
</style>
<g id="Layer_2">
	<radialGradient id="SVGID_1_" cx="538.125" cy="428.795" r="0.8785" gradientUnits="userSpaceOnUse">
		<stop  offset="0.1154" style="stop-color:#FFFFFF"/>
		<stop  offset="0.4776" style="stop-color:#FAFAFA"/>
		<stop  offset="0.7954" style="stop-color:#F0F0F1"/>
		<stop  offset="1" style="stop-color:#E6E7E8"/>
	</radialGradient>
	<path class="st0" d="M538,430c0-0.6,0.1-1.5,0.3-2.5C538.1,429.1,538,430,538,430z"/>
	<radialGradient id="SVGID_2_" cx="304.305" cy="300.9321" r="256.3008" gradientUnits="userSpaceOnUse">
		<stop  offset="0.1154" style="stop-color:#FFFFFF"/>
		<stop  offset="0.4776" style="stop-color:#FAFAFA"/>
		<stop  offset="0.7954" style="stop-color:#F0F0F1"/>
		<stop  offset="1" style="stop-color:#E6E7E8"/>
	</radialGradient>
	<path class="st1" d="M514.4,222.5c2.8,3.2,8,9.5,13.8,19c4.1,5.4,9.7,13.8,14.2,23.5c8,17.3,10.2,13.3,13.7,16.4
		c0,0-2.2-0.4-6.6-1.8c0,0,4,6.2,4,10.7c0,4.4,6.6,15.1,6.6,15.1s-4.1-1-7-4.1c1.8,4.2,3.9,10.3,3.9,15.2c0,9.8,0.3,14.5,3.8,18.3
		l-2.4-0.6c0,0,2.1,7.4,3.5,14.5c0,0-3.5-5-4.4-6.2c0,0,0.3,5.6,0.6,14.8c0.3,9.2-4.4,25.7-4.4,31.9c0,0-0.4-4.2-0.6-8.5
		c-0.6,4.4-1.8,9.5-3.6,12.9c-0.6,1.1-1.3,2.6-2,4.3c-1.4,4-2.8,8-4.5,12c-2.3,6.7-4.2,13.5-4.9,17.6c0.2-2.2,0.6-5.5,0.9-8.6
		c-5.4,11.3-12,22.2-20,32.6c-0.9,10.4,9.5,12.4,9.5,12.4c-3.3,3.3-10.6,0.4-11.2,0.2c11.2,6.6,13.4,24.1,13.5,24.9
		c-0.3-0.5-4.7-7.6-7.2-12.4c-2.5-4.7-7.1-6.5-7.4-6.6c4,4.1,5.6,14.5,5.7,15.2c-0.8-2.8-7.4-8.2-8.2-8.9c0.8,0.8,7.5,7.5,7.3,25.6
		c0,1.2,0,2.3,0,3.5v0.1c0,1.9-1,3.7-2.7,4.6c4.6-18.4-37.5,15.8-57.6,19.1l-122.8,20c-29.9,4.9-62.5-2.6-102.2-8.8l-63-11.1
		c-35.8-8.2-95.5-45.2-114.5-76.7l-16.7-27.6c4.1-15.7,10.2-21.5,13.3-28.7c0.3-0.8-5.7,4.4-5.2,3.8c2.6-3.1,4.3-5.6,6.1-8.6
		c1.4-2.4,1.8-8.1,2.8-10.9c-0.1-0.7-0.2-1.1-0.2-1.1c-1.1,7.7-6.5,10.8-7.8,11.5c3.1-1.8,4.9-6.7,4.9-17.6c0-10,2-15,2.5-16
		c-1.8,3.5-4.1,5.7-4.4,5.9c2.9-3.3,3.8-9.9,4-15.3c-0.6-4-1-8.2-0.7-12.6c0.6-10.6,1.5-14.5,1.5-14.5l-3.9,4.1
		c4.7-9.8,5.6-20.1,3.5-16.3c-2.1,3.8-4.7,9.5-4.7,9.5c0-2.4,0-8,3.5-14.8c3.4-6.6,5.5-11.2,5.6-11.5c-4.7,5.6-9.1,4.7-9.1,4.7
		c7.1-1.8,11.8-16,14.2-20.1c1.8-3.1,7.9-13.9,10.8-19.1c9.1-18.5,18.5-30.3,22.6-35c-0.7-4.9-3.5-11.7-12.5-16.5
		c-16.3-8.7-39.9-7.5-39.9-7.5c12-12.1,30-17.1,47.9-18.4c-2.4-7.3-12.7-17.4-16.9-19.8c-4.8-2.8-6.7-5.7,0.4-4.8
		c14.2,1.9,25.4,1.8,31,1.5c-13.5-11.4-23.8-25.3-26.4-42.3c-6.1-39.8,25.3-59.3,25.6-59.4l7.8-4.3l-4.1,7.8
		c-0.1,0.1-5.9,14.9,4,36.4c12.6,27.2,32.7,28.2,57.2,31c11.3,1.3,23.7,2.9,35.4,7l-0.1-0.1c0.4-0.2,37.9-20.2,94.4-20.2
		c28.8,0,62.5,5.3,98.5,21c12.2-4.5,25.2-6.3,37-7.6c24.5-2.8,44.6-3.8,57.2-31c9.9-21.4,4-36.3,4-36.4l-4.1-7.8l7.8,4.3
		c0.3,0.2,31.7,19.6,25.6,59.4c-2.6,17-12.9,31-26.4,42.3c5.6,0.3,16.8,0.4,31-1.5c7.1-1,5.2,2,0.4,4.8
		c-4.2,2.4-14.5,12.6-16.9,19.8c17.8,1.3,35.9,6.2,47.9,18.4c0,0-23.6-1.2-39.9,7.5C517.9,210.9,515.1,217.7,514.4,222.5z"/>
	<path class="st2" d="M218.8,269.1c-12.7,0-22.9,9.6-22.9,21.4s10.3,21.4,22.9,21.4c12.6,0,22.9-9.6,22.9-21.4
		S231.5,269.1,218.8,269.1z M224.7,275.5c4.5,0,8.2,3.3,8.2,7.4c0,4.1-3.7,7.4-8.2,7.4s-8.1-3.3-8.1-7.4
		C216.6,278.9,220.2,275.5,224.7,275.5z M220.5,308.1c-12,0.7-18.4-10.9-18.8-11.7c0.5,0.6,5.9,7.1,18.4,6.7
		c9.9-0.4,16.7-7.5,16.7-7.5S232.9,307.4,220.5,308.1z"/>
	<polygon class="st2" points="137.7,338.4 145.4,337.6 148.1,330.7 140,330.7 	"/>
	<polygon class="st2" points="165.5,350.7 157.5,352 156.4,359.9 163.9,358 	"/>
	<polygon class="st2" points="187.9,373.1 186.3,365.8 179.5,370.3 181.9,378 	"/>
	<polygon class="st2" points="143.8,303.8 136.5,300.6 131.2,306.6 138.6,309.1 	"/>
	<polygon class="st2" points="144.4,278.8 138,273.9 131.4,278.6 138,282.6 	"/>
	<polygon class="st2" points="150,250.7 142.3,252.9 147,258.9 154.3,257.5 	"/>
	<path class="st2" d="M207.8,390c6.4,1.6,4.6-14.2,4.6-20C212.4,369.9,201.6,388.4,207.8,390z"/>
	<path class="st2" d="M258,385.6c6.2-2.3-4.3-14.4-7.6-19.1C250.4,366.5,252.1,387.8,258,385.6z"/>
	<path class="st2" d="M236.3,394.2c8.4-1.1-1.2-19-3.9-25.8C232.4,368.4,228.3,395.3,236.3,394.2z"/>
	<path class="st2" d="M178.8,252.2c-0.2-0.2-0.3-0.3-0.5-0.5C177.6,251.2,177.9,251.5,178.8,252.2z"/>
	<path class="st2" d="M397.1,269.1c-12.6,0-22.9,9.6-22.9,21.4s10.3,21.4,22.9,21.4c12.7,0,22.9-9.6,22.9-21.4
		S409.7,269.1,397.1,269.1z M403.6,275.5c4.5,0,8.2,3.3,8.2,7.4c0,4.1-3.7,7.4-8.2,7.4s-8.1-3.3-8.1-7.4
		C395.5,278.9,399.1,275.5,403.6,275.5z M395.4,308.1c-12.4-0.7-16.3-12.4-16.3-12.4s6.7,7.1,16.7,7.5c12.5,0.4,18-6.1,18.4-6.7
		C413.8,297.2,407.4,308.8,395.4,308.1z"/>
	<path class="st2" d="M437.7,251.7c-0.2,0.2-0.4,0.3-0.5,0.5C438,251.5,438.3,251.2,437.7,251.7z"/>
	<path class="st2" d="M189.6,158.1c1.6,6.4-0.9,11.3,3.7,19.7c5.8,10.6,19.1,15.9,17,14.4c-2.1-1.6-6.4-10.1-7.4-15.9
		c-1.1-5.8,1.7-11.9-3.2-19.7c-8-12.8-22.9-14.4-22.9-14.4C178.9,142.1,187.8,151.1,189.6,158.1z"/>
	<path class="st2" d="M164.2,152.1c1.4,5-0.8,8.9,3.3,15.5c5.2,8.4,17,12.5,15.1,11.3c-1.9-1.3-5.7-7.9-6.6-12.5
		c-0.9-4.6,2.4-11.7-1.9-17.8c-7.1-10-21.3-8.9-21.3-8.9C154.8,139.6,162.7,146.7,164.2,152.1z"/>
	<path class="st2" d="M136.9,141c1.2,5.2-2,8.7,2.2,15.8c5.4,9,22.3,12.3,20.1,10.8c-2.2-1.5-9-6.1-9.6-10.8
		c-0.6-4.7,2.9-9.1-1.7-15.8c-7.5-11-23.5-14.1-23.5-14.1C126.8,127.2,135.6,135.4,136.9,141z"/>
	<path class="st2" d="M131.6,153.3c0,0-4.3-5.3-4.3-10.1c0-4.8-3.7-12.2-9-17.5c-5.3-5.3-14.9-9-17-27.6c-0.9-7.5-3.2,15.9,1.1,24.5
		C106.6,130.9,122.6,150.1,131.6,153.3z"/>
	<path class="st2" d="M214.5,186.2c1.1,4.3,6.9,12.2,15.9,14.9c0,0-2.1-8.5,2.7-14.4c4.8-5.8-6.9-25.5-23.9-30.8
		c0,0,4.8,6.4,4.8,13.3C214,176.1,213.5,182,214.5,186.2z"/>
	<path class="st2" d="M267.7,226.1c-1.6,4.3-1.1,15.9,6.9,22.3c0,0-1.6-7.4,1.1-11.7c2.7-4.3,0-15.9-10.6-22.3
		C265,214.4,269.3,221.8,267.7,226.1z"/>
	<path class="st2" d="M247.5,212.3c-1.6,3.7,4.8,13.8,13.8,19.7c0,0-1.1-8.5,0-11.7c1.1-3.2-1.1-11.7-14.9-15.4
		C246.4,204.8,249.1,208.6,247.5,212.3z"/>
	<path class="st2" d="M287.4,253.7c1.1-6.9-0.5-12.2-3.2-17l-2.1-4.3c0,0,0.5,8-1.1,11.2c-1.6,3.2-2.7,17,4.3,26
		C285.2,269.7,286.3,260.7,287.4,253.7z"/>
	<polygon class="st2" points="474.7,337.6 482.4,338.4 480.1,330.7 472,330.7 	"/>
	<polygon class="st2" points="463.7,359.9 462.5,352 454.5,350.7 456.2,358 	"/>
	<polygon class="st2" points="440.5,370.3 433.8,365.8 432.2,373.1 438.2,378 	"/>
	<polygon class="st2" points="471.8,303.8 477.1,309.1 484.4,306.6 479.2,300.6 	"/>
	<polygon class="st2" points="477.6,282.6 484.2,278.6 477.7,273.9 471.3,278.8 	"/>
	<polygon class="st2" points="473.4,252.9 465.6,250.7 461.3,257.5 468.6,258.9 	"/>
	<path class="st2" d="M412.3,390c6.2-1.5-4.6-20-4.6-20C407.7,375.7,405.8,391.6,412.3,390z"/>
	<path class="st2" d="M362.1,385.6c5.9,2.2,7.6-19.1,7.6-19.1C366.4,371.2,355.9,383.3,362.1,385.6z"/>
	<path class="st2" d="M383.8,394.2c8,1.1,3.9-25.8,3.9-25.8C385,375.2,375.4,393.1,383.8,394.2z"/>
	<path class="st2" d="M405.4,192.1c-2.1,1.6,11.2-3.7,17-14.4c4.6-8.4,2.1-13.3,3.7-19.7c1.7-6.9,10.6-15.9,12.8-15.9
		c0,0-14.9,1.6-22.9,14.4c-4.8,7.8-2.1,13.8-3.2,19.7C411.7,182,407.5,190.5,405.4,192.1z"/>
	<path class="st2" d="M439.6,166.3c-0.9,4.6-4.7,11.3-6.6,12.5c-1.9,1.3,9.9-2.9,15.1-11.3c4.1-6.6,1.9-10.4,3.3-15.5
		c1.5-5.4,9.5-12.5,11.4-12.5c0,0-14.2-1.1-21.3,8.9C437.2,154.6,440.5,161.7,439.6,166.3z"/>
	<path class="st2" d="M466,156.8c-0.6,4.7-7.4,9.3-9.6,10.8c-2.2,1.5,14.7-1.8,20.1-10.8c4.3-7.1,1.1-10.6,2.3-15.8
		c1.2-5.6,10.1-13.8,12.4-14.1c0,0-16,3.1-23.5,14.1C463.1,147.7,466.6,152.1,466,156.8z"/>
	<path class="st2" d="M484,153.3c9-3.2,25-22.3,29.2-30.8c4.3-8.5,1.9-31.9,1.1-24.5c-2.1,18.6-11.7,22.3-17,27.6
		c-5.3,5.3-9,12.8-9,17.5C488.3,148,484,153.3,484,153.3z"/>
	<path class="st2" d="M385.2,201.1c9-2.7,14.9-10.6,15.9-14.9c1.1-4.3,0.5-10.1,0.5-17c0-6.9,4.8-13.3,4.8-13.3
		c-17,5.3-28.7,25-23.9,30.8C387.3,192.6,385.2,201.1,385.2,201.1z"/>
	<path class="st2" d="M340,236.7c2.7,4.3,1.1,11.7,1.1,11.7c8-6.4,8.5-18.1,6.9-22.3c-1.6-4.3,2.7-11.7,2.7-11.7
		C340,220.8,337.3,232.5,340,236.7z"/>
	<path class="st2" d="M354.3,220.3c1.1,3.2,0,11.7,0,11.7c9-5.8,15.4-15.9,13.8-19.7c-1.6-3.7,1.1-7.4,1.1-7.4
		C355.4,208.6,353.3,217.1,354.3,220.3z"/>
	<path class="st2" d="M333.6,232.5l-2.1,4.3c-2.7,4.8-4.3,10.1-3.2,17c1.1,6.9,2.1,15.9,2.1,15.9c6.9-9,5.8-22.9,4.3-26
		C333.1,240.5,333.6,232.5,333.6,232.5z"/>
	<path class="st2" d="M535.9,557.9c0,0-0.5-0.4-1.3-1.2C535.1,557.3,535.5,557.7,535.9,557.9z"/>
	<path class="st2" d="M526.9,206.1c16.3-8.7,39.9-7.5,39.9-7.5c-12-12.1-30-17.1-47.9-18.4c2.4-7.3,12.7-17.4,16.9-19.8
		c4.8-2.8,6.7-5.7-0.4-4.8c-14.2,1.9-25.4,1.8-31,1.5c13.5-11.4,23.8-25.3,26.4-42.3c6.1-39.8-25.3-59.3-25.6-59.4l-7.8-4.3l4.1,7.8
		c0,0.1,5.9,14.9-4,36.4c-12.6,27.2-32.7,28.2-57.2,31c-11.8,1.3-24.9,3.1-37,7.6c-36-15.7-69.7-21-98.5-21c-56.5,0-94,20-94.4,20.2
		l0.1,0.1c-11.7-4.1-24.1-5.7-35.4-7c-24.5-2.8-44.6-3.8-57.2-31c-9.9-21.4-4-36.3-4-36.4l4.1-7.8l-7.8,4.3
		c-0.3,0.2-31.7,19.6-25.6,59.4c2.6,17,13,31,26.4,42.3c-5.6,0.3-16.8,0.4-31-1.5c-7.1-1-5.2,2-0.4,4.8c4.2,2.4,14.5,12.6,16.9,19.8
		c-17.9,1.3-35.9,6.2-47.9,18.4c0,0,23.6-1.2,39.9,7.5c9,4.8,11.8,11.6,12.5,16.5c-4.1,4.7-13.6,16.5-22.6,35
		c-2.9,5.2-9,16-10.8,19.1c-2.4,4.1-7.1,18.3-14.2,20.1c0,0,4.4,0.9,9.1-4.7c-0.1,0.3-2.2,4.9-5.6,11.5c-3.5,6.8-3.5,12.4-3.5,14.8
		c0,0,2.7-5.6,4.7-9.5c2.1-3.9,1.2,6.5-3.5,16.3l3.9-4.1c0,0-0.9,3.8-1.5,14.5c-0.3,4.4,0.1,8.6,0.7,12.6c-0.2,5.3-1.1,12-4,15.3
		c0.3-0.3,2.6-2.4,4.4-5.9c-0.5,1-2.5,5.9-2.5,16c0,11-1.8,15.9-4.9,17.6c1.3-0.7,6.7-3.8,7.8-11.5c0,0,0.1,0.4,0.2,1.1
		c-0.9,2.8-1.3,8.5-2.8,10.9c-1.8,3-3.5,5.5-6.1,8.6c-0.5,0.6,5.5-4.5,5.2-3.8c-3.1,7.2-9.2,13-13.3,28.7l16.7,27.6
		c19,31.4,78.7,68.5,114.5,76.7l63,11.1c39.7,6.2,72.3,13.7,102.2,8.8l122.8-20c20.1-3.3,62.2-37.5,57.6-19.1
		c1.7-0.9,2.7-2.7,2.7-4.6v-0.1c0-1.1,0-2.3,0-3.5c0.2-18.2-6.5-24.9-7.3-25.6c0.8,0.7,7.4,6.1,8.2,8.9c-0.1-0.7-1.7-11.1-5.7-15.2
		c0.3,0.1,4.9,1.8,7.4,6.6c2.5,4.8,6.9,11.9,7.2,12.4c-0.1-0.7-2.3-18.3-13.5-24.9c0.6,0.2,7.9,3,11.2-0.2c0,0-10.4-2-9.5-12.4
		c8-10.4,14.6-21.3,20-32.6c-0.3,3.1-0.7,6.4-0.9,8.6c0.7-4.1,2.7-10.9,4.9-17.6c1.6-4,3.1-7.9,4.5-12c0.7-1.7,1.4-3.2,2-4.3
		c1.8-3.3,3-8.5,3.6-12.9c0.2,4.3,0.6,8.5,0.6,8.5c0-6.2,4.7-22.8,4.4-31.9c-0.3-9.2-0.6-14.8-0.6-14.8c0.9,1.2,4.4,6.2,4.4,6.2
		c-1.5-7.1-3.5-14.5-3.5-14.5l2.4,0.6c-3.5-3.8-3.8-8.6-3.8-18.3c0-4.9-2.1-11-3.9-15.2c2.9,3,7,4.1,7,4.1s-6.6-10.6-6.6-15.1
		c0-4.4-4-10.7-4-10.7c4.4,1.3,6.6,1.8,6.6,1.8c-3.5-3.1-5.8,0.9-13.7-16.4c-4.5-9.7-10.1-18.1-14.2-23.5
		c-5.9-9.5-11.1-15.8-13.8-19C515.1,217.7,517.9,210.9,526.9,206.1z M395.6,145.2c1.7-1,3.4-2,5.1-2.8c0.4,0.2,1.7-0.8,1.7-0.8
		c12.4-5.7,25.8-7.2,38.8-8.7c23.9-2.7,48.6-5.6,62.4-35.5c6.3-13.8,6.7-24.4,5.7-31c7.4,6.7,18.5,21.3,14.7,46.6
		c-6.2,40.3-58.6,63.8-89.3,74.2c-26,8.8-108.1,43.4-103.1,126.7c-0.6-1.6-1.2-3.2-1.8-4.9l-0.3-1c-8.2-25.7-17.5-54.9,4.2-88.4
		c17.1-26.4,35.6-24.3,36.4-24.2l5,0.6l-2.3-4.5C372.4,190.4,361,166.6,395.6,145.2z M493.6,276.2c2.2,11.5-12,16-12,16
		s13.8,2.2,12.4,14.6c-1.3,12.4-16.9,14.6-16.9,14.6s13.9,9.3,8.4,19.1c-6.5,11.7-17.7,7.3-18.2,7.1c0.2,0.4,4.8,11.6-0.9,16.8
		c-5.8,5.3-14.6,5.8-18.2,2.2c0,0-0.4,12.4-8.9,17.7c-8.4,5.3-17.3-2.7-17.3-2.7s-1.3,11.1-13.3,13.8c-12,2.7-14.6-8-14.6-8
		s-3.1,13-14.6,11.5c-10.6-1.3-12.4-5.8-12.4-12c0,0-7.1,9.3-14.6,7.5c-6.7-1.6-11.7-8.5-9.8-17.2c3.4-4.2,5.1-6.7,5.3-8.8
		c0.8-8.6-1.6-17.6-5.5-25.8c12.8,13.9,31.5,21.8,58.9,21.1c1.2,0,2.4,0,3.6-0.1c32.7-1.3,49.3-28.5,50-29.4l-0.4-0.3
		c-0.1,0.2-15.7,21.7-46.4,22.5c-19.6,0.5-36.5-3.5-49.8-11.4c-3.3-3.6-6.2-7-6.8-7.6c0.9,0.9,7.5,7.4,20.2,10.7
		c25.5,6.5,43.2-14.7,44-15.8c-1,0.8-20.3,17.5-47.2,9.2c-23.5-7.2-22.5-36.2-22.5-36.2c0.6,8.5,5.7,21.6,20,29.3
		c13.9,7.5,32.4-1.9,33.2-2.3c-42.1,10-45.3-26.2-45.3-26.2c10,18.7,26.3,18.7,29.5,18.5c4.2,1.4,8.7,2.2,13.3,2.2
		c18.9,0,34.9-12.7,38.3-29.8c2.4-2.8,7.5-11,2.7-27.2c-1.7-5.6-2.5-9.5-2.6-12.3c7.6-6.3,16.5-10.4,21-12.7c3.3-1.6,7.7-3.5,10-4.4
		c3.7-0.9,9.6-0.9,14.7,5.6c8.3,10.4-4.9,21.3-4.9,21.3C482.1,266,491.4,264.6,493.6,276.2z M363.4,290.5c0-17.1,15-31.3,33.7-31.3
		s33.7,14.2,33.7,31.3c0,17.2-14.9,31.3-33.7,31.3C378.3,321.8,363.4,307.7,363.4,290.5z M460.9,235.5c-4,3.4-16.5,10.2-24,17
		l0.3-0.3c-2.1,1.9-8,6.9-12,9.5c-0.7,0.2-1.3,0.2-1.7,0.1c3.6-9.5,21-26.7,27.8-29.8c3.1-1.4,6.1-2,8.6-2.3
		C461.5,230.6,464.4,232.6,460.9,235.5z M445.1,230.2c-14.2,8.4-27.9,23.7-31,27.3c-0.9-0.4-2.1-1.1-2.1-1.1s0.4-8.9,12.7-20
		c4.7-4.3,9.1-7.3,12.6-9.4c0.2-0.1,0.3-0.1,0.5-0.2c1.7-0.7,8.1-2,9-2.5C451.9,223.4,455.2,224.2,445.1,230.2z M404.8,254.6
		c-2.4-0.5-4.9-0.7-7.4-0.7c2.6-4.1,7.5-11.3,12.6-16.8c7.7-8.1,17.7-10,17.7-10C419.2,233.1,408.4,249,404.8,254.6z M405.4,234.8
		c-5.8,5.5-12.4,14.5-16.1,19.8c-5.8,1.1-11.2,3.4-15.8,6.7c3.5-7.2,9.5-13.9,16-19.7C397.7,235.6,412.5,228,405.4,234.8z
		 M281.9,344.8c0.2-3,0.3-4.4,1.9-7.4c0.7-1.3,15.2,31.2,16.1,29.9c0.6-0.9-11.5-37.2-10.8-38.1c3.8-4.9,8-9,10.7-11.4
		c3-2.1,5.7-3.4,7.9-3.8c2.2,0.4,4.9,1.7,7.9,3.8c2.6,2.4,6.9,6.5,10.7,11.4c0.6,0.9-11.4,37.2-10.8,38.1
		c0.9,1.3,15.4-31.2,16.1-29.9c1.6,3,1.7,4.5,1.9,7.4L313.3,387c8.9-12.7,23-35.3,24.1-35.6c1.8-0.4,2.3,4.6,1,7
		c-2.8,5.5-13.5,18.9-20,28.1c-6.5,9.2-9.6,16.2-10.4,19.3h-0.8c-0.8-3.1-3.8-10-10.4-19.3c-6.5-9.2-17.2-22.6-20-28.1
		c-1.2-2.4-0.8-7.4,1-7c1.1,0.3,15.3,23,24.1,35.6L281.9,344.8z M287,201.6c-1.8,3.5-4-17.7-9.3-23.5c0,0,2.2,14.2,0,16.8
		c-2.2,2.7-4-15.1-9.8-20.8c0.1,0.3,2.6,7.2,0.9,12C267,191,267,191,267,191s-4-16.4-8.4-20.8c0,0,1.3,9.8-1.3,13.8
		c-2.5,3.7-1.5-7.3-7.9-14.6c-0.6-2.1-1.3-4.3-2.4-6.6c47.7,5.5,60.3,35.8,60.3,35.8c13.5-31.9,48.3-34.2,60.6-33.9
		c-0.6,1.6-1.2,3.2-1.6,4.7c-6.4,7.3-5.5,18.3-7.9,14.6c-2.7-4-1.3-13.8-1.3-13.8c-4.4,4.4-8.4,20.8-8.4,20.8s0,0-1.8-4.9
		c-1.7-4.8,0.8-11.6,0.9-12c-5.8,5.8-7.5,23.5-9.8,20.8c-2.2-2.7,0-16.8,0-16.8c-5.3,5.8-7.5,27-9.3,23.5
		c-1.8-3.5-0.5-12.9-0.5-12.9c-4.9,7.1-5.3,25.7-7.5,20.8c-2.2-4.9,0-13.3,0-13.3s-2.2,0-5.8,8.4c-1.8,4.2-2.5,11.1-2.5,16.2
		c-1.5-4.5-4.6-8.8-4.9-9.1c0-0.2,0-0.3,0-0.3s-2.8,4.3-4.2,9c-0.1-5-0.8-11.6-2.5-15.7c-3.5-8.4-5.8-8.4-5.8-8.4s2.2,8.4,0,13.3
		c-2.2,4.9-2.7-13.7-7.5-20.8C287.4,188.8,288.8,198.1,287,201.6z M288.1,151.5c0.2-1.3,0.4-3,0.4-4.6v-0.3c1.2,0.6,2.4,1,3.7,1.5
		v4.2h1.8v-3.7c1.6,0.5,3.3,0.9,5.1,1.2c-0.1,1.1-0.3,2.2-0.4,3.3l1.8,0.3c0.1-1.1,0.3-2.2,0.4-3.3c1.2,0.2,2.4,0.3,3.6,0.4
		c0.1,0.6,0.1,1.3,0.1,2c0,1.4-0.1,2.8-0.1,4.3h1.8c0-1.4,0.1-2.8,0.1-4.3c0-0.6,0-1.3-0.1-1.9c0.5,0,1,0.1,1.6,0.1
		c1.2,0,2.3,0,3.4-0.1c0.1,1.4,0.2,2.8,0.4,4.4l1.8-0.2c-0.2-1.5-0.3-2.9-0.4-4.3c1.8-0.1,3.6-0.4,5.2-0.7c0.5,1.5,1,3,1.5,4.4
		l1.7-0.6c-0.5-1.3-1-2.7-1.4-4.1c1.6-0.4,3-0.8,4.4-1.3c0.4,1.5,1.1,2.9,1.9,4.3l1.5-0.9c-0.8-1.3-1.4-2.7-1.7-4
		c0.8-0.3,1.6-0.7,2.4-1.1c0.7,1.2,1.3,2.5,2,3.8l1.6-0.8c-0.6-1.2-1.2-2.3-1.8-3.5c2.9,1.1,5.6,2,8.2,2.7
		c-4.2,6.6-14.3,19.4-30.6,19c-15-0.4-23.3-12.9-26.5-19.3c1.8-0.5,3.7-1.1,5.6-1.8v0.4c0,1.4-0.2,3-0.4,4.3L288.1,151.5z
		 M305.5,304.3c7.6-2.6,16.4,8.6,21.3,16c-6.4-6.5-12.7-10.6-17.8-11.6c0,0-0.8-0.2-1.2-0.2c-0.4,0-1.2,0.2-1.2,0.2
		c-5.6,1.1-12.5,5.8-19.4,13.2C289.5,318,296.5,307.4,305.5,304.3z M343.4,127.3c0.1,0.9,0.2,1.7,0.3,2.6l1.8-0.2
		c-0.2-1.5-0.4-2.9-0.5-4.4c0.9,0.2,1.9,0.4,2.8,0.5c0.4,1.8,0.6,3.6,0.8,5.6l1.8-0.2c-0.2-1.8-0.4-3.4-0.7-5.1
		c1.4,0.3,2.9,0.6,4.3,0.9c0.3,1.9,0.6,3.8,1,5.8l1.7-0.4c-0.4-1.6-0.6-3.3-0.9-5c1.3,0.3,2.6,0.6,3.9,0.9c0.3,2.1,0.6,4.3,1.5,6.5
		l1.7-0.6c-0.7-1.8-1-3.6-1.3-5.4c1.4,0.3,2.7,0.7,4,1.1c0.4,1.6,0.7,3.2,0.7,4.7h1.8c0-1.4-0.2-2.8-0.5-4.1
		c2.5,0.7,4.9,1.4,7.4,2.2v0.3h1l0.3,0.1c-5.9,4.7-15.5,7.2-22.7,6.6c-6.8-0.5-11.1-4.3-12.7-6C342,131.4,342.9,129.2,343.4,127.3z
		 M338.8,124.3c-0.4,0.4-0.9,0.9-1.4,1.4c-0.1-0.6-0.3-1.1-0.3-1.7C337.7,124.1,338.3,124.2,338.8,124.3z M283.2,122.8
		c-0.2,0.8-0.4,1.7-0.7,2.5l1.7,0.6c0.4-1.1,0.6-2.2,0.9-3.2c1.6-0.1,3.3-0.3,4.9-0.4c-0.1,1.1-0.3,2.2-0.5,3.2l1.8,0.3
		c0.2-1.1,0.3-2.3,0.5-3.6c2.3-0.1,4.5-0.2,6.9-0.3c-0.1,1.2-0.1,2.3-0.1,3.4h1.8c0-1.2,0-2.3,0.1-3.4c1.5,0,3,0,4.4,0h0.8v4.1h1.8
		v-4.1c1.4,0,2.9,0,4.4,0.1v6.6h1.8v-6.5c2,0.1,4,0.2,6.1,0.3c-0.1,1.6-0.1,3.2-0.1,4.6h1.8c0-1.4,0-3,0.1-4.5
		c1.4,0.1,2.8,0.2,4.2,0.4c0.4,1.6,0.4,3.2,0.4,5.1h1.8c0-1.7,0-3.3-0.3-4.9c1,0.1,2.1,0.2,3.1,0.3c0.1,0.4,0.2,0.7,0.3,1l1.7-0.6
		l-0.1-0.2c1,0.1,1.9,0.3,2.9,0.4c0.1,1.1,0.3,2.2,0.6,3.3c-6,5.6-16.7,13.3-29.4,12.6c-14.4-0.8-24.6-10.4-29.5-16.3
		C279.1,123.2,281.1,123,283.2,122.8z M241.8,130.7c0,0.7,0,1.5,0,2.3h1.8c0-1,0-1.9,0-2.8c1.8-0.5,3.7-1,5.7-1.5
		c-0.1,0.8-0.1,1.6-0.1,2.4h1.8c0-0.9,0.1-1.9,0.1-2.9c1.3-0.3,2.6-0.6,4-0.9c0.2,1,0.4,2.1,0.6,3l1.7-0.3c-0.2-0.9-0.4-2-0.5-3.1
		c1.9-0.4,3.9-0.8,5.9-1.2v2.8h1.8v-3.1c1.7-0.3,3.3-0.6,5-0.9c0.5,1.7,1.3,3.7,2.3,5.7c-1.1,1.7-4.9,7.1-11.6,8.2
		c-6.8,1.2-16.2-1.6-21.3-6.9C239.9,131.2,240.9,131,241.8,130.7z M91.7,113c-3.9-25.3,7.3-40,14.7-46.6c-0.9,6.6-0.6,17.3,5.7,31
		c13.8,30,38.5,32.8,62.4,35.5c15.5,1.8,31.5,3.6,45.6,12.3c34.6,21.4,23.2,45.2,22.7,46.2l-2.3,4.5l5-0.6
		c0.8-0.1,19.3-2.2,36.4,24.2c21.6,33.5,12.3,62.7,4.2,88.4l-0.3,1c-0.5,1.7-1.1,3.3-1.8,4.9c5.1-83.3-77.1-117.9-103.1-126.7
		C150.3,176.8,97.9,153.3,91.7,113z M130,340.5c-5.4-9.8,8.4-19.1,8.4-19.1s-15.5-2.2-16.8-14.6c-1.3-12.4,12.4-14.6,12.4-14.6
		s-14.2-4.4-12-16c2.2-11.5,11.5-10.2,17.3-8.4c0,0-13.1-10.9-4.9-21.3c5.6-7.1,12-6.5,15.6-5.3c0.7,0.3,1.5,0.6,2.4,1
		c0.4,0.2,0.6,0.3,0.6,0.3l-0.1-0.1c2.1,0.9,4.5,2,6.4,2.9c4.5,2.3,13.4,6.3,21,12.7c-0.1,2.8-0.9,6.7-2.6,12.3
		c-4.9,16.1,0.3,24.4,2.7,27.2c3.5,17,19.4,29.7,38.3,29.8c4.7,0,9.2-0.8,13.3-2.2c3.2,0.2,19.6,0.2,29.5-18.5
		c0,0-3.2,36.2-45.3,26.2c0.8,0.4,19.3,9.8,33.2,2.3c14.3-7.7,19.3-20.8,20-29.3c0,0,1,29-22.5,36.2c-26.9,8.3-46.2-8.4-47.2-9.2
		c0.8,1,18.5,22.2,44,15.8c12.8-3.3,19.4-9.9,20.2-10.7c-0.5,0.5-3.2,3.8-6.4,7.3c-13.4,8.2-30.5,12.3-50.4,11.8
		c-30.7-0.8-46.2-22.3-46.4-22.5l-0.4,0.3c0.7,1,17.3,28.2,50,29.4c1.2,0.1,2.4,0.1,3.6,0.1c27,0.7,45.6-7,58.3-20.6
		c-3.7,8.1-6,16.8-5.3,25.2c0.2,2.1,2,4.8,5.6,9.2c1.6,8.5-3.3,15.1-9.9,16.7c-7.5,1.8-14.6-7.5-14.6-7.5c0,6.2-1.8,10.6-12.4,12
		c-11.5,1.4-14.6-11.5-14.6-11.5s-2.7,10.6-14.6,8c-12-2.7-13.3-13.8-13.3-13.8s-8.9,8-17.3,2.7c-8.4-5.3-8.9-17.7-8.9-17.7
		c-3.5,3.5-12.4,3.1-18.2-2.2c-5.7-5.2-1.1-16.4-0.9-16.8C147.7,347.7,136.5,352.2,130,340.5z M226.6,254.6
		c-3.7-5.2-10.3-14.3-16.1-19.8c-7.1-6.8,7.7,0.8,15.9,6.8c6.5,5.8,12.5,12.4,16,19.7C237.8,258,232.4,255.7,226.6,254.6z
		 M252.5,290.5c0,8.6-3.8,16.4-9.8,22.1c-6.1,5.7-14.5,9.2-23.9,9.2c-18.8,0-33.7-14.2-33.7-31.3c0-17.1,15-31.3,33.7-31.3
		C237.6,259.2,252.5,273.3,252.5,290.5z M218.5,253.8c-2.5,0-5,0.3-7.4,0.7c-3.6-5.5-14.4-21.5-22.9-27.5c0,0,10,1.9,17.7,10
		C211.1,242.5,215.9,249.7,218.5,253.8z M191.2,236.3c12.3,11.2,12.7,20,12.7,20s-1.2,0.7-2.1,1.1c-3.2-3.6-16.9-18.9-31-27.3
		c-9.8-5.8-7-6.7-2.1-6c3.2,0.5,7.6,1.8,9.4,2.5c0.2,0.1,0.3,0.1,0.5,0.2C182.2,229,186.5,232,191.2,236.3z M164.7,232.1
		c6.8,3.1,24.2,20.3,27.8,29.8c-0.4,0-1,0-1.7-0.1c-3.9-2.6-9.8-7.6-12-9.5l0.3,0.3c-7.5-6.8-20-13.7-24-17c-3.5-2.9-0.6-4.9,1-5.8
		C158.6,230.1,161.6,230.7,164.7,232.1z M93.8,199.7c-9.3-5-15.9-6.3-23.1-5.4c35.8-21.7,100.7-4.3,148.7,26.5
		c8.1,5.2,15.1,10.5,21.1,15.9l-0.2-0.1c-5.6-3.5-11.9-6.8-19-9.8c-25.8-10.9-48.4-14.4-66.7-14.4c-22.6,0-38.6,5.3-45.9,8.3
		C108.7,215.2,106.3,206.4,93.8,199.7z M307.9,531.8c-84.3-0.7-144-26-182.9-62c-39.4-36.5-57.5-84.2-57.5-129
		c0-9.8,0.9-19.5,2.6-28.9c5-28,15-49.4,23.7-63.8c4.3-7.2,8.4-12.7,11.3-16.3c1.4-1.8,2.6-3.2,3.4-4.1c0.1-0.2,0.3-0.3,0.4-0.4
		c1.2-0.5,2.4-0.9,3.4-0.9c4.3,0,18.7,12.7,14,11.7c-4.7-1-7.7-6.7-7.7-6.7c-0.7,5.3,7,17,4.7,16c-2.3-1-5-6.3-5-6.3
		c-1.7,8,3.3,16.3,0.3,13.7c-1.5-1.3-3-4.3-4.1-7c-1.9-9.4,3.8-19.4-6.1-16.2c-4.5,1.5-13,17.9,11.2,32.2l0,0l-6-0.7l2.7,6.3l-8.3-7
		c0.3,3.6,5,16.8,5.3,17.7l-5.7-6.6c0,6.9,3.6,13.3,5.4,17.2c-3.1-3.8-6.5-8.3-8.2-12.3c-5.7-13.3-0.9-29.3-11.4-25.9
		c-6.2,2-8.3,24.4,19.3,41.7c-3.3-0.2-10.9-3.5-11.4-3.7c1.7,5.3,10.7,15,10.7,15c-4.3,0.3-13.7-7.7-12.3-4.7c1.3,3,10,11.4,10,11.4
		c-2.3,0.5-6.9-2.4-10.6-5c-8.1-12.5-8.2-28.2-18.9-21.7c-6.3,3.8-6.4,26.2,30.9,38.2c4.7,2.8,8.5,5,5,5.9
		c-5.3,1.3-13.4-0.3-13.4-0.3c5.3,6.3,21.7,12.7,20,13.7c-1.7,1-16.4-2.7-16.4-2.7c2,3.2,11.9,11.8,17,16.1
		c-5.3-2.4-11.1-5.4-15.5-8.8c-18.6-14.6-22.2-35.5-34-27.5c-7.9,5.3,4.1,34.8,53.5,40.8c5.4,2,9.4,3.7,5.4,4.3
		c-6.8,1-22.7-5-23.6-5.4c0.8,0.5,14.2,8.9,30.7,13.4c3.4,0.9-23.5-3.5-20.5-2c10.8,5.5,36.7,12.2,36.7,12.2
		c-9.7,1-24.3-2.6-25.1-2.8c8.7,8.4,34.1,16.8,44.7,20c-13.7-2.1-31.1-5.8-43.1-12.3c-26.3-14.3-45-36.7-56.6-23
		c-11,13.1,37.1,43.5,113.2,38.4c0.1,0.2-0.7,0.5-2.4,1.1c-6,2-30.8,4.3-30.8,4.3c12.5,3.4,30.2,0,39.9,0.6c2.5,0.1-20.4,7-18.5,7.4
		c3,0.6,22.2-1.6,29.6-2.3c3.6-0.3,6.5-0.7,8.5-1c-14.4,4.1-36.3,9-54.4,7.1c-28.9-3-58.8-24.4-66.1-6.5
		c-6.7,16.4,56.5,38.3,129.5-2c6.6-3.3,10.9-5.2,6.2-0.8c-9.1,8.3-18.7,11.7-19.3,11.9c6.1-1,15.2-4.4,22.7-6.3
		c3.4-0.8-13.1,11.1-10.3,10.3c7.7-2.5,21-8.8,28-12.3c-11.4,8.4-30.7,21.4-45.6,24.9c-35.1,8.5-76.7-4.3-77.6,16.7
		c-0.7,16.8,65.6,23.9,125.2-40.4l-19.8,27.2l23.9-22.2l-11.7,19.9l18.1-17.6c-7.3,10.9-18.1,25.5-28.4,32.6
		c-27.5,19-66.7,17.6-58.8,37.1c5.9,14.6,58.2,0.1,88.6-65.9c-4.6,13.4-13.5,32-14.4,33.4c-1.6,2.7,14.8-21.3,20.5-28.5
		c1.4-1.8-10.6,24.7-9.1,23.6c2.2-1.7,7.1-9.8,10.7-16.2c-3.3,9.7-7.6,20-12.7,26.8c-19.5,25.7-54.8,31.6-39.5,48.3
		c7.6,8.4,41.6-9.9,54.5-62.6c-2.6,11.9-6,24.1-6.5,25.3c-2.1,6.3,3.8-7.6,9.4-18.2c1-1.8-3.8,16.3-2.8,14.8
		c1.8-2.7,7-16.8,9.2-22.8c-3.7,30.2-25.4,69.9-26.5,71.5c-7,9.4,28.8-31.5,28.8-31.5c-2.2,17.5-11.2,34.1-11.5,34.6
		c11.2-6,23.6-39.5,24.3-41.6c-3.1,12-5.3,44.2-4,44.2c1.3,0,10.7-22.2,12.9-37.7c0.5-3.8,3.9,29.4,7.4,40.4
		C313.7,531.8,310.8,531.8,307.9,531.8z M545.6,312c1.7,9.4,2.6,19.1,2.6,28.9c0,44.8-18.1,92.5-57.5,129
		c-37.1,34.3-93.2,58.9-171.5,61.8c0.2-5.9-0.6-18.5-1.8-33.4c6.4,10.7,15.5,24.4,22.3,28.1c-0.3-0.5-9.3-17.1-11.5-34.6
		c0,0,35.9,40.9,28.8,31.5c-1.2-1.6-22.8-41.3-26.5-71.5c2.2,6,7.4,20.1,9.2,22.8c1,1.5-3.8-16.6-2.8-14.8
		c5.6,10.6,11.5,24.5,9.4,18.2c-0.4-1.2-3.9-13.4-6.5-25.3c12.9,52.7,46.8,71,54.5,62.6c15.3-16.8-20-22.6-39.5-48.3
		c-5.1-6.8-9.4-17-12.7-26.8c3.6,6.3,8.5,14.5,10.7,16.2c1.5,1.1-10.5-25.4-9.1-23.6c5.7,7.1,22.1,31.2,20.5,28.5
		c-0.8-1.4-9.7-20-14.3-33.4c30.4,66,82.7,80.5,88.6,65.9c7.9-19.5-31.3-18.1-58.8-37.1c-10.3-7.1-21.2-21.7-28.4-32.6l18.1,17.6
		l-11.7-19.9l23.9,22.2l-19.8-27.2c59.6,64.3,125.9,57.2,125.2,40.4c-0.9-21-42.6-8.2-77.6-16.7c-14.8-3.6-34.1-16.5-45.5-24.9
		c7,3.4,20.3,9.8,28,12.3c2.8,0.9-13.7-11.1-10.3-10.3c7.6,1.8,16.6,5.2,22.8,6.3c-0.6-0.2-10.2-3.7-19.3-11.9
		c-4.8-4.3-0.4-2.4,6.2,0.8c73,40.3,136.2,18.4,129.5,2c-7.3-17.9-37.2,3.5-66.1,6.5c-18.2,1.9-40-3-54.4-7.1c1.9,0.3,4.9,0.7,8.5,1
		c7.4,0.7,26.6,2.9,29.6,2.3c1.9-0.4-21-7.3-18.5-7.4c9.7-0.6,27.3,2.9,39.9-0.6c0,0-24.8-2.3-30.7-4.3c-1.8-0.6-2.5-0.9-2.4-1.1
		c76.1,5.2,124.2-25.3,113.2-38.4c-11.5-13.8-30.2,8.7-56.6,23c-12,6.5-29.3,10.2-43.1,12.3c10.6-3.2,36-11.6,44.7-20
		c-0.8,0.2-15.4,3.7-25.1,2.8c0,0,25.9-6.8,36.7-12.2c3.1-1.6-23.8,2.9-20.5,2c16.6-4.4,29.9-12.8,30.7-13.4
		c-0.9,0.4-16.8,6.4-23.6,5.4c-4-0.6-0.1-2.3,5.4-4.3c49.4-6,61.4-35.6,53.5-40.8c-11.8-8-15.4,12.9-34,27.5
		c-4.4,3.4-10.2,6.5-15.5,8.8c5.1-4.3,15-13,17-16.1c0,0-14.7,3.7-16.4,2.7c-1.7-1,14.7-7.3,20-13.7c0,0-8,1.7-13.4,0.3
		c-3.6-0.9,0.3-3.1,5-5.9c37.3-12,37.1-34.3,30.9-38.1c-10.7-6.5-10.8,9.2-18.9,21.7c-3.7,2.7-8.3,5.6-10.6,5c0,0,8.7-8.4,10-11.4
		c1.3-3-8,5-12.3,4.7c0,0,9-9.7,10.7-15c-0.5,0.2-8,3.5-11.4,3.7c27.6-17.4,25.5-39.7,19.3-41.7c-10.5-3.4-5.7,12.6-11.3,25.9
		c-1.7,4-5.1,8.5-8.2,12.3c1.8-3.8,5.3-10.3,5.3-17.2l-5.7,6.6c0.3-0.8,5-14.1,5.3-17.7l-8.3,7l2.7-6.3l-6,0.7l0,0
		c24.2-14.3,15.7-30.7,11.2-32.2c-9.9-3.2-4.2,6.8-6.1,16.2c-1.1,2.7-2.6,5.6-4.1,7c-3,2.7,2-5.7,0.3-13.7c0,0-2.7,5.3-5,6.3
		c-2.3,1,5.3-10.7,4.7-16c0,0-3,5.7-7.7,6.7c-4.7,1,9.7-11.7,14-11.7c1,0,2.2,0.4,3.4,0.9c0.1,0.1,0.3,0.2,0.4,0.4
		C512.8,234,536.8,263.1,545.6,312z M506.9,220.8c-7.3-3-23.3-8.3-45.9-8.3c-18.3,0-40.9,3.5-66.7,14.4c-7.3,3.1-13.7,6.5-19.4,10.1
		c6.1-5.4,13.1-10.8,21.3-16c48-30.9,112.9-48.2,148.7-26.5c-7.2-0.9-13.7,0.4-23,5.4C509.3,206.4,507,215.2,506.9,220.8z"/>
	<polygon class="st2" points="100.7,705.3 100.7,705.3 100.7,705.3 	"/>
	<path class="st2" d="M538.3,427.6c-0.2,1.5-0.3,2.5-0.3,2.5C538,429.4,538.1,428.6,538.3,427.6z"/>
	<text transform="matrix(1 0 0 1 74.3335 630.3813)" class="st3 st4 st5">ITEM TRADED</text>
</g>
<g id="Layer_3">
</g>
</svg>
