<?xml version="1.0" encoding="utf-8"?>
<!-- Generator: Adobe Illustrator 21.0.0, SVG Export Plug-In . SVG Version: 6.00 Build 0)  -->
<svg version="1.1" xmlns="http://www.w3.org/2000/svg" xmlns:xlink="http://www.w3.org/1999/xlink" x="0px" y="0px"
	 viewBox="0 0 512 512" style="enable-background:new 0 0 512 512;" xml:space="preserve">
<style type="text/css">
	.st0{fill:#CCCCCC;}
</style>
<g id="Layer_2">
</g>
<g id="Capa_1">
	<g>
		<g>
			<path class="st0" d="M445.2,197.9c0,31.5-12.3,60.8-38.7,92.2c-23.6,28.1-57.5,57-96.8,90.5C295,393,279.9,405.9,263.8,420
				l-0.5,0.4c-2.1,1.8-4.7,2.7-7.3,2.7s-5.2-0.9-7.3-2.7l-0.5-0.4c-16.1-14.1-31.3-27-45.9-39.5C163,347,129.1,318.1,105.5,290
				c-26.4-31.4-38.7-60.7-38.7-92.2c0-28.9,9.8-56,27.6-76.2c18.7-21.2,44.6-32.8,72.9-32.8c39.9,0,65.1,23.8,79.3,43.8
				c3.7,5.2,6.8,10.4,9.4,15.3c2.6-4.9,5.8-10.1,9.4-15.3c14.2-20,39.4-43.8,79.3-43.8c28.3,0,54.2,11.7,72.9,32.8
				C435.4,141.9,445.2,168.9,445.2,197.9z"/>
		</g>
	</g>
</g>
</svg>
