<?xml version="1.0" encoding="utf-8"?>
<!-- Generator: Adobe Illustrator 21.0.0, SVG Export Plug-In . SVG Version: 6.00 Build 0)  -->
<svg version="1.1" id="Capa_1" xmlns="http://www.w3.org/2000/svg" xmlns:xlink="http://www.w3.org/1999/xlink" x="0px" y="0px"
	 viewBox="0 0 402 402" style="enable-background:new 0 0 402 402;" xml:space="preserve">
<style type="text/css">
	.st0{fill:#C5D4FF;stroke:#C5D4FF;stroke-width:11;stroke-miterlimit:10;}
</style>
<g>
	<path class="st0" d="M322.2,94.9c-1.7-1.7-3.8-2.5-6.3-2.5h-47.1c-3.1-15.2-9-28.5-17.6-39.7h64.2c2.6,0,4.7-0.8,6.3-2.5
		c1.6-1.7,2.5-3.8,2.5-6.3V15.8c0-2.6-0.8-4.7-2.5-6.3C320,7.8,317.9,7,315.4,7H86.1c-2.6,0-4.7,0.8-6.3,2.5
		c-1.6,1.7-2.5,3.8-2.5,6.3v36.6c0,2.4,0.9,4.5,2.6,6.2c1.7,1.7,3.8,2.6,6.2,2.6h40c38.8,0,63.4,10.4,73.8,31.1H86.1
		c-2.6,0-4.7,0.8-6.3,2.5c-1.6,1.7-2.5,3.8-2.5,6.3v28.1c0,2.6,0.8,4.7,2.5,6.3c1.7,1.7,3.8,2.5,6.3,2.5h117.7
		c-4,15.1-13.5,26.5-28.2,34.4c-14.8,7.9-34.3,11.9-58.6,11.9H86.1c-2.4,0-4.5,0.9-6.2,2.6c-1.7,1.7-2.6,3.8-2.6,6.2v35
		c0,2.4,0.8,4.4,2.5,6.1c35.3,37.5,81,89.9,137.2,157.3c1.7,2.2,4,3.3,6.9,3.3h53.7c3.9,0,6.5-1.6,8-5c1.8-3.3,1.5-6.4-1.1-9.4
		c-53.6-65.8-95.8-115-126.5-147.7c31.2-3.7,56.6-13.8,76.1-30.3c19.5-16.5,31.3-38,35.5-64.5h46.3c2.6,0,4.7-0.8,6.3-2.5
		c1.7-1.6,2.5-3.8,2.5-6.3v-28.1C324.7,98.7,323.9,96.6,322.2,94.9z"/>
</g>
</svg>
