<?xml version="1.0" encoding="utf-8"?>
<!-- Generator: Adobe Illustrator 21.0.0, SVG Export Plug-In . SVG Version: 6.00 Build 0)  -->
<svg version="1.1" xmlns="http://www.w3.org/2000/svg" xmlns:xlink="http://www.w3.org/1999/xlink" x="0px" y="0px"
	 viewBox="0 0 855 500" style="enable-background:new 0 0 855 500;" xml:space="preserve">
<style type="text/css">
	.st0{fill-rule:evenodd;clip-rule:evenodd;fill:#333333;}
	.st1{fill:none;stroke:#333333;stroke-width:27;stroke-linecap:round;stroke-miterlimit:10;}
	.st2{fill:#FFFFFF;}
</style>
<g id="Layer_2">
	<rect x="219" y="193" class="st0" width="449" height="88"/>
</g>
<g id="Layer_1">
	<g>
		<line class="st1" x1="104.5" y1="136.5" x2="538" y2="136.5"/>
	</g>
	<g>
		<line class="st1" x1="597" y1="137" x2="775" y2="137"/>
	</g>
	<g>
		<line class="st1" x1="104.5" y1="195" x2="775" y2="195"/>
	</g>
	<g>
		<line class="st1" x1="105" y1="276" x2="775" y2="276"/>
	</g>
	<g>
		<line class="st1" x1="105" y1="334" x2="294" y2="334"/>
	</g>
	<g>
		<line class="st1" x1="351" y1="334" x2="775" y2="334"/>
	</g>
	<g>
		<path class="st2" d="M362.6,188.6v92h-22.4v-51.9l-21.4,51.9h-16.6l-21.4-51.9v51.9h-22.4v-92h25.7l26.5,63.4l26.3-63.4H362.6z"/>
		<path class="st2" d="M390.5,268.1c-9.1-8.9-13.7-20.2-13.7-33.8s4.6-24.9,13.7-33.7c9.1-8.9,20.3-13.3,33.5-13.3
			c13.2,0,24.4,4.4,33.4,13.3c9,8.9,13.6,20.1,13.6,33.7s-4.5,24.9-13.6,33.8c-9.1,8.9-20.2,13.4-33.4,13.4
			C410.8,281.5,399.7,277,390.5,268.1z M441.6,253.6c4.4-4.8,6.6-11.2,6.6-19.3c0-8-2.2-14.5-6.6-19.3c-4.4-4.8-10.3-7.2-17.7-7.2
			c-7.4,0-13.3,2.4-17.7,7.2c-4.4,4.8-6.6,11.2-6.6,19.3c0,8,2.2,14.5,6.6,19.3c4.4,4.8,10.3,7.2,17.7,7.2
			C431.3,260.8,437.2,258.4,441.6,253.6z"/>
		<path class="st2" d="M507.8,244.8v35.8h-22.4v-92h36.3c10.7,0,18.9,2.8,24.9,8.3c5.9,5.5,8.9,12.1,8.9,19.9
			c0,5.3-1.6,10.5-4.8,15.6c-3.2,5.1-8.5,8.6-15.9,10.7l22.5,37.5h-26.2l-20.7-35.8H507.8z M507.8,205.7v22.1h13.9
			c3.4,0,6.1-1,8.1-3c2-2,2.9-4.7,2.9-7.9s-1-6-3-8.1c-2-2.1-4.7-3.1-8-3.1H507.8z"/>
		<path class="st2" d="M628.6,188.4v17h-33.3v19.8h29.3v17h-29.3v21.4h33.3v17h-55.7v-92.2H628.6z"/>
	</g>
	<g>
	</g>
	<g>
	</g>
	<g>
	</g>
	<g>
	</g>
	<g>
	</g>
	<g>
	</g>
	<g>
	</g>
	<g>
	</g>
	<g>
	</g>
	<g>
	</g>
	<g>
	</g>
	<g>
	</g>
	<g>
	</g>
	<g>
	</g>
	<g>
	</g>
</g>
</svg>
