<?xml version="1.0" encoding="utf-8"?>
<!-- Generator: Adobe Illustrator 21.0.0, SVG Export Plug-In . SVG Version: 6.00 Build 0)  -->
<svg version="1.1" id="Layer_1" xmlns="http://www.w3.org/2000/svg" xmlns:xlink="http://www.w3.org/1999/xlink" x="0px" y="0px"
	 viewBox="0 0 512 512" style="enable-background:new 0 0 512 512;" xml:space="preserve">
<style type="text/css">
	.st0{fill:#FFFFFF;}
</style>
<path class="st0" d="M459.8,165.3c0-4.6-0.2-9.1-0.4-13.6c20.8-14.8,38.3-33.2,52.6-54.5v0c-19.1,8.3-39.3,13.9-60.5,16.6
	c21.8-13,38.4-33.4,46.2-58c-20.3,12.1-42.7,20.6-66.6,25.4C411.9,60.7,384.4,48,354.5,48c-58.1,0-104.9,47.2-104.9,105
	c0,8.3,0.7,16.3,2.4,23.9c-87.3-4.3-164.5-46.1-216.4-109.8c-9,15.7-14.4,33.7-14.4,53.1c0,36.4,18.7,68.6,46.6,87.2
	c-16.9-0.3-33.4-5.2-47.4-12.9v1.2c0,51,36.4,93.4,84.1,103.1c-16,4.4-35.8,4.2-47.4,1.7c13.6,41.6,52.2,72.1,98.1,73.1
	c-35.7,27.9-81.1,44.8-130.2,44.8c-8.6,0-16.9-0.4-25.1-1.4c46.5,30,101.6,47.1,161,47.1C354.2,464,459.8,304,459.8,165.3
	L459.8,165.3z"/>
</svg>
