<?xml version="1.0" encoding="utf-8"?>
<!-- Generator: Adobe Illustrator 21.0.0, SVG Export Plug-In . SVG Version: 6.00 Build 0)  -->
<svg version="1.1" xmlns="http://www.w3.org/2000/svg" xmlns:xlink="http://www.w3.org/1999/xlink" x="0px" y="0px"
	 viewBox="0 0 469.3 469.3" style="enable-background:new 0 0 469.3 469.3;" xml:space="preserve">
<style type="text/css">
	.st0{fill:#FFFFFF;}
	.st1{fill:#C6C4C4;}
</style>
<g id="Layer_2">
	<path class="st0" d="M464.8,1.9c-3.4-2.4-7.8-2.5-11.4-0.5l-448,256c-3.7,2.1-5.7,6.1-5.3,10.3c0.4,4.2,3.3,7.7,7.2,9.1l133.8,44.6
		l51.6,141c1.5,4.2,5.6,7,10,7c0.4,0,0.8,0,1.2-0.1c2.9-0.3,5.3-1.9,7-4l0.1,0.1l75.9-95.3l104.4,34.8c1.1,0.4,2.2,0.6,3.4,0.6
		c1.9,0,3.8-0.5,5.5-1.5c2.7-1.6,4.5-4.3,5-7.4l64-384C469.9,8.4,468.2,4.3,464.8,1.9z M36.7,264.1L391.6,61.3L146.5,300.7
		L36.7,264.1z M209.1,329.3c-1.1,1.5-1.8,3.2-2,5.1l-9.6,79l-35.7-97.7l208.6-203.8L209.1,329.3z M217.8,422.5l8.9-72.6l38.7,12.9
		L217.8,422.5z M386.2,380.6L235,330.2L440.9,52.6L386.2,380.6z"/>
</g>
<g id="Layer_1">
	<g>
		<path class="st0" d="M464.8,1.9c-3.4-2.4-7.8-2.5-11.4-0.5l-448,256c-3.7,2.1-5.7,6.1-5.3,10.3c0.4,4.2,3.3,7.7,7.2,9.1
			l133.8,44.6l51.6,141c1.5,4.2,5.6,7,10,7c0.4,0,0.8,0,1.2-0.1c2.9-0.3,5.3-1.9,7-4l0.1,0.1l75.9-95.3l104.4,34.8
			c1.1,0.4,2.2,0.6,3.4,0.6c1.9,0,3.8-0.5,5.5-1.5c2.7-1.6,4.5-4.3,5-7.4l64-384C469.9,8.4,468.2,4.3,464.8,1.9z M36.7,264.1
			L391.6,61.3L146.5,300.7L36.7,264.1z M209.1,329.3c-1.1,1.5-1.8,3.2-2,5.1l-9.6,79l-35.7-97.7l208.6-203.8L209.1,329.3z
			 M217.8,422.5l8.9-72.6l38.7,12.9L217.8,422.5z M386.2,380.6L235,330.2L440.9,52.6L386.2,380.6z"/>
		<polygon class="st0" points="265.3,362.8 217.8,422.5 226.7,349.9 		"/>
		<path class="st1" d="M370.3,111.9L209.1,329.3c-1.1,1.5-1.8,3.2-2,5.1l-9.6,79l-35.7-97.7L370.3,111.9z"/>
		<polygon class="st0" points="440.9,52.6 386.2,380.6 235,330.2 		"/>
		<polygon class="st0" points="391.6,61.3 146.5,300.7 36.7,264.1 		"/>
	</g>
</g>
</svg>
