<?xml version="1.0" encoding="utf-8"?>
<!-- Generator: Adobe Illustrator 21.0.0, SVG Export Plug-In . SVG Version: 6.00 Build 0)  -->
<svg version="1.1" id="Layer_1" xmlns="http://www.w3.org/2000/svg" xmlns:xlink="http://www.w3.org/1999/xlink" x="0px" y="0px"
	 viewBox="0 0 388 388" style="enable-background:new 0 0 388 388;" xml:space="preserve">
<style type="text/css">
	.st0{fill:#494949;}
</style>
<path class="st0" d="M78.2,78.3v261.2c0,2.8,2.2,5,5,5h190.9c2.8,0,5-2.2,5-5v-211c0-0.1-0.1-0.2-0.1-0.3c0-0.4-0.1-0.9-0.3-1.3
	c-0.1-0.2-0.1-0.3-0.2-0.5c-0.2-0.5-0.6-1-1-1.5l-50.2-50.2c-0.4-0.4-0.9-0.8-1.5-1c-0.2-0.1-0.3-0.1-0.5-0.2
	c-0.4-0.1-0.9-0.2-1.3-0.3c-0.1,0-0.2,0-0.3,0H83.2C80.5,73.3,78.2,75.6,78.2,78.3z M262,123.5h-33.1V90.5L262,123.5z M88.2,83.4
	h130.6v45.2c0,2.8,2.2,5,5,5h45.2v200.9H88.2V83.4z"/>
<path class="st0" d="M289.2,304.4v10h15.1c2.8,0,5-2.2,5-5V48.2c0-2.8-2.2-5-5-5H113.4c-2.8,0-5,2.2-5,5v15.1h10v-10h180.8v251.1
	H289.2z"/>
<path class="st0" d="M118.4,143.6h120.5v10H118.4V143.6z"/>
<path class="st0" d="M118.4,113.5h40.2v10h-40.2V113.5z"/>
<path class="st0" d="M118.4,173.8h80.4v10h-80.4V173.8z"/>
<path class="st0" d="M208.8,173.8h30.1v10h-30.1V173.8z"/>
<path class="st0" d="M118.4,203.9h120.5v10H118.4V203.9z"/>
<path class="st0" d="M118.4,264.2h120.5v10H118.4V264.2z"/>
<path class="st0" d="M163.6,234h75.3v10h-75.3V234z"/>
<path class="st0" d="M118.4,234h35.2v10h-35.2V234z"/>
<path class="st0" d="M118.4,294.3h20.1v10h-20.1V294.3z"/>
<path class="st0" d="M148.5,294.3h90.4v10h-90.4V294.3z"/>
</svg>
