<?xml version="1.0" encoding="utf-8"?>
<!-- Generator: Adobe Illustrator 21.0.0, SVG Export Plug-In . SVG Version: 6.00 Build 0)  -->
<svg version="1.1" id="Layer_1" xmlns="http://www.w3.org/2000/svg" xmlns:xlink="http://www.w3.org/1999/xlink" x="0px" y="0px"
	 viewBox="0 0 388 388" style="enable-background:new 0 0 388 388;" xml:space="preserve">
<style type="text/css">
	.st0{fill:#494949;}
</style>
<path class="st0" d="M291.8,172.8h-72.3c-2.3,0-4.3-1.9-4.3-4.3V96.3c0-11.7-9.5-21.3-21.3-21.3s-21.3,9.5-21.3,21.3v72.3
	c0,2.3-1.9,4.3-4.3,4.3H96.3c-11.7,0-21.3,9.5-21.3,21.3s9.5,21.3,21.3,21.3h72.3c2.3,0,4.3,1.9,4.3,4.3v72.3
	c0,11.7,9.5,21.3,21.3,21.3s21.3-9.5,21.3-21.3v-72.3c0-2.3,1.9-4.3,4.3-4.3h72.3c11.7,0,21.3-9.5,21.3-21.3
	S303.5,172.8,291.8,172.8z"/>
</svg>
