<?xml version="1.0" encoding="utf-8"?>
<!-- Generator: Adobe Illustrator 21.0.0, SVG Export Plug-In . SVG Version: 6.00 Build 0)  -->
<svg version="1.1" id="Capa_1" xmlns="http://www.w3.org/2000/svg" xmlns:xlink="http://www.w3.org/1999/xlink" x="0px" y="0px"
	 viewBox="0 0 388 388" style="enable-background:new 0 0 388 388;" xml:space="preserve">
<style type="text/css">
	.st0{fill:#494949;}
</style>
<g>
	<g>
		<path class="st0" d="M309.5,161.3L206.9,58.7c-10.6-10.6-27.9-10.6-38.5,0c-9.5,9.5-10.4,24.1-3.3,34.5l-0.1,0.7
			c-7.4,37-25.4,70.6-52.1,97.3l-47.1,47.1c-10.6,10.6-10.6,27.8,0,38.5l25.6,25.6c10.6,10.6,27.8,10.6,38.5,0l6.4-6.4l44.9,44.9
			c10.6,10.6,27.8,10.6,38.5,0c10.6-10.6,10.6-27.9,0-38.5l-19.2-19.2l6.4-6.4c10.6-10.6,10.6-27.8,0-38.5l-4.4-4.4
			c21.4-15,45.8-25.5,71.8-30.7l0.7-0.1c10.6,7.2,25.1,6,34.4-3.3h0C320.1,189.2,320.1,171.9,309.5,161.3z M117.1,289.5
			c-3.5,3.5-9.3,3.5-12.8,0l-25.6-25.6c-3.5-3.5-3.5-9.3,0-12.8l44.9-44.9l38.5,38.5C157.6,249,121.6,285,117.1,289.5z M206.9,315.2
			c3.5,3.5,3.5,9.3,0,12.8c-3.5,3.5-9.3,3.5-12.8,0l-44.9-44.9l12.8-12.8L206.9,315.2z M174.8,257.5c2.7-2.7,6.8-6.9,13.2-12.4l6,6
			c3.5,3.5,3.5,9.3,0,12.8l-6.4,6.4L174.8,257.5z M175.2,232.2L136,193c21-24.3,36.1-52.9,44.1-84.1l79.2,79.2
			C228.2,196.1,199.5,211.2,175.2,232.2z M296.7,186.9c-3.5,3.5-9.3,3.5-12.8,0L181.2,84.4c-3.5-3.5-3.5-9.3,0-12.8
			c3.5-3.5,9.3-3.5,12.8,0l102.6,102.6C300.2,177.7,300.2,183.4,296.7,186.9z"/>
	</g>
</g>
<g>
	<g>
		<path class="st0" d="M129.9,238.2c-3.5-3.5-9.3-3.5-12.8,0l-12.8,12.8c-3.5,3.5-3.5,9.3,0,12.8c3.5,3.5,9.3,3.5,12.8,0l12.8-12.8
			C133.5,247.5,133.5,241.8,129.9,238.2z"/>
	</g>
</g>
<g>
	<g>
		<path class="st0" d="M248.5,39.2c-5,0-9.1,4.1-9.1,9.1v18.1c0,5,4.1,9.1,9.1,9.1c5,0,9.1-4.1,9.1-9.1V48.3
			C257.6,43.3,253.5,39.2,248.5,39.2z"/>
	</g>
</g>
<g>
	<g>
		<path class="st0" d="M321.1,111.7h-18.1c-5,0-9.1,4.1-9.1,9.1c0,5,4.1,9.1,9.1,9.1h18.1c5,0,9.1-4.1,9.1-9.1
			S326.1,111.7,321.1,111.7z"/>
	</g>
</g>
<g>
	<g>
		<path class="st0" d="M309.4,60c-3.5-3.5-9.3-3.5-12.8,0l-18.1,18.1c-3.5,3.5-3.5,9.3,0,12.8c3.5,3.5,9.3,3.5,12.8,0l18.1-18.1
			C312.9,69.3,312.9,63.5,309.4,60z"/>
	</g>
</g>
</svg>
