<?xml version="1.0" encoding="utf-8"?>
<!-- Generator: Adobe Illustrator 21.0.0, SVG Export Plug-In . SVG Version: 6.00 Build 0)  -->
<svg version="1.1" id="Layer_1" xmlns="http://www.w3.org/2000/svg" xmlns:xlink="http://www.w3.org/1999/xlink" x="0px" y="0px"
	 viewBox="0 0 388 388" style="enable-background:new 0 0 388 388;" xml:space="preserve">
<style type="text/css">
	.st0{fill:#C5D4FF;}
</style>
<g>
	<path class="st0" d="M47.2,382.9c-1.1,0-2.1-0.2-3.1-0.7l-31.8-14.2c-3.9-1.7-5.6-6.3-3.9-10.1L163,10.6c1.2-2.8,4-4.6,7-4.6
		c1.1,0,2.1,0.2,3.1,0.7L205,20.9c3.9,1.7,5.6,6.3,3.9,10.1L54.2,378.4C53,381.1,50.2,382.9,47.2,382.9z"/>
	<path class="st0" d="M170,9.6L170,9.6c0.6,0,1.1,0.1,1.7,0.4l31.8,14.2c1,0.5,1.8,1.3,2.2,2.3c0.4,1,0.4,2.2-0.1,3.2L51,377
		c-0.7,1.5-2.2,2.5-3.8,2.5c-0.6,0-1.1-0.1-1.7-0.4l-31.8-14.2c-1-0.5-1.8-1.3-2.2-2.3c-0.4-1-0.4-2.2,0.1-3.2L166.2,12
		C166.9,10.5,168.4,9.6,170,9.6 M170,2.6c-4.3,0-8.4,2.5-10.2,6.6L5.1,356.5c-2.5,5.6,0,12.2,5.7,14.7l31.8,14.2c1.5,0.7,3,1,4.5,1
		c4.3,0,8.4-2.5,10.2-6.6L212,32.5c2.5-5.6,0-12.2-5.7-14.7L174.5,3.5C173.1,2.9,171.5,2.6,170,2.6L170,2.6z"/>
</g>
<g>
	<path class="st0" d="M180.9,230.6c-6,0-10.8-4.8-10.8-10.8v-34.9c0-6,4.8-10.8,10.8-10.8H366c6,0,10.8,4.8,10.8,10.8v34.9
		c0,6-4.8,10.8-10.8,10.8H180.9z"/>
	<path class="st0" d="M366,174.5c5.7,0,10.4,4.7,10.4,10.4v34.9c0,5.7-4.7,10.4-10.4,10.4H180.9c-5.7,0-10.4-4.7-10.4-10.4v-34.9
		c0-5.7,4.7-10.4,10.4-10.4H366 M366,173.8H180.9c-6.2,0-11.2,5-11.2,11.2v34.9c0,6.2,5,11.2,11.2,11.2H366c6.2,0,11.2-5,11.2-11.2
		v-34.9C377.2,178.8,372.2,173.8,366,173.8L366,173.8z"/>
</g>
<g>
</g>
<g>
</g>
<g>
</g>
<g>
</g>
<g>
</g>
<g>
</g>
<g>
</g>
<g>
</g>
<g>
</g>
<g>
</g>
<g>
</g>
<g>
</g>
<g>
</g>
<g>
</g>
<g>
</g>
</svg>
