<?xml version="1.0" encoding="utf-8"?>
<!-- Generator: Adobe Illustrator 21.0.0, SVG Export Plug-In . SVG Version: 6.00 Build 0)  -->
<svg version="1.1" id="Layer_1" xmlns="http://www.w3.org/2000/svg" xmlns:xlink="http://www.w3.org/1999/xlink" x="0px" y="0px"
	 viewBox="0 0 512 512" style="enable-background:new 0 0 512 512;" xml:space="preserve">
<style type="text/css">
	.st0{fill:#FFFFFF;}
</style>
<path class="st0" d="M316,182H106c-8.3,0-15,6.7-15,15v180c0,8.3,6.7,15,15,15h210c8.3,0,15-6.7,15-15V197
	C331,188.7,324.3,182,316,182z"/>
<path class="st0" d="M467,91H262.2l64.4-65.4c5.9-5.9,5.9-15.4,0-21.2s-15.4-5.9-21.2,0L226,84.8L146.6,4.4
	c-5.9-5.9-15.4-5.9-21.2,0s-5.9,15.4,0,21.2L189.8,91H45c-24.8,0-45,20.2-45,45v301c0,24.8,20.2,45,45,45h24.8l-4.4,4.4
	c-5.9,5.9-5.9,15.4,0,21.2c2.9,2.9,6.8,4.4,10.6,4.4c3.8,0,7.7-1.5,10.6-4.4l25.6-25.6h288.6l25.6,25.6c2.9,2.9,6.8,4.4,10.6,4.4
	s7.7-1.5,10.6-4.4c5.9-5.9,5.9-15.4,0-21.2l-4.4-4.4H467c24.8,0,45-20.2,45-45V136C512,111.2,491.8,91,467,91z M361,377
	c0,24.8-20.2,45-45,45H106c-24.8,0-45-20.2-45-45V197c0-24.8,20.2-45,45-45h210c24.8,0,45,20.2,45,45V377z M437,407h-30
	c-8.3,0-15-6.7-15-15c0-8.3,6.7-15,15-15h30c8.3,0,15,6.7,15,15C452,400.3,445.3,407,437,407z M437,347h-30c-8.3,0-15-6.7-15-15
	c0-8.3,6.7-15,15-15h30c8.3,0,15,6.7,15,15C452,340.3,445.3,347,437,347z M437,287h-30c-8.3,0-15-6.7-15-15c0-8.3,6.7-15,15-15h30
	c8.3,0,15,6.7,15,15C452,280.3,445.3,287,437,287z M422,227c-16.6,0-30-13.5-30-30s13.4-30,30-30s30,13.5,30,30S438.6,227,422,227z"
	/>
</svg>
