<?xml version="1.0" encoding="utf-8"?>
<!-- Generator: Adobe Illustrator 21.0.0, SVG Export Plug-In . SVG Version: 6.00 Build 0)  -->
<svg version="1.1" xmlns="http://www.w3.org/2000/svg" xmlns:xlink="http://www.w3.org/1999/xlink" x="0px" y="0px"
	 viewBox="0 0 600 300" style="enable-background:new 0 0 600 300;" xml:space="preserve">
<style type="text/css">
	.st0{display:none;}
	.st1{fill:#FFFF29;}
	.st2{fill:#F7F116;}
	.st3{fill:#FFCE00;}
</style>
<g id="Layer_1" class="st0">
	
		<image style="display:inline;overflow:visible;" width="1366" height="768" xlink:href="../../../../Pictures/Screenshots/Screenshot (7).png"  transform="matrix(0.7839 0 0 0.7839 -276.875 -155.0366)">
	</image>
</g>
<g id="Layer_2">
	<g>
		<image style="overflow:visible;" width="300" height="71" xlink:href="66E207AA.png"  transform="matrix(1 0 0 1 154 67)">
		</image>
		<g>
			<g>
				<path class="st1" d="M218.2,74.2l-6.5,56.1h-18.2c-1.7-8.6-3.1-18.4-4.4-29.4c-0.6,4.7-1.9,14.5-4.1,29.4h-18.1l-6.5-56.1h14.2
					l1.5,19.6l1.5,18.9c0.5-9.8,1.9-22.6,4-38.5h15.2c0.2,1.6,0.7,7.8,1.6,18.5l1.6,21.4c0.8-13.6,2.2-26.9,4.1-39.9H218.2z"/>
				<path class="st1" d="M249.9,74.2v56.1h-14.6V74.2H249.9z"/>
				<path class="st1" d="M304,98.6h-14.6v-9.8c0-2.8-0.2-4.6-0.5-5.3c-0.3-0.7-1-1.1-2.1-1.1c-1.2,0-2,0.4-2.3,1.3
					c-0.3,0.9-0.5,2.7-0.5,5.5v26.1c0,2.7,0.2,4.5,0.5,5.3c0.3,0.8,1.1,1.2,2.2,1.2c1.1,0,1.8-0.4,2.1-1.3s0.5-2.8,0.5-5.9v-7.1H304
					v2.2c0,5.8-0.4,9.9-1.2,12.4s-2.6,4.6-5.4,6.4c-2.8,1.8-6.3,2.7-10.4,2.7c-4.3,0-7.8-0.8-10.6-2.3c-2.8-1.5-4.6-3.7-5.5-6.4
					c-0.9-2.7-1.4-6.9-1.4-12.4V94c0-4,0.1-7.1,0.4-9.1c0.3-2,1.1-4,2.5-5.8c1.4-1.9,3.3-3.3,5.7-4.4c2.4-1.1,5.2-1.6,8.4-1.6
					c4.3,0,7.8,0.8,10.6,2.5c2.8,1.7,4.6,3.7,5.5,6.2c0.9,2.5,1.3,6.3,1.3,11.6V98.6z"/>
				<path class="st1" d="M358.2,74.2l-8.4,25.3l9.2,30.8h-15.1l-5.9-24.1v24.1h-14.6V74.2H338V96l6.5-21.8H358.2z"/>
				<path class="st1" d="M375.7,74.2h24.3v11.2h-9.7v10.6h9.1v10.7h-9.1v12.3H401v11.2h-25.3V74.2z"/>
				<path class="st1" d="M447.9,74.2v11.2h-8.7v44.9h-14.6V85.4H416V74.2H447.9z"/>
			</g>
		</g>
	</g>
	<g>
		<path class="st2" d="M287,164.8v88c0,0.6-0.2,1.1-0.6,1.5l-2.8,2.8c-0.3,0.3-0.8,0.3-1.1,0l-0.2-0.2l2.6-2.6
			c0.4-0.4,0.6-0.9,0.6-1.5v-88c0-1.2-1-2.1-2.1-2.1h1.5C286,162.7,287,163.6,287,164.8z"/>
		<path class="st1" d="M285.5,164.8v88c0,0.6-0.2,1.1-0.6,1.5l-2.6,2.6l-2.6-2.6c-0.4-0.4-0.6-0.9-0.6-1.5v-88c0-1.2,1-2.1,2.1-2.1
			h2.2C284.5,162.7,285.5,163.6,285.5,164.8z"/>
	</g>
	<g>
		<path class="st2" d="M304,164.8v88c0,0.6-0.2,1.1-0.6,1.5l-2.8,2.8c-0.3,0.3-0.8,0.3-1.1,0l-0.2-0.2l2.6-2.6
			c0.4-0.4,0.6-0.9,0.6-1.5v-88c0-1.2-1-2.1-2.1-2.1h1.5C303,162.7,304,163.6,304,164.8z"/>
		<path class="st1" d="M302.5,164.8v88c0,0.6-0.2,1.1-0.6,1.5l-2.6,2.6l-2.6-2.6c-0.4-0.4-0.6-0.9-0.6-1.5v-88c0-1.2,1-2.1,2.1-2.1
			h2.2C301.5,162.7,302.5,163.6,302.5,164.8z"/>
	</g>
	<g>
		<path class="st2" d="M321,164.8v88c0,0.6-0.2,1.1-0.6,1.5l-2.8,2.8c-0.3,0.3-0.8,0.3-1.1,0l-0.2-0.2l2.6-2.6
			c0.4-0.4,0.6-0.9,0.6-1.5v-88c0-1.2-1-2.1-2.1-2.1h1.5C320,162.7,321,163.6,321,164.8z"/>
		<path class="st1" d="M319.5,164.8v88c0,0.6-0.2,1.1-0.6,1.5l-2.6,2.6l-2.6-2.6c-0.4-0.4-0.6-0.9-0.6-1.5v-88c0-1.2,1-2.1,2.1-2.1
			h2.2C318.5,162.7,319.5,163.6,319.5,164.8z"/>
	</g>
	<g>
		<path class="st3" d="M297.4,146.8l-18.3,10.1c-0.5,0.3-1.1,0.1-1.4-0.4l-0.5-0.8c-0.3-0.5-0.1-1.1,0.4-1.4l18.3-10.1
			c0.5-0.3,1.1-0.1,1.4,0.4l0.5,0.8C298.1,145.9,297.9,146.5,297.4,146.8z"/>
		<path class="st3" d="M284.2,156.3l-0.5,0.3c-0.6,0.3-1.3,0.1-1.6-0.5l-2.2-4c-0.3-0.6-0.1-1.3,0.5-1.6l0.5-0.3
			c0.6-0.3,1.3-0.1,1.6,0.5l2.2,4C285,155.3,284.8,156,284.2,156.3z"/>
		<path class="st3" d="M286.8,154.9l-0.5,0.3c-0.6,0.3-1.3,0.1-1.6-0.5l-2.2-4c-0.3-0.6-0.1-1.3,0.5-1.6l0.5-0.3
			c0.6-0.3,1.3-0.1,1.6,0.5l2.2,4C287.6,153.8,287.4,154.5,286.8,154.9z"/>
		<path class="st3" d="M289.5,153.4l-0.5,0.3c-0.6,0.3-1.3,0.1-1.6-0.5l-2.2-4c-0.3-0.6-0.1-1.3,0.5-1.6l0.5-0.3
			c0.6-0.3,1.3-0.1,1.6,0.5l2.2,4C290.2,152.4,290,153.1,289.5,153.4z"/>
		<path class="st3" d="M292.1,152l-0.5,0.3c-0.6,0.3-1.3,0.1-1.6-0.5l-2.2-4c-0.3-0.6-0.1-1.3,0.5-1.6l0.5-0.3
			c0.6-0.3,1.3-0.1,1.6,0.5l2.2,4C292.9,150.9,292.7,151.6,292.1,152z"/>
		<path class="st3" d="M294.7,150.5l-0.5,0.3c-0.6,0.3-1.3,0.1-1.6-0.5l-2.2-4c-0.3-0.6-0.1-1.3,0.5-1.6l0.5-0.3
			c0.6-0.3,1.3-0.1,1.6,0.5l2.2,4C295.5,149.5,295.3,150.2,294.7,150.5z"/>
	</g>
	<g>
		<path class="st3" d="M333.5,149.1l-19.2-8.4c-0.5-0.2-0.8-0.8-0.5-1.4l0.4-0.9c0.2-0.5,0.8-0.8,1.4-0.5l19.2,8.4
			c0.5,0.2,0.8,0.8,0.5,1.4l-0.4,0.9C334.6,149.1,334,149.3,333.5,149.1z"/>
		<path class="st3" d="M317.9,144.4l-0.6-0.3c-0.6-0.3-0.9-1-0.6-1.6l1.9-4.2c0.3-0.6,1-0.9,1.6-0.6l0.6,0.3c0.6,0.3,0.9,1,0.6,1.6
			l-1.9,4.2C319.2,144.4,318.5,144.7,317.9,144.4z"/>
		<path class="st3" d="M320.6,145.6l-0.6-0.3c-0.6-0.3-0.9-1-0.6-1.6l1.9-4.2c0.3-0.6,1-0.9,1.6-0.6l0.6,0.3c0.6,0.3,0.9,1,0.6,1.6
			l-1.9,4.2C321.9,145.6,321.2,145.9,320.6,145.6z"/>
		<path class="st3" d="M323.4,146.8l-0.6-0.3c-0.6-0.3-0.9-1-0.6-1.6l1.9-4.2c0.3-0.6,1-0.9,1.6-0.6l0.6,0.3c0.6,0.3,0.9,1,0.6,1.6
			l-1.9,4.2C324.7,146.8,324,147.1,323.4,146.8z"/>
		<path class="st3" d="M326.1,148l-0.6-0.3c-0.6-0.3-0.9-1-0.6-1.6l1.9-4.2c0.3-0.6,1-0.9,1.6-0.6l0.6,0.3c0.6,0.3,0.9,1,0.6,1.6
			l-1.9,4.2C327.4,148,326.7,148.3,326.1,148z"/>
		<path class="st3" d="M328.9,149.2l-0.6-0.3c-0.6-0.3-0.9-1-0.6-1.6l1.9-4.2c0.3-0.6,1-0.9,1.6-0.6l0.6,0.3c0.6,0.3,0.9,1,0.6,1.6
			l-1.9,4.2C330.2,149.2,329.5,149.5,328.9,149.2z"/>
	</g>
	<g>
	</g>
	<g>
	</g>
	<g>
	</g>
	<g>
	</g>
	<g>
	</g>
	<g>
	</g>
	<g>
	</g>
	<g>
	</g>
	<g>
	</g>
	<g>
	</g>
	<g>
	</g>
	<g>
	</g>
	<g>
	</g>
	<g>
	</g>
	<g>
	</g>
</g>
</svg>
